<svg xmlns="http://www.w3.org/2000/svg" width="144" height="10.56" viewBox="0 0 144 10.56"><defs><style>.cls-1{fill:#acae2e;}.cls-2{fill:#fff;}</style></defs><title>300x250-prescribing-info</title><g id="Layer_2" data-name="Layer 2"><g id="Frame_7" data-name="Frame 7"><g id="ISI"><g id="FPI_Bar" data-name="FPI Bar"><rect class="cls-1" width="144" height="10.56"/></g><g id="Full_Prescribing_Information" data-name="Full Prescribing Information"><path class="cls-2" d="M31.69,3.62a.44.44,0,0,1,.44-.44h2.26a.41.41,0,1,1,0,.81H32.58v.85h1.56a.41.41,0,0,1,0,.81H32.58V6.8a.45.45,0,0,1-.89,0Z"/><path class="cls-2" d="M38.19,6.81a.44.44,0,0,1-.88,0v0a1.09,1.09,0,0,1-.91.5,1,1,0,0,1-1-1.15V4.53a.44.44,0,0,1,.88,0V5.84c0,.42.2.63.53.63s.55-.21.55-.63V4.53a.44.44,0,1,1,.88,0Z"/><path class="cls-2" d="M39,3.41a.44.44,0,1,1,.87,0v3.4a.44.44,0,0,1-.87,0Z"/><path class="cls-2" d="M40.75,3.41a.44.44,0,1,1,.87,0v3.4a.44.44,0,0,1-.87,0Z"/><path class="cls-2" d="M44.27,3.62a.44.44,0,0,1,.44-.44h1.21a1.38,1.38,0,0,1,1.54,1.39h0A1.44,1.44,0,0,1,45.83,6h-.67v.8a.44.44,0,0,1-.45.44.43.43,0,0,1-.44-.44Zm1.59,1.59a.62.62,0,0,0,.7-.61h0c0-.4-.27-.61-.72-.61h-.68V5.21Z"/><path class="cls-2" d="M48,4.53a.44.44,0,1,1,.88,0v.13c.13-.29.34-.57.59-.57a.4.4,0,0,1,.43.43.39.39,0,0,1-.33.4c-.44.11-.69.45-.69,1.07v.82a.44.44,0,0,1-.88,0Z"/><path class="cls-2" d="M51.9,7.28a1.55,1.55,0,0,1-1.62-1.6h0a1.53,1.53,0,0,1,1.53-1.6A1.46,1.46,0,0,1,53.3,5.55a.4.4,0,0,1-.41.42H51.15a.72.72,0,0,0,.76.6,1,1,0,0,0,.62-.2.32.32,0,0,1,.22-.07.34.34,0,0,1,.22.6A1.6,1.6,0,0,1,51.9,7.28Zm.56-1.86a.65.65,0,0,0-.65-.65.69.69,0,0,0-.67.65Z"/><path class="cls-2" d="M53.88,6.91a.35.35,0,0,1,.18-.64.29.29,0,0,1,.17.05,1.68,1.68,0,0,0,.84.27c.26,0,.37-.09.37-.23h0c0-.19-.3-.25-.64-.36s-.92-.32-.92-.92h0a1,1,0,0,1,1.13-1,2.19,2.19,0,0,1,1,.23.37.37,0,0,1,.2.33.34.34,0,0,1-.35.35.32.32,0,0,1-.16,0,1.67,1.67,0,0,0-.67-.2c-.21,0-.32.09-.32.21V5c0,.17.29.25.63.36s.93.36.93.92h0c0,.68-.51,1-1.18,1A2.13,2.13,0,0,1,53.88,6.91Z"/><path class="cls-2" d="M56.71,5.68h0a1.58,1.58,0,0,1,1.62-1.6,1.54,1.54,0,0,1,1.05.34.39.39,0,0,1,.14.3.39.39,0,0,1-.4.39A.41.41,0,0,1,58.87,5a.86.86,0,0,0-.55-.2.79.79,0,0,0-.75.84h0a.79.79,0,0,0,.79.85.87.87,0,0,0,.57-.21.48.48,0,0,1,.24-.08.37.37,0,0,1,.37.37.36.36,0,0,1-.13.28,1.51,1.51,0,0,1-1.09.4A1.58,1.58,0,0,1,56.71,5.68Z"/><path class="cls-2" d="M60.15,4.53a.44.44,0,1,1,.87,0v.13c.13-.29.34-.57.6-.57a.4.4,0,0,1,.42.43.39.39,0,0,1-.32.4C61.27,5,61,5.37,61,6v.82a.44.44,0,0,1-.87,0Z"/><path class="cls-2" d="M62.54,3.39A.43.43,0,0,1,63,3c.28,0,.49.15.49.41h0a.43.43,0,0,1-.49.41.44.44,0,0,1-.49-.41Zm.06,1.14a.44.44,0,1,1,.87,0V6.81a.44.44,0,0,1-.87,0Z"/><path class="cls-2" d="M64.29,3.41A.44.44,0,0,1,64.73,3a.44.44,0,0,1,.44.44V4.57a1.14,1.14,0,0,1,1-.5,1.45,1.45,0,0,1,1.41,1.59h0a1.45,1.45,0,0,1-1.41,1.6,1.22,1.22,0,0,1-1-.46h0a.43.43,0,0,1-.44.43.44.44,0,0,1-.44-.43Zm2.38,2.26h0a.76.76,0,1,0-1.51,0h0a.76.76,0,1,0,1.51,0Z"/><path class="cls-2" d="M68.17,3.39A.43.43,0,0,1,68.66,3c.28,0,.49.15.49.41h0a.43.43,0,0,1-.49.41.44.44,0,0,1-.49-.41Zm0,1.14a.44.44,0,0,1,.44-.44.44.44,0,0,1,.44.44V6.81a.43.43,0,0,1-.44.43.44.44,0,0,1-.44-.43Z"/><path class="cls-2" d="M69.92,4.53a.44.44,0,0,1,.88,0v0a1.09,1.09,0,0,1,.91-.49,1,1,0,0,1,1.05,1.14v1.6a.44.44,0,0,1-.88,0V5.49c0-.42-.2-.63-.53-.63s-.55.21-.55.63V6.81a.44.44,0,0,1-.88,0Z"/><path class="cls-2" d="M73.77,7.93a.36.36,0,0,1-.25-.34.36.36,0,0,1,.36-.36.32.32,0,0,1,.14,0,2.09,2.09,0,0,0,.86.18c.59,0,.88-.28.88-.84V6.45a1.22,1.22,0,0,1-1,.5,1.35,1.35,0,0,1-1.37-1.43v0a1.35,1.35,0,0,1,1.37-1.43,1.26,1.26,0,0,1,1,.46h0a.44.44,0,1,1,.87,0v2a1.67,1.67,0,0,1-.39,1.22,1.84,1.84,0,0,1-1.33.41A3,3,0,0,1,73.77,7.93Zm2-2.41v0A.71.71,0,0,0,75,4.79a.7.7,0,0,0-.75.71v0a.7.7,0,0,0,.75.71A.71.71,0,0,0,75.76,5.52Z"/><path class="cls-2" d="M79.26,3.59a.44.44,0,0,1,.45-.44.43.43,0,0,1,.44.44V6.8a.43.43,0,0,1-.44.44.44.44,0,0,1-.45-.44Z"/><path class="cls-2" d="M81.07,4.53a.44.44,0,1,1,.87,0v0a1.11,1.11,0,0,1,.91-.49A1,1,0,0,1,83.9,5.21v1.6a.44.44,0,0,1-.88,0V5.49c0-.42-.19-.63-.53-.63s-.55.21-.55.63V6.81a.44.44,0,0,1-.87,0Z"/><path class="cls-2" d="M84.81,4.87h0a.35.35,0,0,1-.36-.35.36.36,0,0,1,.36-.37h0V4a1,1,0,0,1,.24-.75A1,1,0,0,1,85.76,3a1.94,1.94,0,0,1,.36,0,.36.36,0,0,1-.06.71H86a.3.3,0,0,0-.32.34v.12h.38a.36.36,0,1,1,0,.71h-.37V6.81a.44.44,0,0,1-.87,0Z"/><path class="cls-2" d="M86.71,5.68h0a1.62,1.62,0,0,1,1.68-1.6,1.6,1.6,0,0,1,1.66,1.59h0a1.67,1.67,0,0,1-3.34,0Zm2.48,0h0a.82.82,0,0,0-.81-.85.8.8,0,0,0-.81.84h0a.82.82,0,0,0,.82.85A.79.79,0,0,0,89.19,5.68Z"/><path class="cls-2" d="M90.68,4.53a.44.44,0,0,1,.88,0v.13c.13-.29.33-.57.59-.57a.4.4,0,0,1,.43.43.39.39,0,0,1-.33.4c-.44.11-.69.45-.69,1.07v.82a.44.44,0,0,1-.88,0Z"/><path class="cls-2" d="M93.09,4.53a.44.44,0,0,1,.88,0v0a1.1,1.1,0,0,1,.91-.49.91.91,0,0,1,.87.49,1.27,1.27,0,0,1,1-.49,1,1,0,0,1,1,1.13V6.81a.44.44,0,0,1-.88,0V5.49c0-.42-.18-.63-.51-.63s-.53.21-.53.63V6.81a.44.44,0,0,1-.88,0V5.49c0-.42-.18-.63-.51-.63s-.53.21-.53.63V6.81a.44.44,0,0,1-.88,0Z"/><path class="cls-2" d="M98.38,6.32h0c0-.67.51-1,1.25-1a2.31,2.31,0,0,1,.75.12v0c0-.36-.22-.56-.66-.56a2.15,2.15,0,0,0-.61.08A.3.3,0,0,1,99,5a.36.36,0,0,1-.13-.7,2.81,2.81,0,0,1,1-.16,1.41,1.41,0,0,1,1,.35,1.31,1.31,0,0,1,.33,1v1.4a.41.41,0,0,1-.42.42.39.39,0,0,1-.42-.36h0a1.2,1.2,0,0,1-.94.4A1,1,0,0,1,98.38,6.32Zm2-.2V6a1.32,1.32,0,0,0-.56-.12c-.37,0-.6.15-.6.43h0c0,.23.2.37.48.37S100.39,6.44,100.39,6.12Z"/><path class="cls-2" d="M102.12,6.33V4.87h0a.36.36,0,0,1-.37-.37.37.37,0,0,1,.37-.38h0V3.74a.44.44,0,1,1,.88,0v.38h.38a.38.38,0,0,1,.38.38.37.37,0,0,1-.38.37H103V6.19c0,.2.08.3.28.3h.1a.37.37,0,0,1,.37.37.35.35,0,0,1-.23.32,1.17,1.17,0,0,1-.5.09C102.48,7.26,102.12,7.05,102.12,6.33Z"/><path class="cls-2" d="M104.36,3.39c0-.26.21-.41.49-.41a.43.43,0,0,1,.49.41h0a.44.44,0,0,1-.49.41.43.43,0,0,1-.49-.41Zm0,1.14a.44.44,0,0,1,.44-.44.44.44,0,0,1,.44.44V6.81a.44.44,0,0,1-.44.43.43.43,0,0,1-.44-.43Z"/><path class="cls-2" d="M106,5.68h0a1.62,1.62,0,0,1,1.68-1.6,1.6,1.6,0,0,1,1.66,1.59h0a1.67,1.67,0,0,1-3.34,0Zm2.48,0h0a.82.82,0,0,0-.82-.85.79.79,0,0,0-.8.84h0a.82.82,0,0,0,.82.85A.79.79,0,0,0,108.44,5.68Z"/><path class="cls-2" d="M109.93,4.53a.44.44,0,1,1,.88,0v0a1.09,1.09,0,0,1,.91-.49,1,1,0,0,1,1,1.14v1.6a.44.44,0,0,1-.44.43.43.43,0,0,1-.44-.43V5.49c0-.42-.2-.63-.53-.63s-.55.21-.55.63V6.81a.44.44,0,0,1-.88,0Z"/><path class="cls-2" d="M31.21,7.93V7.64h81.92v.29Z"/></g></g></g></g></svg>