<?xml version="1.0" encoding="utf-8"?>
<!-- Generator: Adobe Illustrator 21.1.0, SVG Export Plug-In . SVG Version: 6.00 Build 0)  -->
<svg version="1.1" id="Large" xmlns="http://www.w3.org/2000/svg" xmlns:xlink="http://www.w3.org/1999/xlink" x="0px" y="0px"
	 viewBox="0 0 239.8 204.7" style="enable-background:new 0 0 239.8 204.7;" xml:space="preserve">
<style type="text/css">
	.st0{fill:#382F2D;}
	.st1{fill:#ACAE2E;}
	.st2{fill:#2DCCD3;}
	.st3{fill:#66504E;}
</style>
<g>
	<path class="st0" d="M28.3,123.6v-0.1c0-6.7-4.6-11-10-11c-5.3,0-10.2,4.4-10.2,10.9v0.1c0,6.6,5,11,10.2,11
		C23.9,134.5,28.3,130.4,28.3,123.6 M4.1,102.2c0-1.2,0.9-2.1,2.1-2.1s2.1,0.9,2.1,2.1V115c2.3-3.4,5.6-6.3,10.8-6.3
		c6.8,0,13.5,5.4,13.5,14.7v0.1c0,9.3-6.7,14.7-13.5,14.7c-5.3,0-8.7-2.8-10.8-6v3.6c0,1.1-0.9,2.1-2.1,2.1s-2.1-1-2.1-2.1V102.2z"
		/>
	<path class="st0" d="M59.2,127.2v-2.7c-2.1-0.6-4.9-1.2-8.3-1.2c-5.3,0-8.3,2.3-8.3,5.9v0.1c0,3.6,3.3,5.6,7.1,5.6
		C54.9,134.9,59.2,131.7,59.2,127.2 M38.3,129.4v-0.1c0-6,4.9-9.1,12.1-9.1c3.6,0,6.2,0.5,8.7,1.2v-1c0-5.1-3.1-7.7-8.4-7.7
		c-2.9,0-5.3,0.7-7.3,1.6c-0.3,0.1-0.5,0.2-0.8,0.2c-1,0-1.9-0.8-1.9-1.8c0-0.9,0.6-1.5,1.2-1.8c2.8-1.2,5.6-1.9,9.3-1.9
		c4,0,7.1,1,9.1,3.1c1.9,1.9,2.9,4.7,2.9,8.3v15.5c0,1.2-0.9,2.1-2,2.1c-1.2,0-2-0.9-2-2v-2.6c-2,2.6-5.3,4.9-10.2,4.9
		C43.6,138.2,38.3,135.2,38.3,129.4"/>
	<path class="st0" d="M70.6,134.6c-0.4-0.3-0.8-0.8-0.8-1.5c0-1,0.8-1.8,1.9-1.8c0.4,0,0.8,0.1,1,0.3c2.9,2,5.9,3,9,3
		c3.4,0,5.9-1.8,5.9-4.5V130c0-2.8-3.3-3.9-7.1-5c-4.4-1.3-9.4-2.8-9.4-8v-0.1c0-4.9,4.1-8.1,9.6-8.1c3,0,6.3,0.9,9,2.4
		c0.5,0.3,1,0.9,1,1.8c0,1-0.8,1.8-1.9,1.8c-0.4,0-0.7-0.1-0.9-0.2c-2.4-1.4-5-2.2-7.4-2.2c-3.3,0-5.5,1.8-5.5,4.1v0.1
		c0,2.7,3.5,3.7,7.3,4.9c4.4,1.3,9.1,3,9.1,8.1v0.1c0,5.4-4.4,8.5-10.1,8.5C77.8,138.2,73.7,136.8,70.6,134.6"/>
	<path class="st0" d="M118.2,127.2v-2.7c-2.1-0.6-4.9-1.2-8.3-1.2c-5.3,0-8.3,2.3-8.3,5.9v0.1c0,3.6,3.3,5.6,7.1,5.6
		C113.9,134.9,118.2,131.7,118.2,127.2 M97.2,129.4v-0.1c0-6,4.9-9.1,12.1-9.1c3.6,0,6.2,0.5,8.7,1.2v-1c0-5.1-3.1-7.7-8.4-7.7
		c-2.8,0-5.3,0.7-7.3,1.6c-0.3,0.1-0.5,0.2-0.8,0.2c-1,0-1.9-0.8-1.9-1.8c0-0.9,0.6-1.5,1.1-1.8c2.8-1.2,5.6-1.9,9.3-1.9
		c4,0,7.1,1,9.1,3.1c1.9,1.9,2.9,4.7,2.9,8.3v15.5c0,1.2-0.9,2.1-2,2.1c-1.2,0-2-0.9-2-2v-2.6c-2,2.6-5.3,4.9-10.2,4.9
		C102.6,138.2,97.2,135.2,97.2,129.4"/>
	<path class="st0" d="M154.1,122.1V122c0-5.8-5-9.6-10.4-9.6s-9.8,3.7-9.8,9.5v0.1c0,5.7,4.5,9.6,9.8,9.6
		C148.9,131.7,154.1,127.8,154.1,122.1 M131.9,143.2c-0.7-0.3-1.1-1-1.1-1.8c0-0.9,0.9-1.9,1.9-1.9c0.4,0,0.7,0.1,0.9,0.3
		c3,2,6.4,3.1,10,3.1c6.2,0,10.3-3.5,10.3-10.1v-3.3c-2.5,3.3-5.9,6-11.1,6c-6.8,0-13.3-5.1-13.3-13.3v-0.1
		c0-8.3,6.6-13.4,13.3-13.4c5.3,0,8.8,2.6,11.1,5.7v-3.2c0-1.2,0.9-2.1,2.1-2.1c1.2,0,2.1,1,2.1,2.1v21.5c0,4.4-1.3,7.7-3.6,10
		c-2.5,2.5-6.3,3.8-10.8,3.8C139.4,146.5,135.4,145.4,131.9,143.2"/>
	<path class="st0" d="M167.9,102.2c0-1.2,0.9-2.1,2.1-2.1c1.2,0,2.1,1,2.1,2.1v33.5c0,1.2-0.9,2.1-2.1,2.1s-2.1-0.9-2.1-2.1V102.2z"
		/>
	<path class="st0" d="M200.7,127.2v-2.7c-2.1-0.6-4.9-1.2-8.3-1.2c-5.3,0-8.3,2.3-8.3,5.9v0.1c0,3.6,3.3,5.6,7.1,5.6
		C196.4,134.9,200.7,131.7,200.7,127.2 M179.8,129.4v-0.1c0-6,4.9-9.1,12.1-9.1c3.6,0,6.2,0.5,8.7,1.2v-1c0-5.1-3.1-7.7-8.4-7.7
		c-2.8,0-5.3,0.7-7.3,1.6c-0.3,0.1-0.6,0.2-0.8,0.2c-1,0-1.9-0.8-1.9-1.8c0-0.9,0.6-1.5,1.1-1.8c2.8-1.2,5.6-1.9,9.3-1.9
		c4,0,7.1,1,9.1,3.1c1.9,1.9,2.9,4.7,2.9,8.3v15.5c0,1.2-0.9,2.1-2,2.1c-1.2,0-2-0.9-2-2v-2.6c-2,2.6-5.3,4.9-10.2,4.9
		C185.1,138.2,179.8,135.2,179.8,129.4"/>
	<path class="st0" d="M213.7,111.2c0-1.2,0.9-2.1,2.1-2.1c1.2,0,2.1,0.9,2.1,2.1v5.3c2.1-4.7,6.2-7.6,9.8-7.6c1.3,0,2.1,0.9,2.1,2.1
		c0,1.1-0.8,2-1.9,2.1c-5.5,0.7-10,4.8-10,12.9v9.6c0,1.2-0.9,2.1-2.1,2.1c-1.2,0-2.1-0.9-2.1-2.1L213.7,111.2L213.7,111.2z"/>
	<path class="st1" d="M109.8,8.5c-6.7,10-15.3,24.7-15.3,30.6c0,8.4,6.9,15.3,15.3,15.3s15.3-6.9,15.3-15.3
		C124.9,33.2,116.4,18.5,109.8,8.5 M109.8,60.5c-11.8,0-21.4-9.6-21.4-21.4c0-10.8,17-35.1,18.9-37.8c0.6-0.8,1.5-1.3,2.5-1.3
		s1.9,0.5,2.5,1.3c1.9,2.7,18.9,27,18.9,37.8C131.2,50.9,121.6,60.5,109.8,60.5"/>
	<path class="st2" d="M109.7,88c-0.8,0-1.5-0.3-2.1-0.8L87.2,67.8c-1.2-1.2-1.3-3.1-0.1-4.3c1.2-1.2,3.1-1.3,4.3-0.1l18.3,17.4
		l18.4-17.5c1.2-1.2,3.2-1.1,4.3,0.1c1.2,1.2,1.1,3.2-0.1,4.3l-20.4,19.4C111.2,87.7,110.5,88,109.7,88"/>
	<path class="st0" d="M233.2,108.9L233.2,108.9c0-1.8,1.4-3.3,3.3-3.3c1.8,0,3.2,1.5,3.2,3.3l0,0c0,1.8-1.4,3.3-3.2,3.3
		C234.7,112.1,233.2,110.7,233.2,108.9z M239.4,108.9L239.4,108.9c0-1.6-1.2-2.9-2.9-2.9c-1.6,0-2.9,1.3-2.9,2.9l0,0
		c0,1.6,1.2,2.9,2.9,2.9C238.2,111.8,239.4,110.4,239.4,108.9z M235.2,107.5c0-0.2,0.1-0.3,0.3-0.3h1.2c0.7,0,1.3,0.4,1.3,1
		c0,0.5-0.3,0.9-0.7,1l0.6,0.7c0.1,0.1,0.1,0.2,0.1,0.2c0,0.2-0.1,0.3-0.3,0.3c-0.1,0-0.2-0.1-0.3-0.2l-0.9-1h-0.7v0.9
		c0,0.2-0.2,0.3-0.3,0.3c-0.2,0-0.3-0.1-0.3-0.3L235.2,107.5L235.2,107.5z M236.7,108.8c0.4,0,0.7-0.2,0.7-0.5
		c0-0.4-0.2-0.5-0.7-0.5h-0.8v1.1L236.7,108.8L236.7,108.8z"/>
	<g>
		<g>
			<path class="st3" d="M11.6,152.4h1.9v2.4h-1.9V152.4z M11.6,157.6h1.8v15.3h-1.8V157.6z"/>
			<path class="st3" d="M16.3,157.6h1.8v2.1c0.6-1.3,1.5-2.4,3-2.4c2,0,3.3,1.7,3.3,4.6v11h-1.8v-10.6c0-2.1-0.8-3.3-2.1-3.3
				c-1.4,0-2.4,1.4-2.4,3.5V173h-1.8V157.6z"/>
			<path class="st3" d="M26.5,172.4v-1.8c1.1,0.6,2.1,0.9,3,0.9c1.1,0,2-0.8,2-2v-0.1c0-1-0.5-1.9-2.2-3.5c-2.1-2-2.9-3.2-2.9-4.9
				v-0.1c0-2.3,1.7-3.6,3.7-3.6c1,0,1.7,0.1,2.5,0.5v1.8c-0.8-0.4-1.7-0.6-2.5-0.6c-1.1,0-1.9,0.7-1.9,1.8v0.1c0,1,0.5,1.7,2.3,3.4
				c2.1,2.1,2.8,3.3,2.8,5v0.1c0,2.3-1.8,3.7-3.8,3.7C28.4,173.1,27.5,172.9,26.5,172.4z"/>
			<path class="st3" d="M35.2,168.6v-11H37v10.6c0,2.1,0.8,3.3,2.1,3.3c1.4,0,2.4-1.4,2.4-3.5v-10.5h1.8v15.3h-1.8v-2.1
				c-0.6,1.2-1.5,2.4-3,2.4C36.5,173.2,35.2,171.5,35.2,168.6z"/>
			<path class="st3" d="M46.3,152.4h1.8v20.5h-1.8V152.4z"/>
			<path class="st3" d="M51.1,152.4H53v2.4h-1.9V152.4z M51.1,157.6h1.8v15.3h-1.8V157.6z"/>
			<path class="st3" d="M55.8,157.6h1.8v2.1c0.6-1.3,1.5-2.4,3-2.4c2,0,3.3,1.7,3.3,4.6v11h-1.8v-10.6c0-2.1-0.8-3.3-2.1-3.3
				c-1.4,0-2.4,1.4-2.4,3.5V173h-1.8V157.6z"/>
			<path class="st3" d="M71.6,176.2v-1.8c1,0.4,2.3,0.7,3.2,0.7c1.9,0,3-0.9,3-2.9v-3c-0.6,1.5-1.5,2.9-3.1,2.9
				c-2,0-3.8-2.3-3.8-7.3v-0.2c0-4.9,1.8-7.3,3.8-7.3c1.5,0,2.5,1.4,3.1,2.9v-2.6h1.8v14.6c0,3.1-1.8,4.5-4.7,4.5
				C73.8,176.7,72.6,176.5,71.6,176.2z M77.9,164.8v-0.2c0-3.6-1.3-5.6-2.6-5.6c-1.3,0-2.5,2-2.5,5.6v0.2c0,3.7,1.1,5.6,2.5,5.6
				C76.5,170.4,77.9,168.4,77.9,164.8z"/>
			<path class="st3" d="M82.5,152.4h1.8v20.5h-1.8V152.4z"/>
			<path class="st3" d="M86.5,168.5v-0.3c0-3,1.5-4.9,3.9-4.9c1,0,1.7,0.3,2.4,0.6v-1.7c0-2-0.9-3.1-2.7-3.1c-1,0-1.9,0.2-2.8,0.7
				v-1.7c0.9-0.4,1.8-0.7,3-0.7c2.7,0,4.3,1.6,4.3,4.6v10.8h-1.8v-2.1c-0.6,1.5-1.5,2.3-2.9,2.3C87.9,173.2,86.5,171.2,86.5,168.5z
				 M92.8,168.3v-2.9c-0.7-0.3-1.4-0.6-2.1-0.6c-1.6,0-2.4,1.3-2.4,3.2v0.3c0,1.9,0.8,3.2,2.1,3.2C91.8,171.6,92.8,170.1,92.8,168.3
				z"/>
			<path class="st3" d="M97.2,157.6h1.8v2.1c0.6-1.4,1.6-2.4,3.3-2.3v2.1h-0.1c-1.8,0-3.2,1.2-3.2,3.7v9.7h-1.8
				C97.3,172.9,97.3,157.6,97.2,157.6z"/>
			<path class="st3" d="M103.8,176.2v-1.8c1,0.4,2.3,0.7,3.2,0.7c1.9,0,3-0.9,3-2.9v-3c-0.6,1.5-1.5,2.9-3.1,2.9
				c-2,0-3.8-2.3-3.8-7.3v-0.2c0-4.9,1.8-7.3,3.8-7.3c1.5,0,2.5,1.4,3.1,2.9v-2.6h1.8v14.6c0,3.1-1.8,4.5-4.7,4.5
				C106,176.7,104.9,176.5,103.8,176.2z M110.1,164.8v-0.2c0-3.6-1.3-5.6-2.6-5.6c-1.3,0-2.5,2-2.5,5.6v0.2c0,3.7,1.1,5.6,2.5,5.6
				C108.8,170.4,110.1,168.4,110.1,164.8z"/>
			<path class="st3" d="M114.7,152.4h1.9v2.4h-1.9V152.4z M114.7,157.6h1.8v15.3h-1.8V157.6z"/>
			<path class="st3" d="M119.4,157.6h1.8v2.1c0.6-1.3,1.5-2.4,3-2.4c2,0,3.3,1.7,3.3,4.6v11h-1.8v-10.6c0-2.1-0.8-3.3-2.1-3.3
				c-1.4,0-2.4,1.4-2.4,3.5V173h-1.8V157.6z"/>
			<path class="st3" d="M129.8,165.6v-0.4c0-5.2,2-7.8,4.3-7.8c2.4,0,4.1,2.7,4.1,7.5v1.2h-6.6c0.1,3.7,1.6,5.4,3.4,5.4
				c1,0,1.7-0.3,2.7-1l0.2,1.7c-1.1,0.7-1.9,0.9-3.1,0.9C132.1,173.1,129.8,170.6,129.8,165.6z M136.4,164.6c0-3.3-1-5.5-2.3-5.5
				c-1.4,0-2.4,1.8-2.5,5.5H136.4z"/>
			<path class="st3" d="M145.2,152.4h1.9v2.4h-1.9V152.4z M145.2,157.6h1.8v15.3h-1.8V157.6z"/>
			<path class="st3" d="M149.9,157.6h1.8v2.1c0.6-1.3,1.5-2.4,3-2.4c2,0,3.3,1.7,3.3,4.6v11h-1.8v-10.6c0-2.1-0.8-3.3-2.1-3.3
				c-1.4,0-2.4,1.4-2.4,3.5V173h-1.8V157.6z"/>
			<path class="st3" d="M158.9,176.6v-1.5c0.1,0.1,0.3,0.1,0.5,0.1c1.4,0,1.7-1,1.7-2.3v-15.2h1.8v15.6c0,1.9-0.8,3.5-3.1,3.5
				C159.4,176.8,159.1,176.7,158.9,176.6z M161.1,152.4h1.9v2.4h-1.9V152.4z"/>
			<path class="st3" d="M165.2,165.6v-0.4c0-5.2,2-7.8,4.3-7.8c2.4,0,4.1,2.7,4.1,7.5v1.2h-6.6c0.1,3.7,1.6,5.4,3.4,5.4
				c1,0,1.7-0.3,2.7-1l0.2,1.7c-1.1,0.7-1.9,0.9-3.1,0.9C167.6,173.1,165.2,170.6,165.2,165.6z M171.9,164.6c0-3.3-1-5.5-2.3-5.5
				c-1.4,0-2.4,1.8-2.5,5.5H171.9z"/>
			<path class="st3" d="M175.4,165.5v-0.4c0-5.2,2.2-7.7,4.7-7.7c0.8,0,1.4,0.2,1.9,0.5v1.9c-0.6-0.4-1.1-0.7-1.8-0.7
				c-1.4,0-3,1.8-3,5.9v0.6c0,4.2,1.5,5.8,3.1,5.8c0.6,0,1.2-0.3,1.7-0.7v1.8c-0.6,0.4-1.1,0.6-1.9,0.6
				C177.6,173.1,175.4,170.7,175.4,165.5z"/>
			<path class="st3" d="M184.4,170.3v-11.2h-1.3v-1.6h1.3v-4.2h1.8v4.2h2.3v1.6h-2.3v10.7c0,1.2,0.5,1.5,1.4,1.5
				c0.3,0,0.6-0.1,0.9-0.1v1.6c-0.3,0.1-0.9,0.3-1.3,0.3C185.6,173.1,184.4,172.4,184.4,170.3z"/>
			<path class="st3" d="M190.8,152.4h1.9v2.4h-1.9V152.4z M190.8,157.6h1.8v15.3h-1.8V157.6z"/>
			<path class="st3" d="M194.9,165.5v-0.4c0-4.8,2-7.7,4.5-7.7c2.4,0,4.4,2.8,4.4,7.7v0.4c0,4.8-2,7.7-4.5,7.7
				C196.9,173.2,194.9,170.3,194.9,165.5z M202.1,165.5V165c0-3.7-1.2-6-2.6-6c-1.5,0-2.6,2.3-2.6,6v0.5c0,3.7,1.2,6,2.6,6
				S202.1,169.2,202.1,165.5z"/>
			<path class="st3" d="M206.1,157.6h1.8v2.1c0.6-1.3,1.5-2.4,3-2.4c2,0,3.3,1.7,3.3,4.6v11h-1.8v-10.6c0-2.1-0.8-3.3-2.1-3.3
				s-2.4,1.4-2.4,3.5V173h-1.8V157.6z"/>
			<path class="st3" d="M61.7,183.8l-2.1,1.1v-2l2.5-1.2h1.5V202h-1.9V183.8z"/>
			<path class="st3" d="M66.2,192.1v-0.6c0-7.2,1.7-10.1,4.5-10.1c2.7,0,4.5,2.9,4.5,10.1v0.6c0,7.2-1.8,10.1-4.5,10.1
				S66.2,199.2,66.2,192.1z M73.4,192.1v-0.6c0-6-1-8.4-2.6-8.4c-1.5,0-2.6,2.4-2.6,8.4v0.6c0,6,1.1,8.4,2.6,8.4
				C72.2,200.4,73.4,198.1,73.4,192.1z"/>
			<path class="st3" d="M77.2,192.1v-0.6c0-7.2,1.7-10.1,4.5-10.1c2.7,0,4.5,2.9,4.5,10.1v0.6c0,7.2-1.8,10.1-4.5,10.1
				C79,202.2,77.2,199.2,77.2,192.1z M84.2,192.1v-0.6c0-6-1-8.4-2.6-8.4c-1.5,0-2.6,2.4-2.6,8.4v0.6c0,6,1.1,8.4,2.6,8.4
				C83.2,200.4,84.2,198.1,84.2,192.1z"/>
			<path class="st3" d="M93.4,196.5v-14.9h1.9v15c0,2.5,1,3.8,2.7,3.8c1.6,0,2.7-1.3,2.7-3.8v-15h1.9v14.9c0,3.6-1.8,5.7-4.6,5.7
				C95.2,202.2,93.4,200.1,93.4,196.5z"/>
			<path class="st3" d="M105.2,186.6h1.8v2.1c0.6-1.3,1.5-2.4,3-2.4c2,0,3.3,1.7,3.3,4.6v11h-1.8v-10.6c0-2.1-0.8-3.3-2.1-3.3
				c-1.4,0-2.4,1.4-2.4,3.5V202h-1.8V186.6z"/>
			<path class="st3" d="M116.2,181.4h1.9v2.4h-1.9V181.4z M116.2,186.6h1.8v15.3h-1.8V186.6z"/>
			<path class="st3" d="M121.4,199.3v-11.2h-1.3v-1.6h1.3v-4.2h1.8v4.2h2.3v1.6h-2.3v10.7c0,1.2,0.5,1.5,1.4,1.5
				c0.3,0,0.6-0.1,0.9-0.1v1.6c-0.3,0.1-0.9,0.3-1.3,0.3C122.6,202.1,121.4,201.4,121.4,199.3z"/>
			<path class="st3" d="M126.9,201.4v-1.8c1.1,0.6,2.1,0.9,3,0.9c1.1,0,2-0.8,2-2v-0.1c0-1-0.5-1.9-2.2-3.5c-2.1-2-2.9-3.2-2.9-4.9
				v-0.1c0-2.3,1.7-3.6,3.7-3.6c1,0,1.7,0.1,2.5,0.5v1.8c-0.8-0.4-1.7-0.6-2.5-0.6c-1.1,0-1.9,0.7-1.9,1.8v0.1c0,1,0.5,1.7,2.3,3.4
				c2.1,2.1,2.8,3.3,2.8,5v0.1c0,2.3-1.8,3.7-3.8,3.7C128.9,202.1,127.9,201.9,126.9,201.4z"/>
			<path class="st3" d="M140.4,179.6h1.6l-6.3,25.1h-1.6L140.4,179.6z"/>
			<path class="st3" d="M142.8,186.6h1.8v2.1c0.6-1.3,1.5-2.4,3-2.4c1.6,0,2.4,1.1,2.9,2.4c0.6-1.1,1.5-2.4,3.2-2.4
				c1.9,0,3.4,1.6,3.4,4.6v11h-1.8v-10.7c0-2.1-0.8-3.3-2.1-3.3s-2.4,1.4-2.4,3.5v10.5h-1.8v-10.7c0-2.1-0.8-3.3-2.1-3.3
				s-2.4,1.4-2.4,3.5v10.5h-1.8v-15.3H142.8z"/>
			<path class="st3" d="M159.9,181.6h1.9v18.5h4.7v1.8h-6.6L159.9,181.6L159.9,181.6z"/>
		</g>
	</g>
</g>
</svg>
