<svg xmlns="http://www.w3.org/2000/svg" width="92.61" height="69.65" viewBox="0 0 92.61 69.65"><defs><style>.cls-1{fill:#d52b1e;}.cls-2{fill:#82786f;}</style></defs><title>300x250-frame1-text1</title><g id="Layer_2" data-name="Layer 2"><g id="Frame_2" data-name="Frame 2"><g id="_MAYBE_" data-name="“MAYBE”"><path class="cls-1" d="M15.89,60.38a1.29,1.29,0,0,0-1.11,1.36,1.28,1.28,0,0,1,1,1.18v0a1.14,1.14,0,0,1-1.2,1.18c-.8,0-1.28-.61-1.28-1.61v-.06a3.21,3.21,0,0,1,.85-2.36,2.44,2.44,0,0,1,1.62-.69.48.48,0,0,1,.54.49A.49.49,0,0,1,15.89,60.38Zm3.66,0a1.28,1.28,0,0,0-1.11,1.36,1.29,1.29,0,0,1,1,1.18v0a1.14,1.14,0,0,1-1.2,1.18c-.8,0-1.28-.61-1.28-1.61v-.06a3.21,3.21,0,0,1,.85-2.36,2.43,2.43,0,0,1,1.61-.69.48.48,0,0,1,.55.49A.5.5,0,0,1,19.55,60.38Z"/><path class="cls-1" d="M21.54,60.53a1.1,1.1,0,0,1,1.1-1.11h.25a1.15,1.15,0,0,1,1,.58l2.68,4.37L29.27,60a1.08,1.08,0,0,1,1-.57h.25a1.11,1.11,0,0,1,1.11,1.11v8a1.11,1.11,0,1,1-2.21,0v-5l-1.94,3a1.07,1.07,0,0,1-.92.56,1.06,1.06,0,0,1-.92-.56l-1.92-3v5a1.08,1.08,0,0,1-1.09,1.08,1.06,1.06,0,0,1-1.08-1.08Z"/><path class="cls-1" d="M33.47,68.14,37,60.2a1.37,1.37,0,0,1,1.29-.88h.13a1.35,1.35,0,0,1,1.28.88l3.52,7.94a1.1,1.1,0,0,1,.11.45,1,1,0,0,1-1,1.06,1.12,1.12,0,0,1-1.06-.76l-.68-1.59H36.09L35.39,69a1.09,1.09,0,0,1-1,.69,1,1,0,0,1-1-1A1.23,1.23,0,0,1,33.47,68.14Zm6.24-2.8L38.31,62l-1.39,3.32Z"/><path class="cls-1" d="M46.62,65.68l-3.26-4.43a1.34,1.34,0,0,1-.27-.79A1.08,1.08,0,0,1,44.2,59.4a1.3,1.3,0,0,1,1.1.67l2.44,3.53L50.24,60a1.26,1.26,0,0,1,1.06-.66,1,1,0,0,1,1.08,1.08,1.35,1.35,0,0,1-.29.78l-3.25,4.39v2.91a1.11,1.11,0,0,1-2.22,0Z"/><path class="cls-1" d="M53.89,60.59A1.1,1.1,0,0,1,55,59.48h3.57a3.63,3.63,0,0,1,2.64.9,2.31,2.31,0,0,1,.69,1.71v0a2.32,2.32,0,0,1-1.33,2.17,2.47,2.47,0,0,1,1.89,2.48v0c0,1.84-1.5,2.77-3.77,2.77H55a1.1,1.1,0,0,1-1.11-1.11Zm4.21,3c1,0,1.6-.32,1.6-1.07v0c0-.66-.52-1-1.46-1H56.05v2.13Zm.59,4.06c1,0,1.57-.34,1.57-1.09v0c0-.68-.51-1.1-1.64-1.1H56.05v2.22Z"/><path class="cls-1" d="M64.29,68.46V60.59a1.1,1.1,0,0,1,1.11-1.11H71a1,1,0,0,1,1,1,1,1,0,0,1-1,1h-4.5v2h3.85a1,1,0,0,1,1,1,1,1,0,0,1-1,1H66.49v2.12h4.57a1,1,0,0,1,1,1,1,1,0,0,1-1,1H65.4A1.1,1.1,0,0,1,64.29,68.46Z"/><path class="cls-1" d="M73.5,63.16a1.3,1.3,0,0,0,1.11-1.37,1.28,1.28,0,0,1-1-1.18v0a1.14,1.14,0,0,1,1.2-1.18c.81,0,1.28.62,1.28,1.61v.06a3.17,3.17,0,0,1-.85,2.36,2.43,2.43,0,0,1-1.61.69.48.48,0,1,1-.12-1Zm3.66,0a1.3,1.3,0,0,0,1.11-1.37,1.28,1.28,0,0,1-1-1.18v0a1.14,1.14,0,0,1,1.2-1.18c.81,0,1.28.62,1.28,1.61v.06a3.21,3.21,0,0,1-.85,2.36,2.43,2.43,0,0,1-1.61.69.48.48,0,1,1-.12-1Z"/></g><g id="to_insulin_may_sound_more_like" data-name="to insulin may  sound more like"><path class="cls-2" d="M6.85,36.41V33.49H6.79a.75.75,0,1,1,0-1.5h.06v-.77a.88.88,0,1,1,1.75,0V32h.77a.75.75,0,1,1,0,1.5H8.6v2.64c0,.4.17.59.56.59h.21a.74.74,0,0,1,.73.73.73.73,0,0,1-.45.66,2.69,2.69,0,0,1-1,.17C7.57,38.27,6.85,37.84,6.85,36.41Z"/><path class="cls-2" d="M10.87,35.11v0a3.23,3.23,0,0,1,3.35-3.21,3.21,3.21,0,0,1,3.33,3.19v0A3.24,3.24,0,0,1,14.2,38.3,3.21,3.21,0,0,1,10.87,35.11Zm5,0v0a1.64,1.64,0,0,0-1.62-1.71,1.59,1.59,0,0,0-1.6,1.69v0a1.63,1.63,0,0,0,1.62,1.7A1.58,1.58,0,0,0,15.82,35.11Z"/><path class="cls-2" d="M22.25,30.52a1,1,0,0,1,2,0v0a1,1,0,0,1-2,0Zm.1,2.28a.88.88,0,1,1,1.75,0v4.56a.88.88,0,0,1-1.75,0Z"/><path class="cls-2" d="M25.75,32.8a.88.88,0,1,1,1.75,0v.07a2.19,2.19,0,0,1,1.81-1,2,2,0,0,1,2.1,2.29v3.19a.88.88,0,0,1-1.75,0V34.72c0-.83-.39-1.26-1.06-1.26s-1.1.43-1.1,1.26v2.64a.88.88,0,0,1-1.75,0Z"/><path class="cls-2" d="M32.77,37.58a.71.71,0,0,1-.34-.6.68.68,0,0,1,.69-.69.65.65,0,0,1,.35.09,3.25,3.25,0,0,0,1.67.55c.51,0,.74-.18.74-.46v0c0-.38-.6-.51-1.28-.72-.86-.25-1.84-.65-1.84-1.85v0a2,2,0,0,1,2.25-2,4.35,4.35,0,0,1,1.92.47.72.72,0,0,1,.41.66.69.69,0,0,1-.7.69.59.59,0,0,1-.32-.08A3.35,3.35,0,0,0,35,33.25c-.43,0-.65.18-.65.42v0c0,.34.59.5,1.26.73.86.29,1.87.7,1.87,1.83v0c0,1.37-1,2-2.37,2A4.31,4.31,0,0,1,32.77,37.58Z"/><path class="cls-2" d="M44.32,37.36a.88.88,0,0,1-1.75,0v-.07a2.17,2.17,0,0,1-1.81,1A2,2,0,0,1,38.67,36V32.8a.88.88,0,1,1,1.75,0v2.63c0,.83.39,1.26,1.06,1.26s1.09-.43,1.09-1.26V32.8a.88.88,0,1,1,1.75,0Z"/><path class="cls-2" d="M46,30.56a.88.88,0,0,1,1.75,0v6.8a.88.88,0,0,1-1.75,0Z"/><path class="cls-2" d="M49.35,30.52a.86.86,0,0,1,1-.82c.56,0,1,.31,1,.82v0a1,1,0,0,1-1.95,0Zm.1,2.28a.88.88,0,1,1,1.75,0v4.56a.88.88,0,0,1-1.75,0Z"/><path class="cls-2" d="M52.85,32.8a.88.88,0,1,1,1.75,0v.07a2.17,2.17,0,0,1,1.81-1,2,2,0,0,1,2.09,2.29v3.19a.88.88,0,0,1-1.75,0V34.72c0-.83-.39-1.26-1.06-1.26s-1.09.43-1.09,1.26v2.64a.88.88,0,0,1-1.75,0Z"/><path class="cls-2" d="M63.48,32.8a.88.88,0,1,1,1.75,0v.07a2.19,2.19,0,0,1,1.82-1,1.84,1.84,0,0,1,1.74,1,2.55,2.55,0,0,1,2-1,2,2,0,0,1,2.08,2.26v3.22a.88.88,0,0,1-1.75,0V34.72c0-.83-.37-1.26-1-1.26s-1.06.43-1.06,1.26v2.64a.88.88,0,0,1-1.75,0V34.72c0-.83-.37-1.26-1-1.26s-1.06.43-1.06,1.26v2.64a.88.88,0,0,1-1.75,0Z"/><path class="cls-2" d="M74.06,36.39v0c0-1.35,1-2,2.48-2a4.37,4.37,0,0,1,1.51.25v-.1c0-.73-.45-1.13-1.32-1.13a4.09,4.09,0,0,0-1.21.17.66.66,0,0,1-.26,0,.71.71,0,0,1-.72-.72.73.73,0,0,1,.47-.68,5.52,5.52,0,0,1,2-.32,2.85,2.85,0,0,1,2.09.69,2.69,2.69,0,0,1,.66,2v2.81a.83.83,0,0,1-.85.84.78.78,0,0,1-.84-.72h0a2.38,2.38,0,0,1-1.87.78A1.9,1.9,0,0,1,74.06,36.39Zm4-.4v-.31A2.72,2.72,0,0,0,77,35.45c-.75,0-1.21.3-1.21.85v0c0,.47.39.75,1,.75C77.52,37.07,78.08,36.62,78.08,36Z"/><path class="cls-2" d="M81.45,39.88a.76.76,0,0,1-.55-.72.7.7,0,0,1,.69-.72.69.69,0,0,1,.29.05,1.34,1.34,0,0,0,.36.07.58.58,0,0,0,.63-.37l0-.14-2.1-4.88a1.23,1.23,0,0,1-.1-.41.83.83,0,0,1,.87-.84.84.84,0,0,1,.84.66l1.34,3.59,1.29-3.58a.88.88,0,0,1,.84-.67.82.82,0,0,1,.83.81,1.42,1.42,0,0,1-.08.41l-2.16,5.17C84,39.57,83.45,40,82.41,40A2.54,2.54,0,0,1,81.45,39.88Z"/><path class="cls-2" d="M.33,52.94a.71.71,0,0,1-.33-.6.68.68,0,0,1,.69-.69.68.68,0,0,1,.35.09,3.2,3.2,0,0,0,1.67.55c.5,0,.73-.18.73-.46v0c0-.38-.59-.51-1.27-.72C1.3,50.84.32,50.44.32,49.24v0a2,2,0,0,1,2.26-2,4.31,4.31,0,0,1,1.91.47.71.71,0,0,1,.42.66.69.69,0,0,1-.7.69A.64.64,0,0,1,3.88,49a3.31,3.31,0,0,0-1.33-.39c-.43,0-.65.18-.65.42v0c0,.34.59.5,1.26.73C4,50.08,5,50.5,5,51.62v0c0,1.37-1,2-2.36,2A4.35,4.35,0,0,1,.33,52.94Z"/><path class="cls-2" d="M6,50.47v0a3.24,3.24,0,0,1,3.35-3.21,3.21,3.21,0,0,1,3.33,3.19v0a3.24,3.24,0,0,1-3.35,3.21A3.21,3.21,0,0,1,6,50.47Zm4.95,0v0a1.64,1.64,0,0,0-1.62-1.71,1.59,1.59,0,0,0-1.6,1.69v0a1.63,1.63,0,0,0,1.62,1.7A1.58,1.58,0,0,0,10.93,50.47Z"/><path class="cls-2" d="M19.54,52.72a.88.88,0,0,1-1.75,0v-.07a2.19,2.19,0,0,1-1.81,1,2,2,0,0,1-2.1-2.29V48.16a.88.88,0,1,1,1.75,0v2.63c0,.83.39,1.26,1.06,1.26s1.1-.43,1.1-1.26V48.16a.88.88,0,1,1,1.75,0Z"/><path class="cls-2" d="M21.1,48.16a.88.88,0,0,1,1.76,0v.07a2.17,2.17,0,0,1,1.8-1,2,2,0,0,1,2.1,2.29v3.19a.88.88,0,0,1-1.75,0V50.08c0-.83-.39-1.25-1.06-1.25s-1.09.42-1.09,1.25v2.64a.88.88,0,0,1-1.76,0Z"/><path class="cls-2" d="M34.49,52.72a.88.88,0,0,1-1.75,0v-.08a2.28,2.28,0,0,1-1.92,1A2.91,2.91,0,0,1,28,50.45v0a2.89,2.89,0,0,1,2.82-3.19,2.36,2.36,0,0,1,1.92.92V45.92a.88.88,0,0,1,1.75,0Zm-4.73-2.29v0a1.51,1.51,0,1,0,3,0v0a1.51,1.51,0,1,0-3,0Z"/><path class="cls-2" d="M39.51,48.16a.88.88,0,1,1,1.75,0v.07a2.22,2.22,0,0,1,1.82-1,1.84,1.84,0,0,1,1.74,1,2.56,2.56,0,0,1,2-1,2,2,0,0,1,2.09,2.26v3.22a.88.88,0,0,1-1.75,0V50.08c0-.83-.37-1.25-1-1.25s-1.06.42-1.06,1.25v2.64a.88.88,0,0,1-1.75,0V50.08c0-.83-.37-1.25-1-1.25s-1.06.42-1.06,1.25v2.64a.88.88,0,0,1-1.75,0Z"/><path class="cls-2" d="M50.16,50.47v0a3.24,3.24,0,0,1,3.35-3.21,3.21,3.21,0,0,1,3.33,3.19v0a3.24,3.24,0,0,1-3.35,3.21A3.2,3.2,0,0,1,50.16,50.47Zm5,0v0a1.65,1.65,0,0,0-1.62-1.71,1.58,1.58,0,0,0-1.6,1.69v0a1.63,1.63,0,0,0,1.62,1.7A1.58,1.58,0,0,0,55.11,50.47Z"/><path class="cls-2" d="M58.11,48.16a.88.88,0,1,1,1.75,0v.27c.25-.6.67-1.15,1.18-1.15a.85.85,0,0,1,.2,1.67c-.89.21-1.38.89-1.38,2.13v1.64a.88.88,0,0,1-1.75,0Z"/><path class="cls-2" d="M65.68,53.66a3.09,3.09,0,0,1-3.23-3.19v0a3.07,3.07,0,0,1,3-3.21,2.92,2.92,0,0,1,3,3,.8.8,0,0,1-.81.84H64.19a1.43,1.43,0,0,0,1.51,1.21,2,2,0,0,0,1.24-.42.7.7,0,0,1,1.11.56.72.72,0,0,1-.23.52A3.2,3.2,0,0,1,65.68,53.66ZM66.8,50a1.32,1.32,0,0,0-1.3-1.31A1.37,1.37,0,0,0,64.17,50Z"/><path class="cls-2" d="M73.35,45.92a.88.88,0,0,1,1.75,0v6.8a.88.88,0,0,1-1.75,0Z"/><path class="cls-2" d="M76.72,45.88a1,1,0,0,1,2,0v0a1,1,0,0,1-2,0Zm.11,2.28a.88.88,0,1,1,1.75,0v4.56a.88.88,0,0,1-1.75,0Z"/><path class="cls-2" d="M80.22,45.92a.88.88,0,0,1,1.75,0v3.83l2.19-2.08a1.09,1.09,0,0,1,.78-.39.77.77,0,0,1,.77.78,1.06,1.06,0,0,1-.41.77L83.92,50l1.65,2.23a.89.89,0,0,1,.22.56.79.79,0,0,1-.82.79.82.82,0,0,1-.76-.4l-1.53-2.11-.71.64v1a.88.88,0,0,1-1.75,0Z"/><path class="cls-2" d="M89.81,53.66a3.09,3.09,0,0,1-3.23-3.19v0a3.08,3.08,0,0,1,3.06-3.21,2.92,2.92,0,0,1,3,3,.8.8,0,0,1-.82.84H88.32a1.44,1.44,0,0,0,1.51,1.21,2,2,0,0,0,1.24-.42.69.69,0,0,1,.43-.13.66.66,0,0,1,.68.69.69.69,0,0,1-.23.52A3.19,3.19,0,0,1,89.81,53.66ZM90.94,50a1.33,1.33,0,0,0-1.3-1.31A1.38,1.38,0,0,0,88.3,50Z"/></g><g id="_YES_" data-name="“YES”"><path class="cls-1" d="M27.71,14.77a1.3,1.3,0,0,0-1.11,1.37,1.29,1.29,0,0,1,1,1.18v0a1.14,1.14,0,0,1-1.2,1.18c-.81,0-1.28-.61-1.28-1.61v-.06A3.17,3.17,0,0,1,26,14.5a2.43,2.43,0,0,1,1.61-.69.48.48,0,1,1,.12,1Zm3.66,0a1.3,1.3,0,0,0-1.11,1.37,1.28,1.28,0,0,1,1,1.18v0a1.13,1.13,0,0,1-1.19,1.18c-.81,0-1.28-.61-1.28-1.61v-.06a3.17,3.17,0,0,1,.85-2.36,2.43,2.43,0,0,1,1.61-.69.48.48,0,1,1,.12,1Z"/><path class="cls-1" d="M36,20.08l-3.26-4.43a1.28,1.28,0,0,1-.27-.79,1.08,1.08,0,0,1,1.11-1.06,1.27,1.27,0,0,1,1.09.67L37.11,18l2.49-3.56a1.29,1.29,0,0,1,1.07-.66,1,1,0,0,1,1.08,1.08,1.42,1.42,0,0,1-.29.78L38.2,20v2.91a1.11,1.11,0,1,1-2.21,0Z"/><path class="cls-1" d="M43.26,22.86V15a1.1,1.1,0,0,1,1.11-1.11H50a1,1,0,0,1,1,1,1,1,0,0,1-1,1h-4.5v2h3.85a1,1,0,0,1,1,1,1,1,0,0,1-1,1H45.46V22H50a1,1,0,0,1,1,1,1,1,0,0,1-1,1H44.37A1.09,1.09,0,0,1,43.26,22.86Z"/><path class="cls-1" d="M52.7,22.9a1,1,0,0,1-.41-.84,1,1,0,0,1,1-1,1.1,1.1,0,0,1,.64.2,4.26,4.26,0,0,0,2.58.91c.9,0,1.45-.36,1.45-.95v0c0-.56-.34-.85-2-1.28-2-.52-3.34-1.08-3.34-3.08v0c0-1.83,1.47-3,3.53-3a5.79,5.79,0,0,1,3.19.89,1,1,0,0,1,.49.88,1,1,0,0,1-1,1,1.11,1.11,0,0,1-.57-.16,4.17,4.17,0,0,0-2.11-.67c-.85,0-1.3.39-1.3.88v0c0,.67.43.88,2.18,1.33,2,.53,3.19,1.27,3.19,3v0c0,2-1.52,3.13-3.7,3.13A6.52,6.52,0,0,1,52.7,22.9Z"/><path class="cls-1" d="M61.69,17.55a1.29,1.29,0,0,0,1.11-1.36,1.28,1.28,0,0,1-1-1.18v0A1.14,1.14,0,0,1,63,13.8c.8,0,1.28.62,1.28,1.61v.06a3.21,3.21,0,0,1-.85,2.36,2.43,2.43,0,0,1-1.61.69.48.48,0,0,1-.55-.49A.49.49,0,0,1,61.69,17.55Zm3.66,0a1.29,1.29,0,0,0,1.11-1.36,1.28,1.28,0,0,1-1-1.18v0a1.13,1.13,0,0,1,1.2-1.18c.8,0,1.28.62,1.28,1.61v.06a3.21,3.21,0,0,1-.85,2.36,2.44,2.44,0,0,1-1.62.69.47.47,0,0,1-.54-.49A.49.49,0,0,1,65.35,17.55Z"/></g><g id="A_patient_s_" data-name="A patient’s "><path class="cls-2" d="M15.49,7.33,18.3,1a1.08,1.08,0,0,1,1-.7h.11a1.07,1.07,0,0,1,1,.7l2.81,6.35a.81.81,0,0,1,.1.35.85.85,0,0,1-.85.86.91.91,0,0,1-.85-.61l-.54-1.27H17.58L17,8a.87.87,0,0,1-.82.56.82.82,0,0,1-.82-.83A.87.87,0,0,1,15.49,7.33Zm5-2.24L19.36,2.43,18.24,5.09Z"/><path class="cls-2" d="M28,3.1a.88.88,0,1,1,1.75,0v.08a2.27,2.27,0,0,1,1.93-1,2.91,2.91,0,0,1,2.81,3.19v0a2.89,2.89,0,0,1-2.81,3.19,2.37,2.37,0,0,1-1.93-.92V9.5A.88.88,0,1,1,28,9.5Zm4.74,2.29v0a1.52,1.52,0,1,0-3,0v0a1.52,1.52,0,1,0,3,0Z"/><path class="cls-2" d="M35.44,6.69v0c0-1.35,1-2,2.49-2A4.41,4.41,0,0,1,39.44,5v-.1c0-.73-.45-1.13-1.33-1.13a4.2,4.2,0,0,0-1.21.17.62.62,0,0,1-.25,0,.71.71,0,0,1-.73-.71.72.72,0,0,1,.47-.68,5.37,5.37,0,0,1,2-.33,2.89,2.89,0,0,1,2.09.69,2.72,2.72,0,0,1,.67,2V7.7a.84.84,0,0,1-.85.84.79.79,0,0,1-.85-.73h0a2.36,2.36,0,0,1-1.86.78A1.91,1.91,0,0,1,35.44,6.69Zm4-.4V6a2.69,2.69,0,0,0-1.12-.23c-.75,0-1.21.3-1.21.85v0c0,.48.39.75,1,.75C38.91,7.37,39.46,6.92,39.46,6.29Z"/><path class="cls-2" d="M42.86,6.72V3.79H42.8a.75.75,0,0,1,0-1.5h.06V1.52a.88.88,0,0,1,1.75,0v.77h.77a.75.75,0,0,1,0,1.5h-.77V6.43c0,.4.17.6.56.6h.21a.73.73,0,0,1,.73.72.72.72,0,0,1-.45.66,2.78,2.78,0,0,1-1,.17C43.58,8.57,42.86,8.14,42.86,6.72Z"/><path class="cls-2" d="M47.33.82c0-.51.42-.82,1-.82a.86.86,0,0,1,1,.82v0a1,1,0,0,1-2,0Zm.1,2.28a.88.88,0,1,1,1.75,0V7.66a.88.88,0,1,1-1.75,0Z"/><path class="cls-2" d="M53.75,8.61a3.09,3.09,0,0,1-3.22-3.2v0a3.07,3.07,0,0,1,3-3.21,2.92,2.92,0,0,1,3,3,.79.79,0,0,1-.81.84H52.27A1.42,1.42,0,0,0,53.78,7.2,2.05,2.05,0,0,0,55,6.79a.62.62,0,0,1,.43-.14.67.67,0,0,1,.68.69.72.72,0,0,1-.23.52A3.24,3.24,0,0,1,53.75,8.61ZM54.88,4.9a1.32,1.32,0,0,0-1.3-1.32c-.73,0-1.2.52-1.34,1.32Z"/><path class="cls-2" d="M57.89,3.1a.88.88,0,1,1,1.75,0v.07a2.17,2.17,0,0,1,1.81-1,2,2,0,0,1,2.1,2.29V7.66a.88.88,0,1,1-1.76,0V5c0-.83-.39-1.25-1.06-1.25S59.64,4.19,59.64,5V7.66a.88.88,0,1,1-1.75,0Z"/><path class="cls-2" d="M65.35,6.72V3.79h0a.75.75,0,0,1,0-1.5h0V1.52a.88.88,0,0,1,1.75,0v.77h.78a.75.75,0,0,1,0,1.5H67.1V6.43c0,.4.18.6.57.6h.21a.72.72,0,0,1,.72.72.7.7,0,0,1-.45.66,2.69,2.69,0,0,1-1,.17C66.08,8.57,65.35,8.14,65.35,6.72Z"/><path class="cls-2" d="M69.8,3.34a1,1,0,0,0,.89-1.09,1,1,0,0,1-.81-.95v0a.92.92,0,0,1,1-.95c.64,0,1,.5,1,1.29v0a2.56,2.56,0,0,1-.68,1.89,1.9,1.9,0,0,1-1.29.55c-.31,0-.44-.18-.44-.39A.4.4,0,0,1,69.8,3.34Z"/><path class="cls-2" d="M72.92,7.88a.71.71,0,0,1-.33-.6.7.7,0,0,1,1-.6,3.2,3.2,0,0,0,1.67.55c.5,0,.73-.18.73-.46v0c0-.38-.6-.51-1.28-.71-.86-.26-1.84-.66-1.84-1.86v0a2,2,0,0,1,2.26-2,4.34,4.34,0,0,1,1.91.47.73.73,0,0,1,.42.66.69.69,0,0,1-.71.69.63.63,0,0,1-.32-.08,3.3,3.3,0,0,0-1.34-.39c-.42,0-.64.18-.64.42V4c0,.34.59.5,1.25.73.87.29,1.87.71,1.87,1.84v0c0,1.37-1,2-2.36,2A4.35,4.35,0,0,1,72.92,7.88Z"/></g></g></g></svg>