<svg xmlns="http://www.w3.org/2000/svg" viewBox="0 0 43.02 22.79"><defs><style>.cls-1{fill:#272525}</style></defs><g id="Layer_2" data-name="Layer 2"><g id="Layer_1-2" data-name="Layer 1"><path class="cls-1" d="M0 2.8a.16.16 0 0 0 .16.2.16.16 0 0 0 .16-.2V.28A.16.16 0 0 0 .16.12.16.16 0 0 0 0 .28zM1.09 2.8a.15.15 0 1 0 .3 0v-1A.61.61 0 0 1 2 1.11a.55.55 0 0 1 .57.62V2.8a.16.16 0 0 0 .17.2.16.16 0 0 0 .16-.2V1.66a.76.76 0 0 0-.8-.83.8.8 0 0 0-.71.4V1a.15.15 0 1 0-.3 0zM4.76 3.44a.16.16 0 0 0 .15.16.16.16 0 0 0 .16-.16v-.9a.9.9 0 0 0 .79.46 1 1 0 0 0 1-1.07 1 1 0 0 0-1-1.07.91.91 0 0 0-.79.46V1a.16.16 0 0 0-.16-.15.16.16 0 0 0-.15.15zm1-.73a.77.77 0 0 1-.75-.8.78.78 0 0 1 .75-.8.75.75 0 0 1 .73.8.73.73 0 0 1-.69.8zM8 3a.88.88 0 0 0 .74-.35v.19a.14.14 0 0 0 .19.16.14.14 0 0 0 .15-.15V1.68a.82.82 0 0 0-.21-.61.92.92 0 0 0-.67-.23 1.79 1.79 0 0 0-.68.16.15.15 0 0 0-.08.13.13.13 0 0 0 .13.13h.06a1.27 1.27 0 0 1 .54-.11c.39 0 .61.19.61.56v.07a2.22 2.22 0 0 0-.63-.09c-.53 0-.89.24-.89.67A.7.7 0 0 0 8 3zm.06-.24c-.29 0-.53-.15-.53-.41s.22-.43.61-.43a2.32 2.32 0 0 1 .65.08v.2a.62.62 0 0 1-.69.54zM10.43 3a.75.75 0 0 0 .31-.06.12.12 0 0 0 .08-.12.13.13 0 0 0-.13-.13.78.78 0 0 1-.19 0 .31.31 0 0 1-.34-.35v-1.2h.53a.13.13 0 0 0 .14-.14.14.14 0 0 0-.14-.14h-.53V.38A.16.16 0 0 0 10 .23a.15.15 0 0 0-.15.15v.49h-.17a.14.14 0 0 0-.14.13.14.14 0 0 0 .14.13h.17v1.26a.53.53 0 0 0 .58.61zM11.36.28a.18.18 0 0 0 .36 0V.22a.18.18 0 0 0-.36 0zm0 2.52a.15.15 0 1 0 .3 0V1a.15.15 0 1 0-.3 0zM12.6 1.79a.71.71 0 0 1 .67-.7.68.68 0 0 1 .66.7zm1.5.89a.16.16 0 0 0 .05-.1.14.14 0 0 0-.15-.14.15.15 0 0 0-.09 0 .84.84 0 0 1-.59.24.72.72 0 0 1-.72-.68h1.49a.15.15 0 0 0 .15-.14 1 1 0 0 0-1-1 1 1 0 0 0-1 1.07 1 1 0 0 0 1 1.08 1.09 1.09 0 0 0 .86-.33zM14.78 2.8a.16.16 0 0 0 .16.16.15.15 0 0 0 .15-.16v-1a.61.61 0 0 1 .62-.65.55.55 0 0 1 .58.62V2.8a.15.15 0 0 0 .15.16.16.16 0 0 0 .16-.16V1.66a.76.76 0 0 0-.8-.83.8.8 0 0 0-.71.4V1a.16.16 0 0 0-.15-.16.16.16 0 0 0-.16.16zM18 3a.7.7 0 0 0 .3-.06.13.13 0 0 0 .09-.12.13.13 0 0 0-.13-.13.9.9 0 0 1-.19 0 .31.31 0 0 1-.35-.35v-1.2h.54a.14.14 0 0 0 .09-.14.15.15 0 0 0-.14-.14h-.54V.38a.16.16 0 0 0-.16-.15.15.15 0 0 0-.15.15v.49h-.17a.13.13 0 0 0-.13.14.13.13 0 0 0 .13.13h.17v1.25A.53.53 0 0 0 18 3zM19.56 3a.65.65 0 0 0 .73-.62c0-.37-.34-.49-.66-.59s-.53-.16-.53-.36c0-.18.15-.3.4-.3a1.15 1.15 0 0 1 .54.16h.07a.13.13 0 0 0 .13-.13.16.16 0 0 0-.07-.16 1.41 1.41 0 0 0-.66-.17c-.41 0-.71.23-.71.59 0 .38.36.49.68.58s.52.16.52.36c0 .2-.18.33-.43.33a1.18 1.18 0 0 1-.65-.22.11.11 0 0 0-.08 0 .13.13 0 0 0-.08.24 1.41 1.41 0 0 0 .8.29zM22.75 3a.16.16 0 0 0 .16-.14l.52-1.51.57 1.48a.18.18 0 0 0 .17.14.19.19 0 0 0 .17-.14l.63-1.75A.24.24 0 0 0 25 1a.15.15 0 0 0-.15-.15.16.16 0 0 0-.15.12l-.53 1.56L23.61 1a.15.15 0 0 0-.16-.13.17.17 0 0 0-.16.13l-.52 1.55L22.24 1a.17.17 0 0 0-.16-.13.15.15 0 0 0-.15.15.19.19 0 0 0 0 .08l.62 1.75a.2.2 0 0 0 .2.15zM25.51.28a.18.18 0 0 0 .36 0V.22a.18.18 0 0 0-.36 0zm0 2.52a.15.15 0 0 0 .15.16.16.16 0 0 0 .16-.16V1a.16.16 0 0 0-.16-.16.15.15 0 0 0-.15.16zM27.26 3a.7.7 0 0 0 .3-.06.13.13 0 0 0 .09-.12.13.13 0 0 0-.13-.13.9.9 0 0 1-.19 0 .31.31 0 0 1-.33-.34V1.14h.54a.14.14 0 0 0 .12-.14.15.15 0 0 0-.14-.14H27V.38a.16.16 0 0 0-.16-.15.15.15 0 0 0-.15.15v.49h-.19a.13.13 0 0 0-.13.14.13.13 0 0 0 .13.13h.17v1.25a.53.53 0 0 0 .59.61zM28.18 2.8a.16.16 0 0 0 .16.16.15.15 0 0 0 .15-.16v-1a.61.61 0 0 1 .62-.65.55.55 0 0 1 .57.62V2.8a.16.16 0 0 0 .16.16.16.16 0 0 0 .16-.16V1.66a.75.75 0 0 0-.8-.83.79.79 0 0 0-.71.4V.16a.16.16 0 0 0-.16-.16.16.16 0 0 0-.15.16zM32.55 3a.7.7 0 0 0 .3-.06.13.13 0 0 0 .09-.12.13.13 0 0 0-.13-.13.9.9 0 0 1-.19 0 .31.31 0 0 1-.35-.35v-1.2h.54A.14.14 0 0 0 33 1a.15.15 0 0 0-.14-.14h-.54V.38a.16.16 0 0 0-.16-.15.15.15 0 0 0-.16.15v.49h-.17a.13.13 0 0 0-.13.14.13.13 0 0 0 .13.13H32v1.25a.53.53 0 0 0 .55.61zM33.77 3.59c.31 0 .52-.15.7-.58l.8-1.93a.19.19 0 0 0 0-.08.15.15 0 0 0-.15-.15A.15.15 0 0 0 35 1l-.65 1.6-.72-1.6a.16.16 0 0 0-.16-.12.15.15 0 0 0-.15.15.15.15 0 0 0 0 .09l.86 1.83c-.11.25-.22.37-.41.37a.63.63 0 0 1-.23 0h-.07a.13.13 0 0 0-.13.13.13.13 0 0 0 .09.13.93.93 0 0 0 .34.01zM35.82 3.44a.16.16 0 0 0 .18.16.15.15 0 0 0 .15-.16v-.9a.92.92 0 0 0 .8.44 1 1 0 0 0 1-1.07 1 1 0 0 0-1-1.07.94.94 0 0 0-.8.46V1A.16.16 0 0 0 36 .85a.16.16 0 0 0-.16.16zm1-.73a.77.77 0 0 1-.75-.8.78.78 0 0 1 .75-.8.75.75 0 0 1 .73.8.73.73 0 0 1-.68.8zM38.67 1.79a.71.71 0 0 1 .67-.7.67.67 0 0 1 .66.7zm1.5.89a.16.16 0 0 0 0-.1.14.14 0 0 0-.14-.14.12.12 0 0 0-.08 0 .86.86 0 0 1-.6.24.72.72 0 0 1-.73-.7h1.5a.14.14 0 0 0 .14-.14 1 1 0 0 0-1-1 1 1 0 0 0-1 1.07 1 1 0 0 0 1 1.08 1.07 1.07 0 0 0 .91-.31zM42.43 2.8a.16.16 0 1 0 .32 0V.26a.16.16 0 0 0-.16-.15h-.17L42 .3c-.07 0-.11.07-.11.14a.13.13 0 0 0 .11.14h.07l.39-.12zM2.82 5a.16.16 0 0 0-.16-.16.16.16 0 0 0-.15.16v1.07a.94.94 0 0 0-.79-.44 1 1 0 0 0-1 1.07 1 1 0 0 0 1 1.07.92.92 0 0 0 .79-.46v.29a.16.16 0 0 0 .16.16.16.16 0 0 0 .15-.16zm-1 .94a.77.77 0 0 1 .75.8.77.77 0 0 1-.75.8.74.74 0 0 1-.72-.8.73.73 0 0 1 .67-.84zM3.51 5.08a.18.18 0 0 0 .36 0V5a.18.18 0 0 0-.36 0zm0 2.52a.16.16 0 0 0 .15.16.16.16 0 0 0 .16-.16V5.81a.16.16 0 0 0-.16-.16.16.16 0 0 0-.15.16zM5.18 7.78a.89.89 0 0 0 .75-.35v.19a.14.14 0 0 0 .15.14.15.15 0 0 0 .15-.15V6.48A.82.82 0 0 0 6 5.87a.9.9 0 0 0-.66-.23 1.75 1.75 0 0 0-.68.14.16.16 0 0 0-.09.13.14.14 0 0 0 .15.09h.06a1.22 1.22 0 0 1 .53-.11c.39 0 .62.19.62.56v.07a2.24 2.24 0 0 0-.64-.09c-.52 0-.88.24-.88.67a.7.7 0 0 0 .77.68zm.06-.24c-.28 0-.52-.15-.52-.41s.22-.43.6-.43a2.25 2.25 0 0 1 .61.09V7a.62.62 0 0 1-.69.54zM6.88 7.6a.16.16 0 0 0 .12.16.15.15 0 0 0 .15-.16v-.26a.92.92 0 0 0 .8.44A1 1 0 0 0 9 6.71a1 1 0 0 0-1-1.08.94.94 0 0 0-.8.46V5a.16.16 0 0 0-.2-.2.16.16 0 0 0-.12.2zm1-.09a.77.77 0 0 1-.75-.8.78.78 0 0 1 .75-.8.75.75 0 0 1 .73.8.73.73 0 0 1-.68.8zM9.73 6.59a.71.71 0 0 1 .67-.7.67.67 0 0 1 .66.7zm1.5.89a.16.16 0 0 0 0-.1.14.14 0 0 0-.14-.14.12.12 0 0 0-.08 0 .86.86 0 0 1-.6.24.72.72 0 0 1-.73-.7h1.5a.14.14 0 0 0 .14-.14 1 1 0 0 0-1-1 1 1 0 0 0-1 1.07 1 1 0 0 0 1 1.08 1.07 1.07 0 0 0 .91-.31zM12.61 7.78a.75.75 0 0 0 .31-.06.12.12 0 0 0 .08-.12.13.13 0 0 0-.13-.13.78.78 0 0 1-.19 0 .31.31 0 0 1-.35-.35V5.94h.54a.13.13 0 0 0 .13-.13.14.14 0 0 0-.14-.14h-.54v-.49a.15.15 0 0 0-.14-.18.15.15 0 0 0-.15.15v.49h-.17a.14.14 0 0 0-.14.14.14.14 0 0 0 .14.13H12v1.28a.53.53 0 0 0 .61.59zM13.72 6.59a.71.71 0 0 1 .67-.7.69.69 0 0 1 .67.7zm1.5.89a.12.12 0 0 0 0-.1.13.13 0 0 0-.13-.14.13.13 0 0 0-.09 0 .84.84 0 0 1-.6.24.72.72 0 0 1-.73-.7h1.5a.14.14 0 0 0 .14-.14 1 1 0 0 0-1-1 1 1 0 0 0-1 1.07 1 1 0 0 0 1 1.08 1.07 1.07 0 0 0 .91-.31zM16.59 7.78c.42 0 .74-.23.74-.62 0-.37-.34-.49-.66-.59s-.54-.16-.54-.36c0-.18.16-.3.4-.3a1.16 1.16 0 0 1 .55.16h.06a.13.13 0 0 0 .14-.13.17.17 0 0 0-.08-.13 1.41 1.41 0 0 0-.66-.17c-.41 0-.7.23-.7.59 0 .38.36.49.68.58s.48.19.48.37c0 .2-.18.33-.43.33A1.24 1.24 0 0 1 16 7.3a.08.08 0 0 0-.07 0 .13.13 0 0 0-.08.24 1.41 1.41 0 0 0 .74.24zM17.74 8.14s0 .08.09.08a.54.54 0 0 0 .27-.14.67.67 0 0 0 .14-.48v-.08a.2.2 0 0 0-.19-.22.18.18 0 0 0-.19.18v.07a.19.19 0 0 0 .16.19.31.31 0 0 1-.23.33.08.08 0 0 0-.05.07zM20.14 7.58a.16.16 0 0 0 .16.16h1.09c.61 0 1-.28 1-.76 0-.39-.27-.58-.61-.68a.67.67 0 0 0 .45-.65.65.65 0 0 0-.18-.45 1 1 0 0 0-.73-.25h-1a.16.16 0 0 0-.16.16zm.31-1.39v-1h.86c.4 0 .62.18.62.46 0 .33-.27.5-.65.5zm0 1.27v-1h.89c.49 0 .74.17.74.48 0 .31-.26.5-.68.5zM22.84 7.62a.15.15 0 0 0 .15.14.16.16 0 0 0 .15-.11l.29-.65H25l.29.64a.17.17 0 0 0 .16.12.15.15 0 0 0 .15-.15.24.24 0 0 0 0-.08l-1.19-2.48a.19.19 0 0 0-.19-.14.2.2 0 0 0-.2.14l-1.16 2.48a.29.29 0 0 0-.02.09zm.72-.91l.64-1.43.65 1.43zM27.14 7.78c.56 0 1-.31 1-.79 0-.43-.29-.66-.92-.79s-.76-.28-.76-.55c0-.26.23-.46.6-.46a1.17 1.17 0 0 1 .72.25.17.17 0 0 0 .1 0A.16.16 0 0 0 28 5.3a.15.15 0 0 0-.07-.12A1.39 1.39 0 0 0 27 4.9a.83.83 0 0 0-.93.76c0 .46.3.67.95.81s.73.27.73.53c0 .28-.25.48-.63.48a1.23 1.23 0 0 1-.88-.34.15.15 0 0 0-.1 0 .15.15 0 0 0-.15.15.12.12 0 0 0 .06.12 1.62 1.62 0 0 0 1.09.37zM28.55 7.62a.14.14 0 0 0 .14.14.16.16 0 0 0 .16-.11l.29-.65h1.54l.29.64a.17.17 0 0 0 .16.12.15.15 0 0 0 .15-.15.24.24 0 0 0 0-.08l-1.16-2.48a.2.2 0 0 0-.2-.14.2.2 0 0 0-.2.14l-1.15 2.48a.15.15 0 0 0-.02.09zm.71-.91l.65-1.43.64 1.43zM33.19 7.79a1.67 1.67 0 0 0 1-.34.22.22 0 0 0 .11-.19V6.4a.16.16 0 0 0-.15-.16h-.91a.15.15 0 0 0-.14.15.15.15 0 0 0 .14.14H34v.69a1.3 1.3 0 0 1-.81.28 1.08 1.08 0 0 1-1.11-1.16 1.09 1.09 0 0 1 1.06-1.15 1.19 1.19 0 0 1 .78.26.21.21 0 0 0 .1 0 .16.16 0 0 0 .16-.16.16.16 0 0 0-.07-.13 1.46 1.46 0 0 0-.95-.3 1.4 1.4 0 0 0-1.41 1.45 1.37 1.37 0 0 0 1.44 1.48zM35 7.58a.16.16 0 0 0 .15.16h1.65a.14.14 0 0 0 .14-.14.15.15 0 0 0-.14-.15h-1.46V5.08a.16.16 0 0 0-.16-.16.16.16 0 0 0-.15.16zM37.31 7.62a.15.15 0 0 0 .15.14.16.16 0 0 0 .15-.11L37.9 7h1.54l.29.64a.17.17 0 0 0 .16.12.15.15 0 0 0 .11-.15.24.24 0 0 0 0-.08l-1.11-2.48a.21.21 0 0 0-.2-.14.2.2 0 0 0-.2.14l-1.16 2.48a.29.29 0 0 0-.02.09zm.69-.91l.64-1.43.65 1.43zM40.65 7.6a.16.16 0 0 0 .16.16.16.16 0 0 0 .19-.16v-.95h.8l.79 1a.2.2 0 0 0 .15.08.16.16 0 0 0 .16-.16.16.16 0 0 0 0-.11l-.7-.9a.81.81 0 0 0 .75-.81.76.76 0 0 0-.22-.55 1.08 1.08 0 0 0-.8-.28h-1a.16.16 0 0 0-.16.16zM41 6.37V5.23h.86c.45 0 .72.21.72.55 0 .36-.3.58-.72.58zM16.66 12.4a.16.16 0 0 0 .16.16.15.15 0 0 0 .18-.16v-1a.6.6 0 0 1 .58-.65c.33 0 .53.23.53.61v1.04a.16.16 0 0 0 .15.16.16.16 0 0 0 .16-.16v-1.05a.58.58 0 0 1 .57-.64c.34 0 .54.22.54.62v1.07a.15.15 0 1 0 .3 0v-1.14a.74.74 0 0 0-.76-.83.8.8 0 0 0-.73.41.72.72 0 0 0-.67-.41.77.77 0 0 0-.67.39v-.21a.16.16 0 0 0-.15-.16.16.16 0 0 0-.16.16zM22.25 10.61a.16.16 0 0 0-.15-.16.15.15 0 0 0-.15.16v1.05a.61.61 0 0 1-.63.64.55.55 0 0 1-.57-.62v-1.07a.16.16 0 0 0-.16-.16.16.16 0 0 0-.15.16v1.15a.76.76 0 0 0 .8.82.82.82 0 0 0 .71-.4v.22a.15.15 0 1 0 .3 0zM23.63 12.58a.66.66 0 0 0 .74-.62c0-.37-.35-.49-.67-.59s-.53-.16-.53-.36c0-.18.15-.3.4-.3a1.15 1.15 0 0 1 .54.16h.07a.13.13 0 0 0 .13-.13.16.16 0 0 0-.07-.13 1.41 1.41 0 0 0-.66-.17c-.41 0-.71.23-.71.59 0 .38.36.49.69.58s.51.16.51.36c0 .2-.18.33-.43.33a1.18 1.18 0 0 1-.64-.2.11.11 0 0 0-.08 0 .13.13 0 0 0-.13.13.13.13 0 0 0 0 .11 1.46 1.46 0 0 0 .84.24zM25.63 12.58a.75.75 0 0 0 .31-.06.12.12 0 0 0 .06-.12.13.13 0 0 0-.13-.13.78.78 0 0 1-.19 0 .31.31 0 0 1-.34-.35v-1.18h.53a.13.13 0 0 0 .14-.13.14.14 0 0 0-.14-.14h-.53V10a.16.16 0 0 0-.16-.15.15.15 0 0 0-.15.15v.49h-.17a.14.14 0 0 0-.14.14.14.14 0 0 0 .14.13h.17V12a.53.53 0 0 0 .6.58zM27.76 12.4a.16.16 0 0 0 .16.16.16.16 0 0 0 .15-.16v-.26a.92.92 0 0 0 .79.44 1 1 0 0 0 1-1.07 1 1 0 0 0-1-1.07.92.92 0 0 0-.79.46V9.76a.16.16 0 0 0-.16-.16.16.16 0 0 0-.15.16zm1-.09a.77.77 0 0 1-.75-.8.77.77 0 0 1 .75-.8.75.75 0 0 1 .73.8.73.73 0 0 1-.68.8zM30.61 11.39a.71.71 0 0 1 .67-.7.68.68 0 0 1 .66.7zm1.5.89a.16.16 0 0 0 0-.1A.14.14 0 0 0 32 12a.15.15 0 0 0-.09 0 .84.84 0 0 1-.59.24.72.72 0 0 1-.73-.7h1.51a.15.15 0 0 0 .15-.14 1 1 0 0 0-1-1.05 1 1 0 0 0-1 1.07 1 1 0 0 0 1 1.08 1.09 1.09 0 0 0 .86-.22zM35.77 10.61a.16.16 0 0 0-.15-.16.15.15 0 0 0-.15.16v1.05a.61.61 0 0 1-.62.64.55.55 0 0 1-.58-.62v-1.07a.16.16 0 0 0-.15-.16.16.16 0 0 0-.16.16v1.15a.76.76 0 0 0 .8.82.8.8 0 0 0 .71-.4v.22a.15.15 0 1 0 .3 0zM37.15 12.58a.66.66 0 0 0 .74-.62c0-.37-.35-.49-.67-.59s-.53-.16-.53-.36c0-.18.16-.3.4-.3a1.12 1.12 0 0 1 .54.16h.07a.13.13 0 0 0 .14-.13.17.17 0 0 0-.08-.13 1.41 1.41 0 0 0-.66-.17c-.41 0-.71.23-.71.59 0 .38.36.49.69.58s.51.16.51.36c0 .2-.18.33-.42.33a1.18 1.18 0 0 1-.66-.22.11.11 0 0 0-.08 0 .13.13 0 0 0-.13.13.13.13 0 0 0 .05.11 1.46 1.46 0 0 0 .8.26zM38.65 11.39a.71.71 0 0 1 .67-.7.68.68 0 0 1 .66.7zm1.5.89a.16.16 0 0 0 .05-.1.14.14 0 0 0-.14-.14.15.15 0 0 0-.09 0 .84.84 0 0 1-.6.24.72.72 0 0 1-.72-.7h1.49a.15.15 0 0 0 .15-.14 1 1 0 0 0-1-1.05 1 1 0 0 0-1 1.07 1 1 0 0 0 1 1.08 1.09 1.09 0 0 0 .86-.26zM42.8 9.76a.15.15 0 1 0-.3 0v1.11a.94.94 0 0 0-.8-.44 1 1 0 0 0-1 1.07 1 1 0 0 0 1 1.07.94.94 0 0 0 .8-.46v.28a.15.15 0 1 0 .3 0zm-1 .94a.77.77 0 0 1 .75.8.78.78 0 0 1-.75.8.75.75 0 0 1-.73-.8.73.73 0 0 1 .69-.8zM6.12 17.39a1 1 0 0 0 .78-.33.13.13 0 0 0 0-.1.14.14 0 0 0-.14-.14.1.1 0 0 0-.08 0 .86.86 0 0 1-.58.25.77.77 0 0 1-.76-.8.77.77 0 0 1 .74-.8.76.76 0 0 1 .56.25.17.17 0 0 0 .1 0 .15.15 0 0 0 .15-.14.13.13 0 0 0 0-.11 1 1 0 0 0-.76-.3 1.06 1.06 0 0 0-1.06 1.08 1.06 1.06 0 0 0 1.05 1.14zM8.42 17.39a1.08 1.08 0 0 0 1.09-1.08 1.08 1.08 0 0 0-2.16 0 1.06 1.06 0 0 0 1.07 1.08zm0-.28a.77.77 0 0 1-.76-.8.75.75 0 0 1 .75-.8.78.78 0 0 1 .77.81.76.76 0 0 1-.75.79zM10.07 17.2a.15.15 0 0 0 .15.16.16.16 0 0 0 .16-.16v-1a.61.61 0 0 1 .62-.65.55.55 0 0 1 .57.62v1.03a.16.16 0 0 0 .16.16.16.16 0 0 0 .15-.16v-1.14a.75.75 0 0 0-.8-.83.77.77 0 0 0-.7.4v-.22a.16.16 0 0 0-.16-.16.15.15 0 0 0-.15.16zM13.47 17.39a1.07 1.07 0 0 0 .78-.33.18.18 0 0 0 0-.1.14.14 0 0 0-.14-.14.13.13 0 0 0-.09 0 .84.84 0 0 1-.58.25.77.77 0 0 1-.76-.8.77.77 0 0 1 .74-.8.8.8 0 0 1 .57.25.15.15 0 0 0 .1 0 .15.15 0 0 0 .15-.14.16.16 0 0 0 0-.11 1.07 1.07 0 0 0-1.82.78 1.06 1.06 0 0 0 1.05 1.14zM15.77 17.39a1.08 1.08 0 0 0 1.09-1.08 1.08 1.08 0 0 0-2.16 0 1.06 1.06 0 0 0 1.07 1.08zm0-.28a.78.78 0 0 1-.77-.8.76.76 0 0 1 .76-.8.78.78 0 0 1 .77.81.76.76 0 0 1-.75.79zM17.41 17.2a.16.16 0 0 0 .16.16.15.15 0 0 0 .15-.16v-1a.6.6 0 0 1 .58-.65c.33 0 .53.23.53.61v1.04a.16.16 0 0 0 .15.16.16.16 0 0 0 .16-.16v-1.05a.58.58 0 0 1 .57-.64c.34 0 .54.22.54.62v1.07a.15.15 0 1 0 .3 0v-1.14a.74.74 0 0 0-.77-.83.8.8 0 0 0-.72.41.72.72 0 0 0-.67-.41.77.77 0 0 0-.67.39v-.21a.16.16 0 0 0-.16-.16.16.16 0 0 0-.15.16zM21.22 14.68a.17.17 0 0 0 .18.16.17.17 0 0 0 .19-.16v-.06c0-.1-.08-.16-.19-.16a.16.16 0 0 0-.18.16zm0 2.52a.16.16 0 0 0 .16.16.15.15 0 0 0 .15-.16v-1.79a.16.16 0 0 0-.16-.16.16.16 0 0 0-.15.16zM23 17.38a.75.75 0 0 0 .31-.06.12.12 0 0 0 .08-.12.13.13 0 0 0-.13-.13.78.78 0 0 1-.19 0 .31.31 0 0 1-.35-.35v-1.18h.54a.13.13 0 0 0 .14-.13.14.14 0 0 0-.14-.14h-.54v-.49a.15.15 0 0 0-.15-.15.15.15 0 0 0-.15.15v.49h-.17a.14.14 0 0 0-.14.14.14.14 0 0 0 .14.13h.17v1.25a.53.53 0 0 0 .58.59zM24.51 17.38a.89.89 0 0 0 .75-.35v.19a.14.14 0 0 0 .15.14.14.14 0 0 0 .15-.15v-1.13a.82.82 0 0 0-.21-.61.92.92 0 0 0-.67-.23 1.79 1.79 0 0 0-.68.14.15.15 0 0 0-.08.13.13.13 0 0 0 .13.13h.06a1.27 1.27 0 0 1 .54-.11c.38 0 .61.19.61.56v.07a2.22 2.22 0 0 0-.63-.09c-.53 0-.89.24-.89.67a.7.7 0 0 0 .77.64zm.06-.24c-.28 0-.52-.15-.52-.41s.22-.43.61-.43a2.32 2.32 0 0 1 .61.09v.2a.63.63 0 0 1-.7.55zM26.22 17.2a.16.16 0 0 0 .15.16.16.16 0 0 0 .16-.16v-1a.61.61 0 0 1 .62-.65.55.55 0 0 1 .57.62v1.03a.16.16 0 0 0 .16.16.16.16 0 0 0 .12-.16v-1.14a.75.75 0 0 0-.79-.83.78.78 0 0 0-.71.4v-.22a.16.16 0 0 0-.16-.16.16.16 0 0 0-.15.16zM29.38 17.38a.67.67 0 0 0 .3-.06.12.12 0 0 0 .09-.12.13.13 0 0 0-.13-.13.78.78 0 0 1-.19 0 .31.31 0 0 1-.35-.35v-1.18h.54a.13.13 0 0 0 .14-.13.14.14 0 0 0-.14-.14h-.54v-.49a.15.15 0 0 0-.15-.15.16.16 0 0 0-.16.15v.49h-.16a.14.14 0 0 0-.14.14.13.13 0 0 0 .14.13h.16v1.25a.54.54 0 0 0 .59.59zM30.33 17.2a.16.16 0 0 0 .16.16.15.15 0 0 0 .15-.16v-2.64a.16.16 0 0 0-.15-.16.16.16 0 0 0-.16.16zM31.66 18c.31 0 .51-.15.69-.58l.81-1.93a.19.19 0 0 0 0-.08.15.15 0 0 0-.15-.15.15.15 0 0 0-.15.12L32.24 17l-.72-1.63a.17.17 0 0 0-.16-.12.16.16 0 0 0-.16.15.29.29 0 0 0 0 .09l.87 1.83c-.11.25-.22.37-.41.37a.63.63 0 0 1-.23 0h-.07a.13.13 0 0 0-.14.13.14.14 0 0 0 .1.13.86.86 0 0 0 .34.05zM35.59 17.37a.18.18 0 0 0 .17-.14l.52-1.51.52 1.51a.16.16 0 0 0 .16.14.18.18 0 0 0 .16-.14l.64-1.75v-.08a.16.16 0 0 0-.16-.15.15.15 0 0 0-.14.12L37 16.93l-.52-1.55a.17.17 0 0 0-.16-.13.15.15 0 0 0-.15.13l-.53 1.55-.52-1.55a.16.16 0 0 0-.31 0 .19.19 0 0 0 0 .08l.63 1.75a.19.19 0 0 0 .15.16zM38.35 14.68a.17.17 0 0 0 .18.16.17.17 0 0 0 .19-.16v-.06c0-.1-.08-.16-.19-.16a.16.16 0 0 0-.18.16zm0 2.52a.16.16 0 0 0 .16.16.15.15 0 0 0 .15-.16v-1.79a.16.16 0 0 0-.16-.16.16.16 0 0 0-.15.16zM40.1 17.38a.67.67 0 0 0 .3-.06.12.12 0 0 0 .09-.12.13.13 0 0 0-.13-.13.78.78 0 0 1-.19 0 .31.31 0 0 1-.35-.35v-1.18h.54a.13.13 0 0 0 .14-.13.14.14 0 0 0-.14-.14h-.54v-.49a.15.15 0 0 0-.15-.15.16.16 0 0 0-.16.15v.49h-.16a.14.14 0 0 0-.14.14.13.13 0 0 0 .14.13h.16v1.25a.54.54 0 0 0 .59.59zM41 17.2a.15.15 0 1 0 .3 0v-1a.61.61 0 0 1 .63-.65.55.55 0 0 1 .57.62v1.03a.16.16 0 0 0 .15.16.16.16 0 0 0 .16-.16v-1.14a.76.76 0 0 0-.8-.83.8.8 0 0 0-.71.4v-1.07a.15.15 0 1 0-.3 0zM3.69 22.18a.66.66 0 0 0 .74-.62c0-.37-.35-.49-.67-.59s-.53-.16-.53-.36c0-.18.15-.3.4-.3a1.12 1.12 0 0 1 .54.16h.07a.13.13 0 0 0 .13-.13.16.16 0 0 0-.07-.13 1.41 1.41 0 0 0-.66-.21c-.41 0-.71.23-.71.59 0 .38.36.49.69.58s.51.16.51.36c0 .2-.18.33-.42.33a1.18 1.18 0 0 1-.66-.22.11.11 0 0 0-.08 0 .13.13 0 0 0-.13.13.13.13 0 0 0 .05.11 1.46 1.46 0 0 0 .8.3zM5 22a.16.16 0 0 0 .16.16.16.16 0 0 0 .15-.16v-1a.61.61 0 0 1 .62-.65.55.55 0 0 1 .57.62V22a.16.16 0 0 0 .16.16.16.16 0 0 0 .15-.16v-1.14A.75.75 0 0 0 6 20a.78.78 0 0 0-.71.4v-1.04a.16.16 0 0 0-.16-.16.16.16 0 0 0-.15.16zM8.41 22.19a1.08 1.08 0 0 0 1.09-1.08 1.08 1.08 0 0 0-2.16 0 1.06 1.06 0 0 0 1.07 1.08zm0-.28a.78.78 0 0 1-.76-.8.76.76 0 0 1 .75-.8.78.78 0 0 1 .77.81.76.76 0 0 1-.75.79zM10.06 22a.16.16 0 0 0 .15.16.16.16 0 0 0 .16-.16v-.7a.83.83 0 0 1 .73-.94.16.16 0 0 0 .13-.16.15.15 0 0 0-.15-.16.85.85 0 0 0-.71.56v-.39a.16.16 0 0 0-.16-.16.16.16 0 0 0-.15.16zM12.37 22.18a.75.75 0 0 0 .31-.06.13.13 0 0 0 .09-.12.13.13 0 0 0-.14-.13.76.76 0 0 1-.18 0 .31.31 0 0 1-.35-.35v-1.18h.53a.13.13 0 0 0 .14-.13.14.14 0 0 0-.14-.14h-.53v-.49a.16.16 0 0 0-.16-.15.15.15 0 0 0-.15.15v.49h-.17a.14.14 0 0 0-.14.14.14.14 0 0 0 .14.13h.17v1.25a.53.53 0 0 0 .58.59zM13.36 21.1h.83a.16.16 0 0 0 .16-.16.16.16 0 0 0-.16-.16h-.83a.16.16 0 0 0-.16.16.16.16 0 0 0 .16.16zM15.55 22.18a.89.89 0 0 0 .75-.35V22a.14.14 0 0 0 .15.14.15.15 0 0 0 .15-.14v-1.12a.82.82 0 0 0-.21-.61.94.94 0 0 0-.67-.23 1.75 1.75 0 0 0-.68.14.16.16 0 0 0-.09.13.14.14 0 0 0 .14.13h.06a1.25 1.25 0 0 1 .53-.11c.39 0 .62.19.62.56V21a2.24 2.24 0 0 0-.64-.09c-.52 0-.88.24-.88.67a.7.7 0 0 0 .77.6zm.06-.24c-.28 0-.52-.15-.52-.41s.22-.43.61-.43a2.39 2.39 0 0 1 .61.09v.2a.63.63 0 0 1-.7.55zM18.19 22.19a1.07 1.07 0 0 0 .78-.33.18.18 0 0 0 0-.1.14.14 0 0 0-.14-.14.13.13 0 0 0-.09 0 .84.84 0 0 1-.58.25.77.77 0 0 1-.76-.8.77.77 0 0 1 .74-.8.8.8 0 0 1 .57.25.15.15 0 0 0 .1 0 .15.15 0 0 0 .15-.14.16.16 0 0 0-.05-.11 1.07 1.07 0 0 0-1.82.78 1.06 1.06 0 0 0 1.1 1.14zM20.24 22.18a.7.7 0 0 0 .3-.06.13.13 0 0 0 .09-.12.13.13 0 0 0-.13-.13.9.9 0 0 1-.19 0 .31.31 0 0 1-.35-.35v-1.18h.54a.14.14 0 0 0 .14-.13.15.15 0 0 0-.14-.14H20v-.49a.16.16 0 0 0-.16-.15.15.15 0 0 0-.15.15v.49h-.17a.13.13 0 0 0-.13.14.13.13 0 0 0 .13.13h.17v1.25a.53.53 0 0 0 .55.59zM21.16 19.48a.17.17 0 0 0 .18.16.17.17 0 0 0 .19-.16v-.06c0-.1-.08-.16-.19-.16a.16.16 0 0 0-.18.16zm0 2.52a.16.16 0 0 0 .16.16.15.15 0 0 0 .18-.16v-1.79a.16.16 0 0 0-.16-.16.16.16 0 0 0-.15.16zM22.22 22a.15.15 0 0 0 .15.16.16.16 0 0 0 .16-.16v-1a.61.61 0 0 1 .62-.65.55.55 0 0 1 .57.62V22a.16.16 0 0 0 .16.16A.16.16 0 0 0 24 22v-1.14a.75.75 0 0 0-.8-.83.77.77 0 0 0-.7.4v-.22a.16.16 0 0 0-.16-.16.15.15 0 0 0-.15.16zM25.6 22.79a1.06 1.06 0 0 0 .79-.28 1 1 0 0 0 .27-.73v-1.57a.16.16 0 0 0-.16-.16.15.15 0 0 0-.15.16v.23a1 1 0 0 0-.81-.41 1 1 0 0 0-1 1 1 1 0 0 0 1 1 1 1 0 0 0 .81-.44v.25a.67.67 0 0 1-.75.73 1.31 1.31 0 0 1-.73-.22h-.07a.15.15 0 0 0-.14.14.13.13 0 0 0 .08.12 1.63 1.63 0 0 0 .86.18zm0-1.08a.7.7 0 0 1-.72-.71.69.69 0 0 1 .72-.7.73.73 0 0 1 .76.7.74.74 0 0 1-.76.71zM28.55 19.48a.18.18 0 0 0 .36 0v-.06a.18.18 0 0 0-.36 0zm0 2.52a.15.15 0 0 0 .15.16.16.16 0 0 0 .16-.16v-1.79a.16.16 0 0 0-.16-.16.15.15 0 0 0-.15.16zM29.6 22a.16.16 0 0 0 .16.16.15.15 0 0 0 .15-.16v-1a.61.61 0 0 1 .62-.65.55.55 0 0 1 .58.62V22a.15.15 0 1 0 .3 0v-1.14a.75.75 0 0 0-.79-.83.79.79 0 0 0-.71.4v-.22a.16.16 0 0 0-.15-.16.16.16 0 0 0-.16.16zM32.76 22.18a.65.65 0 0 0 .73-.62c0-.37-.34-.49-.66-.59s-.53-.16-.53-.36c0-.18.15-.3.4-.3a1.15 1.15 0 0 1 .54.16h.07a.13.13 0 0 0 .13-.13.16.16 0 0 0-.07-.13 1.45 1.45 0 0 0-.67-.21.62.62 0 0 0-.7.59c0 .38.36.49.68.58s.52.16.52.36c0 .2-.18.33-.43.33a1.18 1.18 0 0 1-.65-.22.11.11 0 0 0-.08 0 .13.13 0 0 0-.08.24 1.41 1.41 0 0 0 .8.3zM35.84 20.21a.16.16 0 0 0-.15-.16.15.15 0 0 0-.15.16v1.05a.61.61 0 0 1-.62.64.55.55 0 0 1-.58-.62v-1.07a.16.16 0 0 0-.15-.16.15.15 0 0 0-.15.16v1.15a.75.75 0 0 0 .79.82.79.79 0 0 0 .71-.4V22a.16.16 0 0 0 .15.16.15.15 0 0 0 .15-.16zM36.56 22a.16.16 0 0 0 .16.16.15.15 0 0 0 .15-.16v-2.64a.16.16 0 0 0-.15-.16.16.16 0 0 0-.16.16zM37.59 19.48a.18.18 0 0 0 .36 0v-.06a.18.18 0 0 0-.36 0zm0 2.52a.16.16 0 0 0 .15.16.16.16 0 0 0 .16-.16v-1.79a.16.16 0 0 0-.16-.16.16.16 0 0 0-.15.16zM38.64 22a.16.16 0 0 0 .16.16.15.15 0 0 0 .2-.16v-1a.61.61 0 0 1 .62-.65.55.55 0 0 1 .58.62V22a.15.15 0 0 0 .15.16.16.16 0 0 0 .16-.16v-1.14a.76.76 0 0 0-.8-.83.8.8 0 0 0-.71.4v-.22a.16.16 0 0 0-.15-.16.16.16 0 0 0-.16.16zM41.07 21.89V22a.19.19 0 1 0 .38 0v-.08a.19.19 0 1 0-.38 0zM41.85 20.72a.09.09 0 0 0 .1.09h1a.09.09 0 0 0 .09-.09.09.09 0 0 0-.09-.08h-.79l.43-.39c.29-.25.42-.39.42-.63a.47.47 0 0 0-.51-.46.6.6 0 0 0-.55.3.17.17 0 0 0 0 .05.09.09 0 0 0 .08.09.11.11 0 0 0 .07 0 .48.48 0 0 1 .41-.24.32.32 0 0 1 .33.31c0 .16-.09.29-.34.51l-.56.49a.14.14 0 0 0-.09.05z"/></g></g></svg>