<svg xmlns="http://www.w3.org/2000/svg" viewBox="0 0 124.56 56.41"><defs><style>.cls-1{fill:#272525}</style></defs><g id="Layer_2" data-name="Layer 2"><g id="Layer_1-2" data-name="Layer 1"><path class="cls-1" d="M7.64 8.11a.42.42 0 0 0 .42.42.46.46 0 0 0 .44-.32l.84-1.87h4.42l.84 1.85a.49.49 0 0 0 .45.34.44.44 0 0 0 .44-.44.53.53 0 0 0-.06-.23L12.16.71a.58.58 0 0 0-.56-.4.6.6 0 0 0-.58.4L7.7 7.87a.47.47 0 0 0-.06.24zm2.05-2.6l1.86-4.13 1.85 4.13zM17.08 8.08a.45.45 0 1 0 .89 0v-2a2.42 2.42 0 0 1 2.09-2.72.44.44 0 0 0 .39-.45.43.43 0 0 0-.45-.48A2.46 2.46 0 0 0 18 4V2.9a.45.45 0 1 0-.89 0zM22 5.16a2.06 2.06 0 0 1 1.94-2 2 2 0 0 1 1.9 2zm4.32 2.55a.4.4 0 0 0 .14-.29.38.38 0 0 0-.37-.42.43.43 0 0 0-.26.1 2.39 2.39 0 0 1-1.71.69 2.08 2.08 0 0 1-2.1-2h4.31a.41.41 0 0 0 .41-.42 2.8 2.8 0 0 0-2.76-3 2.94 2.94 0 0 0-2.86 3.1 3 3 0 0 0 3 3.1 3 3 0 0 0 2.22-.86zM32.63 10.35c.9 0 1.48-.45 2-1.69L37 3.11a.87.87 0 0 0 0-.22.44.44 0 0 0-.44-.44.45.45 0 0 0-.43.34l-1.84 4.69-2.07-4.68a.47.47 0 0 0-.45-.35.44.44 0 0 0-.45.44.69.69 0 0 0 .05.24l2.49 5.28v.09c-.33.73-.65 1.06-1.2 1.06a1.85 1.85 0 0 1-.65-.1.71.71 0 0 0-.22-.05.39.39 0 0 0-.38.38.4.4 0 0 0 .28.38 2.68 2.68 0 0 0 .94.18zM40.94 8.61a3.1 3.1 0 0 0 3.12-3.11 3.11 3.11 0 0 0-6.21 0 3.05 3.05 0 0 0 3.09 3.11zm0-.8a2.23 2.23 0 0 1-2.2-2.31 2.2 2.2 0 0 1 2.18-2.3 2.26 2.26 0 0 1 2.23 2.3A2.2 2.2 0 0 1 41 7.81zM50.76 2.9a.44.44 0 1 0-.87 0v3a1.76 1.76 0 0 1-1.79 1.89A1.59 1.59 0 0 1 46.45 6V2.9a.45.45 0 0 0-.45-.45.43.43 0 0 0-.44.45v3.31a2.17 2.17 0 0 0 2.28 2.38 2.27 2.27 0 0 0 2-1.16v.65a.44.44 0 1 0 .87 0zM56.29 8.08a.45.45 0 0 0 .45.45.44.44 0 0 0 .44-.45V.45a.45.45 0 1 0-.89 0zM62 8.61a3.09 3.09 0 0 0 3.08-3.11 3.11 3.11 0 0 0-6.21 0A3.05 3.05 0 0 0 62 8.61zm0-.8a2.24 2.24 0 0 1-2.2-2.31A2.2 2.2 0 0 1 62 3.17a2.25 2.25 0 0 1 2.17 2.33A2.2 2.2 0 0 1 62 7.81zM69.4 8.61a3.09 3.09 0 0 0 3.12-3.11 3.11 3.11 0 0 0-6.21 0 3.06 3.06 0 0 0 3.09 3.11zm0-.8a2.24 2.24 0 0 1-2.2-2.31 2.2 2.2 0 0 1 2.18-2.3 2.25 2.25 0 0 1 2.23 2.3 2.19 2.19 0 0 1-2.19 2.31zM74.12 8.08a.45.45 0 0 0 .45.45.43.43 0 0 0 .43-.45V6.94l1.23-1.23 2.07 2.61a.43.43 0 0 0 .38.21.41.41 0 0 0 .42-.42.45.45 0 0 0-.11-.3l-2.12-2.68 1.94-1.92a.43.43 0 0 0 .19-.34.41.41 0 0 0-.41-.42.43.43 0 0 0-.34.18L75 5.91V.45a.45.45 0 0 0-.44-.45.45.45 0 0 0-.44.45zM80.67.8a.53.53 0 0 0 1 0V.65a.53.53 0 0 0-1 0zm.08 7.28a.45.45 0 1 0 .89 0V2.9a.45.45 0 1 0-.89 0zM83.7 8.08a.44.44 0 0 0 .45.45.43.43 0 0 0 .43-.45v-3a1.76 1.76 0 0 1 1.79-1.87A1.59 1.59 0 0 1 88 5v3.08a.45.45 0 1 0 .89 0V4.77a2.19 2.19 0 0 0-2.29-2.39 2.27 2.27 0 0 0-2 1.17V2.9a.44.44 0 0 0-.44-.45.45.45 0 0 0-.44.45zM93.43 10.33a3.12 3.12 0 0 0 2.27-.79 2.84 2.84 0 0 0 .76-2.11V2.9a.45.45 0 0 0-.46-.45.44.44 0 0 0-.43.45v.68a2.82 2.82 0 0 0-2.33-1.2 2.77 2.77 0 0 0-2.8 2.82A2.75 2.75 0 0 0 93.25 8a2.84 2.84 0 0 0 2.34-1.26v.7a2 2 0 0 1-2.17 2.12 3.8 3.8 0 0 1-2.11-.64.31.31 0 0 0-.19-.06.4.4 0 0 0-.18.76 4.68 4.68 0 0 0 2.49.71zm0-3.11a2 2 0 0 1-2.06-2 2 2 0 0 1 2.06-2 2.08 2.08 0 0 1 2.19 2 2.1 2.1 0 0 1-2.2 2zM102.23 8.08a.45.45 0 0 0 .45.45.44.44 0 0 0 .44-.45V3.3h1.53a.39.39 0 0 0 .39-.39.38.38 0 0 0-.39-.38h-1.54v-.48c0-.85.34-1.27 1-1.27a3.5 3.5 0 0 1 .48.06.39.39 0 0 0 .43-.38.4.4 0 0 0-.33-.38A2.75 2.75 0 0 0 104 0a1.76 1.76 0 0 0-1.28.46 2.12 2.12 0 0 0-.49 1.54v.52h-.48a.39.39 0 0 0 0 .78h.48zM108.73 8.61a3.09 3.09 0 0 0 3.12-3.11 3.11 3.11 0 0 0-6.21 0 3.05 3.05 0 0 0 3.09 3.11zm0-.8a2.24 2.24 0 0 1-2.2-2.31 2.2 2.2 0 0 1 2.18-2.3 2.25 2.25 0 0 1 2.21 2.33 2.2 2.2 0 0 1-2.17 2.28zM113.45 8.08a.45.45 0 0 0 .45.45.44.44 0 0 0 .44-.45v-2a2.43 2.43 0 0 1 2.1-2.72.44.44 0 0 0 .39-.45.43.43 0 0 0-.44-.45 2.47 2.47 0 0 0-2 1.59V2.9a.45.45 0 0 0-.45-.45.45.45 0 0 0-.44.45zM0 23.44a.45.45 0 1 0 .89 0v-2A2.42 2.42 0 0 1 3 18.69a.45.45 0 0 0 .4-.45.43.43 0 0 0-.44-.45 2.46 2.46 0 0 0-2 1.59v-1.12a.45.45 0 0 0-.45-.45.45.45 0 0 0-.44.45zM4.94 20.52a2.06 2.06 0 0 1 1.94-2 2 2 0 0 1 1.9 2zm4.32 2.55a.4.4 0 0 0 .14-.29.38.38 0 0 0-.4-.38.4.4 0 0 0-.25.1 2.41 2.41 0 0 1-1.75.69 2.08 2.08 0 0 1-2.1-2h4.35a.42.42 0 0 0 .42-.42 2.82 2.82 0 0 0-2.77-3A2.94 2.94 0 0 0 4 20.84 3 3 0 0 0 7 24a3 3 0 0 0 2.26-.93zM13.2 23.94c1.19 0 2.12-.65 2.12-1.78 0-1.07-1-1.42-1.91-1.7s-1.53-.46-1.53-1c0-.49.45-.86 1.15-.86a3.15 3.15 0 0 1 1.55.46.54.54 0 0 0 .2 0 .38.38 0 0 0 .39-.38.43.43 0 0 0-.22-.37 4.11 4.11 0 0 0-1.9-.5 1.81 1.81 0 0 0-2 1.7c0 1.09 1 1.41 2 1.68s1.49.45 1.49 1.05c0 .58-.52.94-1.23.94a3.29 3.29 0 0 1-1.89-.63.34.34 0 0 0-.22-.07.39.39 0 0 0-.23.7 4 4 0 0 0 2.23.76zM19.69 24a3.09 3.09 0 0 0 3.12-3.11 3.11 3.11 0 0 0-6.21 0A3.05 3.05 0 0 0 19.69 24zm0-.8a2.24 2.24 0 0 1-2.2-2.31 2.2 2.2 0 0 1 2.18-2.3 2.26 2.26 0 0 1 2.21 2.33 2.2 2.2 0 0 1-2.17 2.25zM29.51 18.26a.44.44 0 1 0-.87 0v3a1.76 1.76 0 0 1-1.79 1.87 1.58 1.58 0 0 1-1.64-1.8v-3.07a.45.45 0 0 0-.45-.45.43.43 0 0 0-.44.45v3.31A2.17 2.17 0 0 0 26.6 24a2.25 2.25 0 0 0 2-1.16v.65a.44.44 0 1 0 .87 0zM31.51 23.44a.44.44 0 1 0 .88 0v-2a2.43 2.43 0 0 1 2.1-2.72.44.44 0 0 0 .39-.45.43.43 0 0 0-.44-.45 2.48 2.48 0 0 0-2 1.59v-1.15a.44.44 0 1 0-.88 0zM38.6 24a3 3 0 0 0 2.25-1 .4.4 0 0 0 .12-.28.42.42 0 0 0-.41-.4.35.35 0 0 0-.25.12 2.4 2.4 0 0 1-1.66.72 2.22 2.22 0 0 1-2.19-2.31 2.19 2.19 0 0 1 2.13-2.3 2.31 2.31 0 0 1 1.63.71.44.44 0 0 0 .28.11.43.43 0 0 0 .43-.43.41.41 0 0 0-.14-.31 3.1 3.1 0 0 0-2.19-.87 3.07 3.07 0 0 0-3.05 3.12A3.06 3.06 0 0 0 38.6 24zM42.85 20.52a2.06 2.06 0 0 1 1.94-2 2 2 0 0 1 1.9 2zm4.32 2.55a.37.37 0 0 0 .14-.29.38.38 0 0 0-.39-.38.43.43 0 0 0-.25.1 2.41 2.41 0 0 1-1.72.69 2.08 2.08 0 0 1-2.1-2h4.31a.42.42 0 0 0 .42-.42 2.81 2.81 0 0 0-2.77-3A2.94 2.94 0 0 0 42 20.84a3 3 0 0 0 3 3.1 3 3 0 0 0 2.17-.87zM51.11 23.94c1.19 0 2.12-.65 2.12-1.78 0-1.07-1-1.42-1.91-1.7s-1.53-.46-1.53-1c0-.49.45-.86 1.15-.86a3.22 3.22 0 0 1 1.56.4.45.45 0 0 0 .19 0 .38.38 0 0 0 .39-.38.44.44 0 0 0-.21-.37 4.18 4.18 0 0 0-1.91-.5 1.8 1.8 0 0 0-2 1.7c0 1.09 1 1.41 2 1.68.78.22 1.48.45 1.48 1.05 0 .58-.52.94-1.23.94a3.31 3.31 0 0 1-1.89-.63.34.34 0 0 0-.22-.07.39.39 0 0 0-.23.7 4.06 4.06 0 0 0 2.24.82zM64 15.81a.45.45 0 0 0-.45-.45.43.43 0 0 0-.44.45V19a2.69 2.69 0 0 0-2.28-1.27A2.93 2.93 0 0 0 58 20.84 2.9 2.9 0 0 0 60.84 24a2.7 2.7 0 0 0 2.28-1.32v.81a.45.45 0 1 0 .89 0zm-3 2.73a2.21 2.21 0 0 1 2.15 2.29A2.22 2.22 0 0 1 61 23.16a2.15 2.15 0 0 1-2.1-2.3 2.1 2.1 0 0 1 2.1-2.32zM66.52 20.52a2 2 0 0 1 1.93-2 2 2 0 0 1 1.9 2zm4.32 2.55a.39.39 0 0 0 .13-.29.38.38 0 0 0-.39-.38.43.43 0 0 0-.25.1 2.41 2.41 0 0 1-1.72.69 2.06 2.06 0 0 1-2.09-2h4.3a.42.42 0 0 0 .42-.42 2.81 2.81 0 0 0-2.77-3 2.94 2.94 0 0 0-2.85 3.1 3 3 0 0 0 3 3.1 3.06 3.06 0 0 0 2.22-.9zM74.78 23.94c1.18 0 2.12-.65 2.12-1.78 0-1.07-1-1.42-1.92-1.7s-1.53-.46-1.53-1c0-.49.45-.86 1.15-.86a3.22 3.22 0 0 1 1.56.46.45.45 0 0 0 .19 0 .39.39 0 0 0 .4-.38.45.45 0 0 0-.22-.37 4.18 4.18 0 0 0-1.9-.5 1.8 1.8 0 0 0-2 1.7c0 1.09 1 1.41 2 1.68s1.48.45 1.48 1.05c0 .58-.51.94-1.23.94a3.31 3.31 0 0 1-1.89-.63.34.34 0 0 0-.22-.07.39.39 0 0 0-.23.7 4.07 4.07 0 0 0 2.24.76zM78.54 16.16a.53.53 0 0 0 1 0V16a.53.53 0 0 0-1 0zm.08 7.28a.45.45 0 0 0 .45.45.43.43 0 0 0 .44-.45v-5.18a.45.45 0 0 0-.45-.45.45.45 0 0 0-.44.45zM84.21 25.69a3.12 3.12 0 0 0 2.27-.79 2.89 2.89 0 0 0 .76-2.11v-4.53a.45.45 0 0 0-.45-.45.45.45 0 0 0-.44.45v.68a2.81 2.81 0 0 0-5.12 1.62A2.75 2.75 0 0 0 84 23.37a2.81 2.81 0 0 0 2.33-1.26v.7a2 2 0 0 1-2.16 2.12 3.8 3.8 0 0 1-2.11-.64.32.32 0 0 0-.2-.06.43.43 0 0 0-.4.39.41.41 0 0 0 .23.37 4.68 4.68 0 0 0 2.52.7zm0-3.11a2 2 0 0 1-2.06-2 2 2 0 0 1 2.06-2 2.08 2.08 0 0 1 2.19 2 2.1 2.1 0 0 1-2.2 2zM89.22 23.44a.45.45 0 0 0 .45.45.44.44 0 0 0 .44-.45v-3a1.75 1.75 0 0 1 1.78-1.87 1.59 1.59 0 0 1 1.65 1.8v3.09a.45.45 0 1 0 .89 0v-3.33a2.18 2.18 0 0 0-2.28-2.39 2.25 2.25 0 0 0-2 1.17v-.65a.45.45 0 0 0-.45-.45.45.45 0 0 0-.44.45zM96.85 20.52a2.05 2.05 0 0 1 1.93-2 2 2 0 0 1 1.9 2zm4.32 2.55a.4.4 0 0 0 .14-.29.39.39 0 0 0-.4-.38.43.43 0 0 0-.25.1 2.41 2.41 0 0 1-1.72.69 2.06 2.06 0 0 1-2.09-2h4.31a.41.41 0 0 0 .41-.42 2.81 2.81 0 0 0-2.76-3A2.94 2.94 0 0 0 96 20.84a3 3 0 0 0 3 3.1 3 3 0 0 0 2.17-.87zM108.81 15.81a.45.45 0 0 0-.45-.45.43.43 0 0 0-.44.45V19a2.69 2.69 0 0 0-2.28-1.27 2.93 2.93 0 0 0-2.85 3.1 2.9 2.9 0 0 0 2.85 3.17 2.7 2.7 0 0 0 2.28-1.32v.81a.45.45 0 1 0 .89 0zm-3 2.73a2.21 2.21 0 0 1 2.19 2.29 2.22 2.22 0 0 1-2.15 2.3 2.15 2.15 0 0 1-2.1-2.3 2.1 2.1 0 0 1 2.05-2.29zM116.24 23.93a2.29 2.29 0 0 0 .87-.16.37.37 0 0 0 .25-.35.39.39 0 0 0-.36-.42 2.16 2.16 0 0 1-.54.09.88.88 0 0 1-1-1v-3.43H117a.41.41 0 0 0 .41-.4.42.42 0 0 0-.41-.39h-1.54v-1.4A.45.45 0 0 0 115 16a.44.44 0 0 0-.44.45v1.4h-.48a.39.39 0 0 0-.39.39.41.41 0 0 0 .39.4h.48v3.59a1.52 1.52 0 0 0 1.68 1.7zM121.44 24a3.09 3.09 0 0 0 3.12-3.11 3.06 3.06 0 0 0-3.09-3.09 3.09 3.09 0 0 0-3.12 3.12 3.06 3.06 0 0 0 3.09 3.08zm0-.8a2.23 2.23 0 0 1-2.2-2.31 2.19 2.19 0 0 1 2.17-2.3 2.25 2.25 0 0 1 2.21 2.33 2.19 2.19 0 0 1-2.15 2.25zM11.38 38.8a.44.44 0 0 0 .45.45.43.43 0 0 0 .43-.45v-3a1.75 1.75 0 0 1 1.79-1.87 1.59 1.59 0 0 1 1.65 1.8v3.07a.44.44 0 1 0 .88 0v-3.31a2.18 2.18 0 0 0-2.28-2.39 2.26 2.26 0 0 0-2 1.17v-3.1a.44.44 0 1 0-.88 0zM19 35.88a2.06 2.06 0 0 1 1.94-2 2 2 0 0 1 1.9 2zm4.32 2.55a.4.4 0 0 0 .14-.29.38.38 0 0 0-.39-.38.4.4 0 0 0-.25.1 2.41 2.41 0 0 1-1.72.69 2.08 2.08 0 0 1-2.1-2h4.31a.42.42 0 0 0 .42-.42 2.82 2.82 0 0 0-2.77-3 2.94 2.94 0 0 0-2.86 3.1 3 3 0 0 0 3 3.1 3 3 0 0 0 2.22-.9zM25.37 38.8a.45.45 0 0 0 .45.45.43.43 0 0 0 .44-.45v-7.63a.45.45 0 1 0-.89 0zM28.32 40.64a.45.45 0 0 0 .45.45.44.44 0 0 0 .44-.45v-2.59a2.67 2.67 0 0 0 2.28 1.26 2.92 2.92 0 0 0 2.85-3.09 2.91 2.91 0 0 0-2.85-3.09 2.69 2.69 0 0 0-2.28 1.33v-.81a.45.45 0 1 0-.89 0zm3-2.12a2.22 2.22 0 0 1-2.16-2.3 2.22 2.22 0 0 1 2.16-2.29 2.15 2.15 0 0 1 2.1 2.3 2.1 2.1 0 0 1-2.09 2.29zM40.29 41.07c.9 0 1.48-.45 2-1.69l2.33-5.55a.87.87 0 0 0 0-.22.44.44 0 0 0-.44-.44.45.45 0 0 0-.43.34L42 38.2l-2.07-4.68a.47.47 0 0 0-.45-.35.44.44 0 0 0-.45.44.69.69 0 0 0 .05.24l2.49 5.28v.09c-.33.73-.65 1.06-1.2 1.06a1.85 1.85 0 0 1-.65-.1.72.72 0 0 0-.21 0 .39.39 0 0 0-.39.38.4.4 0 0 0 .28.38 2.68 2.68 0 0 0 .89.13zM48.6 39.33a3.1 3.1 0 0 0 3.12-3.11 3.11 3.11 0 0 0-6.21 0 3.05 3.05 0 0 0 3.09 3.11zm0-.8a2.23 2.23 0 0 1-2.2-2.31 2.2 2.2 0 0 1 2.18-2.3 2.26 2.26 0 0 1 2.21 2.33 2.2 2.2 0 0 1-2.17 2.28zM58.42 33.62a.44.44 0 1 0-.87 0v3a1.76 1.76 0 0 1-1.79 1.87 1.59 1.59 0 0 1-1.65-1.8v-3.07a.45.45 0 0 0-.44-.45.43.43 0 0 0-.44.45v3.31a2.17 2.17 0 0 0 2.28 2.38 2.27 2.27 0 0 0 2-1.16v.65a.44.44 0 1 0 .87 0zM60.42 38.8a.44.44 0 1 0 .88 0v-2a2.43 2.43 0 0 1 2.1-2.72.44.44 0 0 0 .39-.45.43.43 0 0 0-.44-.45 2.47 2.47 0 0 0-2.05 1.59v-1.15a.44.44 0 1 0-.88 0zM68.54 40.64a.44.44 0 0 0 .45.45.43.43 0 0 0 .43-.45v-2.59a2.7 2.7 0 0 0 2.29 1.26 2.91 2.91 0 0 0 2.84-3.09 2.91 2.91 0 0 0-2.84-3.09 2.71 2.71 0 0 0-2.29 1.33v-.81a.44.44 0 1 0-.88 0zm3-2.12a2.21 2.21 0 0 1-2.15-2.3 2.22 2.22 0 0 1 2.15-2.29 2.15 2.15 0 0 1 2.1 2.3 2.1 2.1 0 0 1-2.1 2.29zM78 39.31a2.63 2.63 0 0 0 2.16-1v.54a.41.41 0 0 0 .42.42.43.43 0 0 0 .43-.44v-3.28a2.36 2.36 0 0 0-.61-1.74 2.63 2.63 0 0 0-1.93-.66 4.69 4.69 0 0 0-1.94.4.42.42 0 0 0-.25.37.4.4 0 0 0 .4.38h.16a3.61 3.61 0 0 1 1.54-.34c1.12 0 1.78.56 1.78 1.63v.21a6.36 6.36 0 0 0-1.84-.26c-1.51 0-2.54.67-2.54 1.93A2 2 0 0 0 78 39.31zm.17-.7c-.8 0-1.49-.44-1.49-1.18 0-.75.62-1.23 1.74-1.23a6.53 6.53 0 0 1 1.75.25V37a1.81 1.81 0 0 1-2.04 1.61zM84.79 39.29a2.34 2.34 0 0 0 .88-.16.37.37 0 0 0 .25-.35.39.39 0 0 0-.38-.38 2.27 2.27 0 0 1-.54.09.88.88 0 0 1-1-1V34h1.54a.4.4 0 0 0 .4-.4.41.41 0 0 0-.4-.39H84v-1.4a.45.45 0 0 0-.45-.45.43.43 0 0 0-.44.45v1.4h-.48a.4.4 0 0 0-.4.39.41.41 0 0 0 .4.4h.48v3.59a1.52 1.52 0 0 0 1.68 1.7zM87.45 31.52a.53.53 0 0 0 1 0v-.15a.53.53 0 0 0-1 0zm.08 7.28a.45.45 0 0 0 .45.45.43.43 0 0 0 .44-.45v-5.18a.45.45 0 0 0-.45-.45.45.45 0 0 0-.44.45zM91 35.88a2.06 2.06 0 0 1 1.94-2 2 2 0 0 1 1.9 2zm4.32 2.55a.37.37 0 0 0 .14-.29.38.38 0 0 0-.39-.38.43.43 0 0 0-.25.1 2.41 2.41 0 0 1-1.72.69 2.08 2.08 0 0 1-2.1-2h4.31a.42.42 0 0 0 .42-.42 2.82 2.82 0 0 0-2.77-3 2.94 2.94 0 0 0-2.86 3.1 3 3 0 0 0 3 3.1 3 3 0 0 0 2.23-.9zM97.3 38.8a.45.45 0 0 0 .45.45.43.43 0 0 0 .44-.45v-3a1.75 1.75 0 0 1 1.81-1.89 1.59 1.59 0 0 1 1.64 1.8v3.09a.45.45 0 1 0 .89 0v-3.31a2.18 2.18 0 0 0-2.28-2.39 2.25 2.25 0 0 0-2 1.17v-.65a.45.45 0 0 0-.45-.45.45.45 0 0 0-.44.45zM106.39 39.29a2.34 2.34 0 0 0 .88-.16.37.37 0 0 0 .25-.35.39.39 0 0 0-.38-.38 2.27 2.27 0 0 1-.54.09.88.88 0 0 1-1-1V34h1.54a.4.4 0 0 0 .4-.4.41.41 0 0 0-.4-.39h-1.54v-1.4a.45.45 0 0 0-.45-.45.43.43 0 0 0-.44.45v1.4h-.48a.4.4 0 0 0-.4.39.41.41 0 0 0 .4.4h.48v3.59a1.52 1.52 0 0 0 1.68 1.7zM111 39.3c1.19 0 2.12-.65 2.12-1.78 0-1.07-1-1.42-1.91-1.7s-1.53-.46-1.53-1c0-.49.45-.86 1.15-.86a3.22 3.22 0 0 1 1.56.46.45.45 0 0 0 .19 0A.38.38 0 0 0 113 34a.43.43 0 0 0-.22-.37 4.11 4.11 0 0 0-1.9-.5 1.8 1.8 0 0 0-2 1.7c0 1.09 1 1.41 2 1.68.78.22 1.48.45 1.48 1.05 0 .58-.52.94-1.23.94a3.29 3.29 0 0 1-1.89-.63.34.34 0 0 0-.22-.07.39.39 0 0 0-.23.7 4.06 4.06 0 0 0 2.21.8zM31.06 56.41a3.14 3.14 0 0 0 2.27-.79 2.89 2.89 0 0 0 .76-2.11V49a.45.45 0 0 0-.45-.45.45.45 0 0 0-.44.45v.68a2.82 2.82 0 0 0-5.13 1.62 2.75 2.75 0 0 0 2.8 2.79 2.83 2.83 0 0 0 2.34-1.26v.7a2 2 0 0 1-2.16 2.12 3.78 3.78 0 0 1-2.11-.65.34.34 0 0 0-.2-.06.42.42 0 0 0-.4.39.41.41 0 0 0 .23.37 4.68 4.68 0 0 0 2.49.71zm0-3.11a2 2 0 0 1-2.07-2 2 2 0 0 1 2.07-2 2.08 2.08 0 0 1 2.19 2 2.1 2.1 0 0 1-2.2 2zM36.6 51.24a2.05 2.05 0 0 1 1.93-2 2 2 0 0 1 1.91 2zm4.32 2.55a.4.4 0 0 0 .14-.29.39.39 0 0 0-.39-.38.43.43 0 0 0-.26.1 2.41 2.41 0 0 1-1.71.69 2.08 2.08 0 0 1-2.1-2h4.31a.41.41 0 0 0 .41-.42 2.81 2.81 0 0 0-2.76-3 2.94 2.94 0 0 0-2.86 3.1 3 3 0 0 0 3 3.1 3 3 0 0 0 2.22-.9zM44.88 54.65a2.34 2.34 0 0 0 .88-.16.37.37 0 0 0 .25-.35.39.39 0 0 0-.38-.38 2.27 2.27 0 0 1-.54.09.88.88 0 0 1-1-1v-3.47h1.54A.4.4 0 0 0 46 49a.41.41 0 0 0-.4-.39h-1.51v-1.4a.45.45 0 0 0-.45-.45.43.43 0 0 0-.44.45v1.4h-.48a.4.4 0 0 0-.4.39.41.41 0 0 0 .4.4h.48V53a1.52 1.52 0 0 0 1.68 1.65zM53 54.66c1.19 0 2.12-.65 2.12-1.78 0-1.07-1-1.42-1.91-1.7s-1.54-.46-1.54-1c0-.49.45-.86 1.16-.86a3.21 3.21 0 0 1 1.55.46.54.54 0 0 0 .2 0 .38.38 0 0 0 .39-.38.45.45 0 0 0-.22-.37 4.18 4.18 0 0 0-1.9-.5 1.8 1.8 0 0 0-2 1.7c0 1.09 1 1.41 2 1.68s1.49.45 1.49 1.05c0 .58-.52.94-1.24.94a3.29 3.29 0 0 1-1.88-.63.34.34 0 0 0-.22-.07.38.38 0 0 0-.23.7 4 4 0 0 0 2.23.76zM58.61 54.65a2.3 2.3 0 0 0 .88-.16.37.37 0 0 0 .25-.35.39.39 0 0 0-.38-.38 2.27 2.27 0 0 1-.54.09.88.88 0 0 1-1-1v-3.47h1.54a.41.41 0 0 0 .41-.4.42.42 0 0 0-.41-.39h-1.54v-1.4a.45.45 0 0 0-.45-.45.44.44 0 0 0-.44.45v1.4h-.48a.39.39 0 0 0-.39.39.41.41 0 0 0 .39.4h.48V53a1.52 1.52 0 0 0 1.68 1.65zM63.05 54.67a2.59 2.59 0 0 0 2.15-1v.54a.42.42 0 0 0 .43.42.43.43 0 0 0 .43-.44v-3.28a2.32 2.32 0 0 0-.62-1.74 2.59 2.59 0 0 0-1.92-.66 4.78 4.78 0 0 0-2 .4.43.43 0 0 0-.24.37.4.4 0 0 0 .39.38.45.45 0 0 0 .16 0 3.69 3.69 0 0 1 1.55-.34c1.12 0 1.77.56 1.77 1.63v.21a6.29 6.29 0 0 0-1.83-.26c-1.51 0-2.55.67-2.55 1.93a2 2 0 0 0 2.28 1.84zm.17-.7c-.81 0-1.5-.44-1.5-1.18 0-.75.63-1.23 1.74-1.23a6.4 6.4 0 0 1 1.75.25v.58A1.8 1.8 0 0 1 63.22 54zM67.94 54.16a.45.45 0 0 0 .45.45.44.44 0 0 0 .44-.45v-2a2.43 2.43 0 0 1 2.1-2.72.44.44 0 0 0 .39-.45.43.43 0 0 0-.44-.45 2.47 2.47 0 0 0-2 1.59V49a.44.44 0 0 0-.45-.45.45.45 0 0 0-.44.45zM74.6 54.65a2.34 2.34 0 0 0 .88-.16.37.37 0 0 0 .25-.35.39.39 0 0 0-.38-.38 2.27 2.27 0 0 1-.54.09.88.88 0 0 1-1-1v-3.47h1.54a.4.4 0 0 0 .4-.4.41.41 0 0 0-.4-.39h-1.54v-1.4a.45.45 0 0 0-.45-.45.44.44 0 0 0-.44.45v1.4h-.48a.39.39 0 0 0-.39.39.41.41 0 0 0 .39.4h.48V53a1.52 1.52 0 0 0 1.68 1.65zM77.62 51.24a2.06 2.06 0 0 1 1.94-2 2 2 0 0 1 1.9 2zm4.32 2.55a.4.4 0 0 0 .14-.29.38.38 0 0 0-.39-.38.43.43 0 0 0-.26.1 2.39 2.39 0 0 1-1.71.69 2.08 2.08 0 0 1-2.1-2h4.31a.41.41 0 0 0 .41-.42 2.81 2.81 0 0 0-2.76-3 2.94 2.94 0 0 0-2.86 3.1 3 3 0 0 0 3 3.1 3 3 0 0 0 2.22-.9zM89.58 46.53a.45.45 0 0 0-.45-.45.44.44 0 0 0-.44.45v3.2a2.68 2.68 0 0 0-2.28-1.27 2.93 2.93 0 0 0-2.85 3.1 2.9 2.9 0 0 0 2.85 3.08 2.67 2.67 0 0 0 2.28-1.32v.81a.45.45 0 1 0 .89 0zm-3 2.73a2.21 2.21 0 0 1 2.16 2.29 2.22 2.22 0 0 1-2.16 2.3 2.14 2.14 0 0 1-2.09-2.3 2.1 2.1 0 0 1 2.08-2.29zM93.43 52.32c.16 0 .27-.12.3-.31l.08-1c1.31-.18 2.39-.9 2.39-2.34a2.33 2.33 0 0 0-2.58-2.28 3.23 3.23 0 0 0-2.51 1.13.46.46 0 0 0-.14.31.41.41 0 0 0 .42.4.48.48 0 0 0 .31-.12 2.48 2.48 0 0 1 1.9-.9 1.53 1.53 0 0 1 1.68 1.5c0 1-.77 1.51-2 1.6a.35.35 0 0 0-.34.4l.14 1.29a.32.32 0 0 0 .3.31zm-.59 1.5v.23a.55.55 0 1 0 1.1 0v-.23a.55.55 0 0 0-1.1 0z"/></g></g></svg>