<svg xmlns="http://www.w3.org/2000/svg" width="215" height="70.469" viewBox="0 0 215 70.469">
  <metadata><?xpacket begin="﻿" id="W5M0MpCehiHzreSzNTczkc9d"?>
<x:xmpmeta xmlns:x="adobe:ns:meta/" x:xmptk="Adobe XMP Core 5.6-c138 79.159824, 2016/09/14-01:09:01        ">
   <rdf:RDF xmlns:rdf="http://www.w3.org/1999/02/22-rdf-syntax-ns#">
      <rdf:Description rdf:about=""/>
   </rdf:RDF>
</x:xmpmeta>
                                                                                                    
                                                                                                    
                                                                                                    
                                                                                                    
                                                                                                    
                                                                                                    
                                                                                                    
                                                                                                    
                                                                                                    
                                                                                                    
                                                                                                    
                                                                                                    
                                                                                                    
                                                                                                    
                                                                                                    
                                                                                                    
                                                                                                    
                                                                                                    
                                                                                                    
                                                                                                    
                           
<?xpacket end="w"?></metadata>
<defs>
    <style>
      .cls-1 {
        fill: #fff;
        fill-rule: evenodd;
      }
    </style>
  </defs>
  <path id="of_surveyed_patients_unwilling_to_start_insulin_therapy_didn_t_" data-name="of surveyed patients unwilling to start insulin therapy didn&apos;t " class="cls-1" d="M47.97,175.48a3.941,3.941,0,0,0,4.076-3.908v-0.028a4.066,4.066,0,0,0-8.124.028V171.6A3.9,3.9,0,0,0,47.97,175.48ZM48,173.645a2,2,0,0,1-1.975-2.073v-0.028A1.923,1.923,0,0,1,47.97,169.5a1.994,1.994,0,0,1,1.975,2.073V171.6A1.924,1.924,0,0,1,48,173.645Zm5.948,0.686a1.065,1.065,0,1,0,2.129,0v-4.706h0.9a0.869,0.869,0,1,0,0-1.737H56.047v-0.294a0.7,0.7,0,0,1,.77-0.813H57a0.885,0.885,0,0,0,.869-0.882,0.866,0.866,0,0,0-.728-0.855,5.209,5.209,0,0,0-.868-0.056,2.336,2.336,0,0,0-1.723.588,2.479,2.479,0,0,0-.6,1.821v0.477H53.862a0.879,0.879,0,0,0-.883.882,0.868,0.868,0,0,0,.883.869h0.084v4.706Zm11.817,1.121c1.625,0,2.871-.757,2.871-2.424V173c0-1.372-1.219-1.877-2.269-2.227-0.812-.28-1.527-0.476-1.527-0.9v-0.028a0.637,0.637,0,0,1,.784-0.519,4.009,4.009,0,0,1,1.625.477,0.777,0.777,0,0,0,.392.1,0.837,0.837,0,0,0,.854-0.841,0.867,0.867,0,0,0-.5-0.8,5.281,5.281,0,0,0-2.325-.574,2.454,2.454,0,0,0-2.745,2.381V170.1c0,1.457,1.191,1.947,2.241,2.255,0.827,0.252,1.555.406,1.555,0.869v0.028c0,0.336-.28.56-0.9,0.56a3.956,3.956,0,0,1-2.031-.672,0.808,0.808,0,0,0-.42-0.113,0.826,0.826,0,0,0-.84.841,0.848,0.848,0,0,0,.406.728A5.228,5.228,0,0,0,65.763,175.452Zm11.216-6.668a1.065,1.065,0,0,0-2.129,0v3.208a1.307,1.307,0,0,1-1.331,1.527,1.28,1.28,0,0,1-1.289-1.527v-3.208a1.065,1.065,0,0,0-2.129,0v3.88c0,1.723.939,2.788,2.549,2.788a2.658,2.658,0,0,0,2.2-1.2v0.084a1.065,1.065,0,1,0,2.129,0v-5.547Zm1.9,5.547a1.065,1.065,0,1,0,2.129,0v-1.989c0-1.513.6-2.339,1.681-2.591a0.98,0.98,0,0,0,.8-1,0.97,0.97,0,0,0-1.037-1.036,1.928,1.928,0,0,0-1.443,1.4v-0.336a1.065,1.065,0,0,0-2.129,0v5.547Zm10.278,0.21,2.3-5.309a1.492,1.492,0,0,0,.112-0.5,1.007,1.007,0,0,0-1.023-1.008,1.032,1.032,0,0,0-.995.728l-1.639,4.384L86.3,168.476a1.028,1.028,0,0,0-1.037-.756,1.045,1.045,0,0,0-1.037.994,1.414,1.414,0,0,0,.112.518l2.3,5.309a1.3,1.3,0,0,0,1.2.925h0.112A1.323,1.323,0,0,0,89.158,174.541Zm5.277-3.572a1.674,1.674,0,0,1,1.625-1.6,1.611,1.611,0,0,1,1.583,1.6H94.435Zm4.44,3.6a0.835,0.835,0,0,0,.28-0.63,0.814,0.814,0,0,0-.827-0.84,0.794,0.794,0,0,0-.518.168,2.459,2.459,0,0,1-1.513.5,1.741,1.741,0,0,1-1.835-1.471h4.216a0.971,0.971,0,0,0,.995-1.022,3.549,3.549,0,0,0-3.614-3.614,3.738,3.738,0,0,0-3.712,3.908V171.6a3.755,3.755,0,0,0,3.922,3.88A3.887,3.887,0,0,0,98.875,174.569Zm3.763,3.026c1.275,0,1.905-.574,2.536-2.1l2.619-6.29a1.607,1.607,0,0,0,.1-0.5,0.989,0.989,0,0,0-1.008-.98,1.079,1.079,0,0,0-1.023.812l-1.569,4.356-1.625-4.37a1.029,1.029,0,0,0-1.022-.8,1.008,1.008,0,0,0-1.051,1.022,1.552,1.552,0,0,0,.112.49l2.564,5.94-0.07.168a0.7,0.7,0,0,1-.757.448,1.392,1.392,0,0,1-.448-0.084,1,1,0,0,0-.35-0.056,0.849,0.849,0,0,0-.841.868,0.922,0.922,0,0,0,.673.883A3.2,3.2,0,0,0,102.638,177.6Zm8.121-6.626a1.674,1.674,0,0,1,1.624-1.6,1.61,1.61,0,0,1,1.583,1.6h-3.207Zm4.44,3.6a0.835,0.835,0,0,0,.28-0.63,0.813,0.813,0,0,0-.826-0.84,0.8,0.8,0,0,0-.519.168,2.456,2.456,0,0,1-1.512.5,1.741,1.741,0,0,1-1.835-1.471H115a0.971,0.971,0,0,0,.994-1.022,3.549,3.549,0,0,0-3.614-3.614,3.738,3.738,0,0,0-3.712,3.908V171.6a3.756,3.756,0,0,0,3.923,3.88A3.886,3.886,0,0,0,115.2,174.569Zm9.969-8.5a1.065,1.065,0,0,0-2.13,0v2.717a2.882,2.882,0,0,0-2.339-1.12c-1.779,0-3.418,1.372-3.418,3.88v0.028c0,2.507,1.667,3.88,3.418,3.88a2.755,2.755,0,0,0,2.339-1.219v0.1a1.065,1.065,0,1,0,2.13,0v-8.264Zm-3.923,3.4a1.9,1.9,0,0,1,1.821,2.073v0.028a1.842,1.842,0,1,1-3.656,0v-0.028A1.907,1.907,0,0,1,121.245,169.471Zm10.022,7.1a1.065,1.065,0,1,0,2.129,0v-2.241a2.884,2.884,0,0,0,2.34,1.121c1.779,0,3.417-1.373,3.417-3.88v-0.028c0-2.508-1.666-3.88-3.417-3.88a2.759,2.759,0,0,0-2.34,1.218v-0.1a1.065,1.065,0,0,0-2.129,0v7.788Zm3.922-2.927a1.905,1.905,0,0,1-1.821-2.073v-0.028a1.842,1.842,0,1,1,3.656,0v0.028A1.906,1.906,0,0,1,135.189,173.645Zm7.657,1.807a2.883,2.883,0,0,0,2.269-.953v0.014a0.954,0.954,0,0,0,1.023.883,1.022,1.022,0,0,0,1.036-1.023v-3.418a3.273,3.273,0,0,0-.812-2.4,3.467,3.467,0,0,0-2.535-.84,6.544,6.544,0,0,0-2.4.392,0.882,0.882,0,0,0-.574.826,0.867,0.867,0,0,0,.883.869,0.9,0.9,0,0,0,.308-0.056,4.88,4.88,0,0,1,1.47-.21,1.346,1.346,0,0,1,1.611,1.372v0.126a5.334,5.334,0,0,0-1.835-.308c-1.779,0-3.025.757-3.025,2.4v0.028A2.322,2.322,0,0,0,142.846,175.452Zm0.644-1.471a0.989,0.989,0,0,1-1.162-.911v-0.028c0-.672.56-1.036,1.471-1.036a3.3,3.3,0,0,1,1.358.28v0.378A1.451,1.451,0,0,1,143.49,173.981Zm7.98,1.457a3.142,3.142,0,0,0,1.219-.21,0.867,0.867,0,0,0,.546-0.8,0.887,0.887,0,0,0-.882-0.882c-0.042,0-.182.014-0.252,0.014a0.618,0.618,0,0,1-.687-0.729v-3.207h0.939a0.911,0.911,0,0,0,0-1.821h-0.939v-0.939a1.065,1.065,0,0,0-2.129,0V167.8h-0.07a0.911,0.911,0,0,0,0,1.821h0.07v3.558C149.285,174.919,150.168,175.438,151.47,175.438Zm3.247-9.4a1.207,1.207,0,0,0,2.381,0v-0.028a1.21,1.21,0,0,0-2.381,0v0.028Zm0.126,8.292a1.065,1.065,0,1,0,2.129,0v-5.547a1.065,1.065,0,0,0-2.129,0v5.547Zm5.853-3.362a1.674,1.674,0,0,1,1.625-1.6,1.61,1.61,0,0,1,1.582,1.6H160.7Zm4.44,3.6a0.835,0.835,0,0,0,.28-0.63,0.813,0.813,0,0,0-.826-0.84,0.794,0.794,0,0,0-.518.168,2.461,2.461,0,0,1-1.513.5,1.741,1.741,0,0,1-1.835-1.471h4.216a0.972,0.972,0,0,0,1-1.022,3.549,3.549,0,0,0-3.614-3.614,3.738,3.738,0,0,0-3.712,3.908V171.6a3.755,3.755,0,0,0,3.922,3.88A3.886,3.886,0,0,0,165.136,174.569Zm2.419-.238a1.065,1.065,0,1,0,2.129,0v-3.208a1.306,1.306,0,0,1,1.331-1.526,1.279,1.279,0,0,1,1.288,1.526v3.208a1.065,1.065,0,1,0,2.129,0v-3.88c0-1.723-.938-2.787-2.549-2.787a2.655,2.655,0,0,0-2.2,1.2v-0.084a1.065,1.065,0,0,0-2.129,0v5.547Zm11.257,1.107a3.14,3.14,0,0,0,1.218-.21,0.867,0.867,0,0,0,.547-0.8,0.888,0.888,0,0,0-.883-0.882c-0.042,0-.182.014-0.252,0.014a0.617,0.617,0,0,1-.686-0.729v-3.207h0.938a0.911,0.911,0,1,0,0-1.821h-0.938v-0.939a1.065,1.065,0,0,0-2.129,0V167.8h-0.07a0.911,0.911,0,1,0,0,1.821h0.07v3.558C176.627,174.919,177.509,175.438,178.812,175.438Zm5.908,0.014c1.625,0,2.871-.757,2.871-2.424V173c0-1.372-1.218-1.877-2.269-2.227-0.812-.28-1.527-0.476-1.527-0.9v-0.028a0.637,0.637,0,0,1,.785-0.519,4.013,4.013,0,0,1,1.625.477,0.777,0.777,0,0,0,.392.1,0.837,0.837,0,0,0,.854-0.841,0.867,0.867,0,0,0-.5-0.8,5.28,5.28,0,0,0-2.325-.574,2.454,2.454,0,0,0-2.746,2.381V170.1c0,1.457,1.191,1.947,2.241,2.255,0.827,0.252,1.555.406,1.555,0.869v0.028c0,0.336-.28.56-0.9,0.56a3.952,3.952,0,0,1-2.031-.672,0.808,0.808,0,0,0-.421-0.113,0.826,0.826,0,0,0-.84.841,0.848,0.848,0,0,0,.406.728A5.229,5.229,0,0,0,184.72,175.452Zm15.416-6.668a1.065,1.065,0,0,0-2.129,0v3.208a1.307,1.307,0,0,1-1.331,1.527,1.28,1.28,0,0,1-1.289-1.527v-3.208a1.065,1.065,0,0,0-2.129,0v3.88c0,1.723.939,2.788,2.55,2.788a2.659,2.659,0,0,0,2.2-1.2v0.084a1.065,1.065,0,1,0,2.129,0v-5.547Zm1.9,5.547a1.065,1.065,0,1,0,2.129,0v-3.208A1.306,1.306,0,0,1,205.5,169.6a1.279,1.279,0,0,1,1.289,1.526v3.208a1.065,1.065,0,1,0,2.129,0v-3.88c0-1.723-.939-2.787-2.55-2.787a2.657,2.657,0,0,0-2.2,1.2v-0.084a1.065,1.065,0,0,0-2.129,0v5.547Zm11.215,1.121h0.07a1.172,1.172,0,0,0,1.149-.911l1.205-3.782,1.19,3.782a1.173,1.173,0,0,0,1.149.911h0.07a1.221,1.221,0,0,0,1.177-.953l1.891-5.365a1.875,1.875,0,0,0,.07-0.434,0.969,0.969,0,0,0-1-.98,1.042,1.042,0,0,0-1.022.812l-1.177,3.838-1.191-3.81a1.123,1.123,0,0,0-1.092-.854h-0.126a1.123,1.123,0,0,0-1.093.854l-1.177,3.8-1.148-3.81a1.063,1.063,0,0,0-1.037-.826,0.981,0.981,0,0,0-1.022.966,1.794,1.794,0,0,0,.1.518l1.835,5.295A1.219,1.219,0,0,0,213.251,175.452Zm9.295-9.413a1.207,1.207,0,0,0,2.381,0v-0.028a1.21,1.21,0,0,0-2.381,0v0.028Zm0.126,8.292a1.065,1.065,0,1,0,2.129,0v-5.547a1.065,1.065,0,0,0-2.129,0v5.547Zm4.228,0a1.065,1.065,0,1,0,2.129,0v-8.264a1.065,1.065,0,1,0-2.129,0v8.264Zm4.228,0a1.065,1.065,0,1,0,2.129,0v-8.264a1.065,1.065,0,1,0-2.129,0v8.264Zm4.1-8.292a1.208,1.208,0,0,0,2.382,0v-0.028a1.21,1.21,0,0,0-2.382,0v0.028Zm0.126,8.292a1.065,1.065,0,1,0,2.13,0v-5.547a1.065,1.065,0,0,0-2.13,0v5.547Zm4.13,0a1.065,1.065,0,1,0,2.129,0v-3.208a1.307,1.307,0,0,1,1.331-1.526,1.279,1.279,0,0,1,1.289,1.526v3.208a1.065,1.065,0,1,0,2.129,0v-3.88c0-1.723-.939-2.787-2.549-2.787a2.659,2.659,0,0,0-2.2,1.2v-0.084a1.065,1.065,0,0,0-2.129,0v5.547Zm12.084,3.25a4.4,4.4,0,0,0,3.236-1.009,4.027,4.027,0,0,0,.952-2.955v-4.833a1.065,1.065,0,0,0-2.129-.014v0.014a3.04,3.04,0,0,0-2.423-1.12,3.3,3.3,0,0,0-3.334,3.5v0.028a3.3,3.3,0,0,0,3.334,3.5,2.937,2.937,0,0,0,2.451-1.218v0.364a1.848,1.848,0,0,1-2.143,2.045,4.851,4.851,0,0,1-2.073-.448,0.87,0.87,0,1,0-.617,1.625A7.2,7.2,0,0,0,251.569,177.581Zm0.252-4.651A1.715,1.715,0,0,1,250,171.193v-0.028a1.83,1.83,0,0,1,3.656,0v0.028A1.735,1.735,0,0,1,251.821,172.93ZM50.357,195.438a3.143,3.143,0,0,0,1.219-.21,0.867,0.867,0,0,0,.546-0.8,0.888,0.888,0,0,0-.883-0.882c-0.042,0-.182.014-0.252,0.014a0.617,0.617,0,0,1-.686-0.729v-3.207H51.24a0.91,0.91,0,1,0,0-1.821H50.3v-0.939a1.065,1.065,0,0,0-2.129,0V187.8H48.1a0.91,0.91,0,1,0,0,1.821h0.07v3.558C48.172,194.919,49.054,195.438,50.357,195.438Zm6.749,0.042a3.941,3.941,0,0,0,4.076-3.908v-0.028a4.066,4.066,0,0,0-8.124.028V191.6A3.9,3.9,0,0,0,57.106,195.48Zm0.028-1.835a2,2,0,0,1-1.975-2.073v-0.028a1.923,1.923,0,0,1,1.947-2.045,1.994,1.994,0,0,1,1.975,2.073V191.6A1.924,1.924,0,0,1,57.134,193.645Zm12.417,1.807c1.625,0,2.872-.757,2.872-2.424V193c0-1.372-1.219-1.877-2.269-2.227-0.812-.28-1.527-0.476-1.527-0.9v-0.028a0.637,0.637,0,0,1,.785-0.519,4.008,4.008,0,0,1,1.625.477,0.778,0.778,0,0,0,.392.1,0.837,0.837,0,0,0,.855-0.841,0.867,0.867,0,0,0-.5-0.8,5.281,5.281,0,0,0-2.325-.574,2.454,2.454,0,0,0-2.746,2.381V190.1c0,1.457,1.191,1.947,2.241,2.255,0.826,0.252,1.555.406,1.555,0.869v0.028c0,0.336-.28.56-0.9,0.56a3.955,3.955,0,0,1-2.031-.672,0.808,0.808,0,0,0-.42-0.113,0.826,0.826,0,0,0-.84.841,0.848,0.848,0,0,0,.406.728A5.227,5.227,0,0,0,69.551,195.452Zm6.79-.014a3.143,3.143,0,0,0,1.219-.21,0.867,0.867,0,0,0,.546-0.8,0.888,0.888,0,0,0-.882-0.882c-0.042,0-.182.014-0.252,0.014a0.617,0.617,0,0,1-.686-0.729v-3.207h0.939a0.91,0.91,0,1,0,0-1.821H76.285v-0.939a1.065,1.065,0,0,0-2.129,0V187.8h-0.07a0.911,0.911,0,1,0,0,1.821h0.07v3.558C74.156,194.919,75.038,195.438,76.341,195.438Zm5.4,0.014a2.885,2.885,0,0,0,2.269-.953v0.014a0.953,0.953,0,0,0,1.023.883,1.022,1.022,0,0,0,1.037-1.023v-3.418a3.272,3.272,0,0,0-.812-2.4,3.467,3.467,0,0,0-2.535-.84,6.539,6.539,0,0,0-2.4.392,0.882,0.882,0,0,0-.574.826,0.867,0.867,0,0,0,.882.869,0.9,0.9,0,0,0,.308-0.056,4.885,4.885,0,0,1,1.471-.21,1.346,1.346,0,0,1,1.611,1.372v0.126a5.338,5.338,0,0,0-1.835-.308c-1.779,0-3.026.757-3.026,2.4v0.028A2.323,2.323,0,0,0,81.744,195.452Zm0.644-1.471a0.99,0.99,0,0,1-1.163-.911v-0.028c0-.672.56-1.036,1.471-1.036a3.3,3.3,0,0,1,1.359.28v0.378A1.451,1.451,0,0,1,82.389,193.981Zm5.514,0.35a1.065,1.065,0,1,0,2.129,0v-1.989c0-1.513.6-2.339,1.681-2.591a0.98,0.98,0,0,0,.8-1,0.97,0.97,0,0,0-1.037-1.036,1.928,1.928,0,0,0-1.443,1.4v-0.336a1.065,1.065,0,0,0-2.129,0v5.547Zm8.387,1.107a3.143,3.143,0,0,0,1.219-.21,0.867,0.867,0,0,0,.546-0.8,0.888,0.888,0,0,0-.883-0.882c-0.042,0-.182.014-0.252,0.014a0.617,0.617,0,0,1-.686-0.729v-3.207h0.939a0.91,0.91,0,1,0,0-1.821H96.234v-0.939a1.065,1.065,0,0,0-2.129,0V187.8h-0.07a0.911,0.911,0,0,0,0,1.821h0.07v3.558C94.105,194.919,94.988,195.438,96.291,195.438Zm7.447-9.4a1.207,1.207,0,0,0,2.381,0v-0.028a1.21,1.21,0,0,0-2.381,0v0.028Zm0.126,8.292a1.065,1.065,0,1,0,2.129,0v-5.547a1.065,1.065,0,0,0-2.129,0v5.547Zm4.13,0a1.065,1.065,0,1,0,2.129,0v-3.208a1.306,1.306,0,0,1,1.331-1.526,1.279,1.279,0,0,1,1.288,1.526v3.208a1.065,1.065,0,1,0,2.129,0v-3.88c0-1.723-.938-2.787-2.549-2.787a2.655,2.655,0,0,0-2.2,1.2v-0.084a1.065,1.065,0,0,0-2.129,0v5.547Zm11.355,1.121c1.625,0,2.871-.757,2.871-2.424V193c0-1.372-1.218-1.877-2.269-2.227-0.812-.28-1.527-0.476-1.527-0.9v-0.028a0.638,0.638,0,0,1,.785-0.519,4.013,4.013,0,0,1,1.625.477,0.777,0.777,0,0,0,.392.1,0.837,0.837,0,0,0,.854-0.841,0.867,0.867,0,0,0-.5-0.8,5.28,5.28,0,0,0-2.325-.574,2.454,2.454,0,0,0-2.746,2.381V190.1c0,1.457,1.191,1.947,2.242,2.255,0.826,0.252,1.554.406,1.554,0.869v0.028c0,0.336-.28.56-0.9,0.56a3.955,3.955,0,0,1-2.031-.672,0.807,0.807,0,0,0-.42-0.113,0.826,0.826,0,0,0-.841.841,0.848,0.848,0,0,0,.406.728A5.229,5.229,0,0,0,119.348,195.452Zm11.216-6.668a1.065,1.065,0,0,0-2.129,0v3.208a1.307,1.307,0,0,1-1.331,1.527,1.28,1.28,0,0,1-1.288-1.527v-3.208a1.065,1.065,0,0,0-2.13,0v3.88c0,1.723.939,2.788,2.55,2.788a2.657,2.657,0,0,0,2.2-1.2v0.084a1.065,1.065,0,1,0,2.129,0v-5.547Zm2,5.547a1.065,1.065,0,1,0,2.129,0v-8.264a1.065,1.065,0,1,0-2.129,0v8.264Zm4.1-8.292a1.207,1.207,0,0,0,2.381,0v-0.028a1.21,1.21,0,0,0-2.381,0v0.028Zm0.126,8.292a1.065,1.065,0,1,0,2.129,0v-5.547a1.065,1.065,0,0,0-2.129,0v5.547Zm4.13,0a1.065,1.065,0,1,0,2.129,0v-3.208a1.306,1.306,0,0,1,1.331-1.526,1.279,1.279,0,0,1,1.288,1.526v3.208a1.065,1.065,0,0,0,2.13,0v-3.88c0-1.723-.939-2.787-2.55-2.787a2.657,2.657,0,0,0-2.2,1.2v-0.084a1.065,1.065,0,0,0-2.129,0v5.547Zm15.457,1.107a3.148,3.148,0,0,0,1.219-.21,0.867,0.867,0,0,0,.546-0.8,0.888,0.888,0,0,0-.883-0.882c-0.042,0-.182.014-0.252,0.014a0.617,0.617,0,0,1-.686-0.729v-3.207h0.938a0.911,0.911,0,1,0,0-1.821h-0.938v-0.939a1.065,1.065,0,0,0-2.129,0V187.8h-0.07a0.911,0.911,0,1,0,0,1.821h0.07v3.558C154.192,194.919,155.074,195.438,156.377,195.438Zm3.274-1.107a1.065,1.065,0,1,0,2.13,0v-3.208a1.306,1.306,0,0,1,1.33-1.526,1.279,1.279,0,0,1,1.289,1.526v3.208a1.065,1.065,0,1,0,2.129,0v-3.88c0-1.723-.938-2.787-2.549-2.787a2.655,2.655,0,0,0-2.2,1.2v-2.8a1.065,1.065,0,0,0-2.13,0v8.264Zm10.445-3.362a1.675,1.675,0,0,1,1.625-1.6,1.611,1.611,0,0,1,1.583,1.6H170.1Zm4.441,3.6a0.835,0.835,0,0,0,.28-0.63,0.814,0.814,0,0,0-.827-0.84,0.794,0.794,0,0,0-.518.168,2.459,2.459,0,0,1-1.513.5,1.741,1.741,0,0,1-1.835-1.471h4.216a0.971,0.971,0,0,0,1-1.022,3.549,3.549,0,0,0-3.614-3.614,3.738,3.738,0,0,0-3.712,3.908V191.6a3.755,3.755,0,0,0,3.922,3.88A3.889,3.889,0,0,0,174.537,194.569Zm2.418-.238a1.065,1.065,0,1,0,2.129,0v-1.989c0-1.513.6-2.339,1.681-2.591a0.981,0.981,0,0,0,.8-1,0.971,0.971,0,0,0-1.037-1.036,1.928,1.928,0,0,0-1.443,1.4v-0.336a1.065,1.065,0,0,0-2.129,0v5.547Zm7.631,1.121a2.887,2.887,0,0,0,2.27-.953v0.014a0.953,0.953,0,0,0,1.022.883,1.023,1.023,0,0,0,1.037-1.023v-3.418a3.269,3.269,0,0,0-.813-2.4,3.467,3.467,0,0,0-2.535-.84,6.534,6.534,0,0,0-2.4.392,0.882,0.882,0,0,0-.575.826,0.867,0.867,0,0,0,.883.869,0.9,0.9,0,0,0,.308-0.056,4.882,4.882,0,0,1,1.471-.21,1.347,1.347,0,0,1,1.611,1.372v0.126a5.343,5.343,0,0,0-1.835-.308c-1.779,0-3.026.757-3.026,2.4v0.028A2.323,2.323,0,0,0,184.586,195.452Zm0.645-1.471a0.99,0.99,0,0,1-1.163-.911v-0.028c0-.672.56-1.036,1.471-1.036a3.308,3.308,0,0,1,1.359.28v0.378A1.451,1.451,0,0,1,185.231,193.981Zm5.514,2.591a1.065,1.065,0,1,0,2.129,0v-2.241a2.884,2.884,0,0,0,2.34,1.121c1.778,0,3.417-1.373,3.417-3.88v-0.028c0-2.508-1.667-3.88-3.417-3.88a2.759,2.759,0,0,0-2.34,1.218v-0.1a1.065,1.065,0,0,0-2.129,0v7.788Zm3.922-2.927a1.905,1.905,0,0,1-1.821-2.073v-0.028a1.842,1.842,0,1,1,3.656,0v0.028A1.906,1.906,0,0,1,194.667,193.645Zm6.943,3.95c1.275,0,1.9-.574,2.535-2.1l2.62-6.29a1.607,1.607,0,0,0,.1-0.5,0.99,0.99,0,0,0-1.009-.98,1.079,1.079,0,0,0-1.022.812l-1.569,4.356-1.625-4.37a1.03,1.03,0,0,0-1.023-.8,1.008,1.008,0,0,0-1.05,1.022,1.552,1.552,0,0,0,.112.49l2.563,5.94-0.07.168a0.694,0.694,0,0,1-.756.448,1.4,1.4,0,0,1-.449-0.084,1,1,0,0,0-.35-0.056,0.849,0.849,0,0,0-.84.868,0.921,0.921,0,0,0,.672.883A3.207,3.207,0,0,0,201.61,197.6Zm18.4-11.528a1.065,1.065,0,1,0-2.129,0v2.717a2.886,2.886,0,0,0-2.34-1.12c-1.778,0-3.417,1.372-3.417,3.88v0.028c0,2.507,1.667,3.88,3.417,3.88a2.758,2.758,0,0,0,2.34-1.219v0.1a1.065,1.065,0,1,0,2.129,0v-8.264Zm-3.922,3.4a1.9,1.9,0,0,1,1.821,2.073v0.028a1.842,1.842,0,1,1-3.656,0v-0.028A1.906,1.906,0,0,1,216.087,189.471Zm5.794-3.432a1.207,1.207,0,0,0,2.381,0v-0.028a1.21,1.21,0,0,0-2.381,0v0.028Zm0.126,8.292a1.065,1.065,0,1,0,2.129,0v-5.547a1.065,1.065,0,0,0-2.129,0v5.547Zm11.68-8.264a1.065,1.065,0,0,0-2.13,0v2.717a2.882,2.882,0,0,0-2.339-1.12c-1.779,0-3.418,1.372-3.418,3.88v0.028c0,2.507,1.667,3.88,3.418,3.88a2.755,2.755,0,0,0,2.339-1.219v0.1a1.065,1.065,0,1,0,2.13,0v-8.264Zm-3.923,3.4a1.9,1.9,0,0,1,1.821,2.073v0.028a1.842,1.842,0,1,1-3.656,0v-0.028A1.907,1.907,0,0,1,229.764,189.471Zm5.822,4.86a1.065,1.065,0,1,0,2.129,0v-3.208a1.307,1.307,0,0,1,1.331-1.526,1.279,1.279,0,0,1,1.289,1.526v3.208a1.065,1.065,0,1,0,2.129,0v-3.88c0-1.723-.939-2.787-2.549-2.787a2.659,2.659,0,0,0-2.2,1.2v-0.084a1.065,1.065,0,0,0-2.129,0v5.547Zm8.6-4.916a0.582,0.582,0,0,0,.588.644,0.67,0.67,0,0,0,.645-0.518l1.12-3.236a1.145,1.145,0,0,0,.042-0.294A0.556,0.556,0,0,0,246,185.45h-0.672a0.972,0.972,0,0,0-.981.967Zm6.665,6.023a3.142,3.142,0,0,0,1.219-.21,0.867,0.867,0,0,0,.546-0.8,0.887,0.887,0,0,0-.882-0.882c-0.042,0-.182.014-0.252,0.014a0.617,0.617,0,0,1-.687-0.729v-3.207h0.939a0.911,0.911,0,0,0,0-1.821h-0.939v-0.939a1.065,1.065,0,0,0-2.129,0V187.8h-0.07a0.911,0.911,0,0,0,0,1.821h0.07v3.558C248.662,194.919,249.545,195.438,250.847,195.438ZM63.572,214.331a1.065,1.065,0,1,0,2.129,0v-4.706h0.9a0.869,0.869,0,1,0,0-1.737H65.673v-0.294a0.7,0.7,0,0,1,.77-0.813h0.182a0.885,0.885,0,0,0,.868-0.882,0.866,0.866,0,0,0-.728-0.855,5.21,5.21,0,0,0-.869-0.056,2.336,2.336,0,0,0-1.723.588,2.479,2.479,0,0,0-.6,1.821v0.477H63.488a0.879,0.879,0,0,0-.883.882,0.868,0.868,0,0,0,.883.869h0.084v4.706Zm6.567-3.362a1.674,1.674,0,0,1,1.625-1.6,1.611,1.611,0,0,1,1.583,1.6H70.139Zm4.44,3.6a0.835,0.835,0,0,0,.28-0.63,0.814,0.814,0,0,0-.826-0.84,0.8,0.8,0,0,0-.518.168,2.458,2.458,0,0,1-1.513.5,1.741,1.741,0,0,1-1.835-1.471h4.216a0.971,0.971,0,0,0,.995-1.022,3.549,3.549,0,0,0-3.614-3.614,3.738,3.738,0,0,0-3.712,3.908V211.6a3.755,3.755,0,0,0,3.922,3.88A3.887,3.887,0,0,0,74.579,214.569Zm4.141-3.6a1.674,1.674,0,0,1,1.625-1.6,1.611,1.611,0,0,1,1.583,1.6H78.72Zm4.44,3.6a0.835,0.835,0,0,0,.28-0.63,0.814,0.814,0,0,0-.826-0.84,0.8,0.8,0,0,0-.518.168,2.458,2.458,0,0,1-1.513.5,1.741,1.741,0,0,1-1.835-1.471h4.216a0.971,0.971,0,0,0,.995-1.022,3.549,3.549,0,0,0-3.614-3.614,3.738,3.738,0,0,0-3.712,3.908V211.6a3.755,3.755,0,0,0,3.922,3.88A3.887,3.887,0,0,0,83.161,214.569Zm2.517-.238a1.065,1.065,0,1,0,2.129,0v-8.264a1.065,1.065,0,1,0-2.129,0v8.264Zm11.873,1.149a3.689,3.689,0,0,0,2.661-.967,0.9,0.9,0,0,0-.588-1.583,0.984,0.984,0,0,0-.574.2,2.158,2.158,0,0,1-1.4.518,1.924,1.924,0,0,1-1.905-2.073v-0.028a1.918,1.918,0,0,1,1.821-2.045,2.03,2.03,0,0,1,1.331.476,1,1,0,0,0,.616.21,0.956,0.956,0,0,0,.966-0.953,0.943,0.943,0,0,0-.336-0.728,3.758,3.758,0,0,0-2.563-.84,3.855,3.855,0,0,0-3.936,3.908V211.6A3.834,3.834,0,0,0,97.551,215.48Zm7.924,0a3.941,3.941,0,0,0,4.076-3.908v-0.028a4.066,4.066,0,0,0-8.124.028V211.6A3.9,3.9,0,0,0,105.475,215.48Zm0.028-1.835a2,2,0,0,1-1.975-2.073v-0.028a1.923,1.923,0,0,1,1.947-2.045,1.994,1.994,0,0,1,1.975,2.073V211.6A1.923,1.923,0,0,1,105.5,213.645Zm5.584,0.686a1.065,1.065,0,1,0,2.129,0v-3.208a1.306,1.306,0,0,1,1.331-1.526,1.279,1.279,0,0,1,1.288,1.526v3.208a1.065,1.065,0,1,0,2.129,0v-3.88c0-1.723-.938-2.787-2.549-2.787a2.657,2.657,0,0,0-2.2,1.2v-0.084a1.065,1.065,0,0,0-2.129,0v5.547Zm9.086,0a1.065,1.065,0,1,0,2.129,0v-4.706h0.9a0.869,0.869,0,1,0,0-1.737h-0.924v-0.294a0.7,0.7,0,0,1,.77-0.813h0.182a0.885,0.885,0,0,0,.869-0.882,0.865,0.865,0,0,0-.729-0.855,5.2,5.2,0,0,0-.868-0.056,2.336,2.336,0,0,0-1.723.588,2.48,2.48,0,0,0-.6,1.821v0.477h-0.084a0.879,0.879,0,0,0-.883.882,0.868,0.868,0,0,0,.883.869h0.084v4.706Zm5.085,0a1.065,1.065,0,1,0,2.129,0v-5.547a1.065,1.065,0,0,0-2.129,0v5.547Zm-0.127-8.292a1.208,1.208,0,0,0,2.382,0v-0.028a1.21,1.21,0,0,0-2.382,0v0.028Zm11.8,0.028a1.065,1.065,0,0,0-2.13,0v2.717a2.882,2.882,0,0,0-2.339-1.12c-1.779,0-3.418,1.372-3.418,3.88v0.028c0,2.507,1.667,3.88,3.418,3.88a2.755,2.755,0,0,0,2.339-1.219v0.1a1.065,1.065,0,1,0,2.13,0v-8.264Zm-3.923,3.4a1.9,1.9,0,0,1,1.821,2.073v0.028a1.842,1.842,0,1,1-3.656,0v-0.028A1.907,1.907,0,0,1,133.012,209.471Zm7.545,1.5a1.675,1.675,0,0,1,1.625-1.6,1.61,1.61,0,0,1,1.583,1.6h-3.208Zm4.441,3.6a0.835,0.835,0,0,0,.28-0.63,0.814,0.814,0,0,0-.827-0.84,0.794,0.794,0,0,0-.518.168,2.457,2.457,0,0,1-1.513.5,1.741,1.741,0,0,1-1.835-1.471H144.8a0.971,0.971,0,0,0,1-1.022,3.549,3.549,0,0,0-3.614-3.614,3.738,3.738,0,0,0-3.712,3.908V211.6a3.755,3.755,0,0,0,3.922,3.88A3.889,3.889,0,0,0,145,214.569Zm2.418-.238a1.065,1.065,0,1,0,2.129,0v-3.208a1.307,1.307,0,0,1,1.331-1.526,1.279,1.279,0,0,1,1.289,1.526v3.208a1.065,1.065,0,1,0,2.129,0v-3.88c0-1.723-.939-2.787-2.55-2.787a2.658,2.658,0,0,0-2.2,1.2v-0.084a1.065,1.065,0,0,0-2.129,0v5.547Zm11.257,1.107a3.142,3.142,0,0,0,1.219-.21,0.867,0.867,0,0,0,.546-0.8,0.887,0.887,0,0,0-.882-0.882c-0.042,0-.182.014-0.252,0.014a0.617,0.617,0,0,1-.687-0.729v-3.207h0.939a0.911,0.911,0,0,0,0-1.821h-0.939v-0.939a1.065,1.065,0,0,0-2.129,0V207.8h-0.07a0.911,0.911,0,0,0,0,1.821h0.07v3.558C156.488,214.919,157.371,215.438,158.673,215.438Zm9.2-4.469a1.674,1.674,0,0,1,1.624-1.6,1.61,1.61,0,0,1,1.583,1.6h-3.207Zm4.44,3.6a0.835,0.835,0,0,0,.28-0.63,0.813,0.813,0,0,0-.826-0.84,0.8,0.8,0,0,0-.519.168,2.456,2.456,0,0,1-1.512.5A1.741,1.741,0,0,1,167.9,212.3h4.216a0.971,0.971,0,0,0,.994-1.022,3.549,3.549,0,0,0-3.614-3.614,3.738,3.738,0,0,0-3.712,3.908V211.6a3.756,3.756,0,0,0,3.923,3.88A3.886,3.886,0,0,0,172.311,214.569Zm2.419-.238a1.065,1.065,0,1,0,2.129,0v-3.208a1.306,1.306,0,0,1,1.33-1.526,1.279,1.279,0,0,1,1.289,1.526v3.208a1.065,1.065,0,1,0,2.129,0v-3.88c0-1.723-.938-2.787-2.549-2.787a2.655,2.655,0,0,0-2.2,1.2v-0.084a1.065,1.065,0,0,0-2.129,0v5.547Zm12.405,1.149a3.941,3.941,0,0,0,4.077-3.908v-0.028a4.066,4.066,0,0,0-8.125.028V211.6A3.9,3.9,0,0,0,187.135,215.48Zm0.028-1.835a2,2,0,0,1-1.975-2.073v-0.028a1.924,1.924,0,0,1,1.947-2.045,1.994,1.994,0,0,1,1.975,2.073V211.6A1.923,1.923,0,0,1,187.163,213.645Zm12.406-4.861a1.065,1.065,0,0,0-2.129,0v3.208a1.307,1.307,0,0,1-1.331,1.527,1.28,1.28,0,0,1-1.289-1.527v-3.208a1.065,1.065,0,0,0-2.129,0v3.88c0,1.723.939,2.788,2.55,2.788a2.659,2.659,0,0,0,2.2-1.2v0.084a1.065,1.065,0,1,0,2.129,0v-5.547Zm5.262,8.8a4.4,4.4,0,0,0,3.236-1.009,4.027,4.027,0,0,0,.952-2.955v-4.833a1.065,1.065,0,0,0-2.129-.014v0.014a3.04,3.04,0,0,0-2.423-1.12,3.3,3.3,0,0,0-3.334,3.5v0.028a3.3,3.3,0,0,0,3.334,3.5,2.937,2.937,0,0,0,2.451-1.218v0.364a1.848,1.848,0,0,1-2.143,2.045,4.851,4.851,0,0,1-2.073-.448,0.87,0.87,0,1,0-.617,1.625A7.2,7.2,0,0,0,204.831,217.581Zm0.252-4.651a1.715,1.715,0,0,1-1.821-1.737v-0.028a1.83,1.83,0,0,1,3.656,0v0.028A1.735,1.735,0,0,1,205.083,212.93Zm5.836,1.4a1.065,1.065,0,1,0,2.129,0v-3.208a1.306,1.306,0,0,1,1.331-1.526,1.279,1.279,0,0,1,1.288,1.526v3.208a1.065,1.065,0,0,0,2.13,0v-3.88c0-1.723-.939-2.787-2.55-2.787a2.657,2.657,0,0,0-2.2,1.2v-2.8a1.065,1.065,0,1,0-2.129,0v8.264Zm15.457,1.107a3.14,3.14,0,0,0,1.218-.21,0.867,0.867,0,0,0,.547-0.8,0.888,0.888,0,0,0-.883-0.882c-0.042,0-.182.014-0.252,0.014a0.617,0.617,0,0,1-.686-0.729v-3.207h0.938a0.911,0.911,0,1,0,0-1.821H226.32v-0.939a1.065,1.065,0,0,0-2.129,0V207.8h-0.07a0.911,0.911,0,1,0,0,1.821h0.07v3.558C224.191,214.919,225.073,215.438,226.376,215.438Zm6.748,0.042a3.941,3.941,0,0,0,4.077-3.908v-0.028a4.066,4.066,0,0,0-8.125.028V211.6A3.9,3.9,0,0,0,233.124,215.48Zm0.028-1.835a2,2,0,0,1-1.975-2.073v-0.028a1.924,1.924,0,0,1,1.947-2.045,1.994,1.994,0,0,1,1.975,2.073V211.6A1.923,1.923,0,0,1,233.152,213.645ZM42.628,234.331a1.065,1.065,0,1,0,2.129,0v-3.208a1.306,1.306,0,0,1,1.331-1.526,1.279,1.279,0,0,1,1.289,1.526v3.208a1.065,1.065,0,1,0,2.129,0v-3.88c0-1.723-.938-2.787-2.549-2.787a2.657,2.657,0,0,0-2.2,1.2v-2.8a1.065,1.065,0,1,0-2.129,0v8.264Zm10.851,1.121a2.885,2.885,0,0,0,2.269-.953v0.014a0.953,0.953,0,0,0,1.023.883,1.022,1.022,0,0,0,1.036-1.023v-3.418a3.272,3.272,0,0,0-.812-2.4,3.467,3.467,0,0,0-2.535-.84,6.539,6.539,0,0,0-2.4.392,0.882,0.882,0,0,0-.574.826,0.867,0.867,0,0,0,.883.869,0.9,0.9,0,0,0,.308-0.056,4.885,4.885,0,0,1,1.471-.21,1.346,1.346,0,0,1,1.611,1.372v0.126a5.337,5.337,0,0,0-1.835-.308c-1.779,0-3.026.757-3.026,2.4v0.028A2.323,2.323,0,0,0,53.479,235.452Zm0.644-1.471a0.99,0.99,0,0,1-1.163-.911v-0.028c0-.672.56-1.036,1.471-1.036a3.3,3.3,0,0,1,1.359.28v0.378A1.451,1.451,0,0,1,54.123,233.981Zm5.514,0.35a1.065,1.065,0,1,0,2.129,0v-3.208A1.306,1.306,0,0,1,63.1,229.6a1.279,1.279,0,0,1,1.289,1.526v3.208a1.065,1.065,0,1,0,2.129,0v-3.88c0-1.723-.939-2.787-2.549-2.787a2.657,2.657,0,0,0-2.2,1.2v-0.084a1.065,1.065,0,0,0-2.129,0v5.547Zm16.272-8.264a1.065,1.065,0,1,0-2.129,0v2.717a2.884,2.884,0,0,0-2.339-1.12c-1.779,0-3.418,1.372-3.418,3.88v0.028c0,2.507,1.667,3.88,3.418,3.88a2.756,2.756,0,0,0,2.339-1.219v0.1a1.065,1.065,0,1,0,2.129,0v-8.264Zm-3.922,3.4a1.9,1.9,0,0,1,1.821,2.073v0.028a1.842,1.842,0,1,1-3.656,0v-0.028A1.906,1.906,0,0,1,71.988,229.471Zm5.92,4.86a1.065,1.065,0,1,0,2.129,0v-8.264a1.065,1.065,0,1,0-2.129,0v8.264Zm5.853-3.362a1.674,1.674,0,0,1,1.625-1.6,1.611,1.611,0,0,1,1.583,1.6H83.76Zm4.44,3.6a0.835,0.835,0,0,0,.28-0.63,0.814,0.814,0,0,0-.826-0.84,0.8,0.8,0,0,0-.518.168,2.458,2.458,0,0,1-1.513.5,1.741,1.741,0,0,1-1.835-1.471H88A0.971,0.971,0,0,0,89,231.278a3.549,3.549,0,0,0-3.614-3.614,3.738,3.738,0,0,0-3.712,3.908V231.6a3.755,3.755,0,0,0,3.922,3.88A3.887,3.887,0,0,0,88.2,234.569Zm9.154,0.869a3.143,3.143,0,0,0,1.219-.21,0.867,0.867,0,0,0,.546-0.8,0.888,0.888,0,0,0-.882-0.882c-0.042,0-.182.014-0.252,0.014a0.617,0.617,0,0,1-.686-0.729v-3.207h0.939a0.91,0.91,0,1,0,0-1.821H97.3v-0.939a1.065,1.065,0,0,0-2.129,0V227.8H95.1a0.911,0.911,0,1,0,0,1.821h0.07v3.558C95.169,234.919,96.052,235.438,97.354,235.438Zm3.275-1.107a1.065,1.065,0,1,0,2.129,0v-3.208a1.306,1.306,0,0,1,1.331-1.526,1.279,1.279,0,0,1,1.288,1.526v3.208a1.065,1.065,0,0,0,2.13,0v-3.88c0-1.723-.939-2.787-2.55-2.787a2.657,2.657,0,0,0-2.2,1.2v-2.8a1.065,1.065,0,1,0-2.129,0v8.264Zm10.445-3.362a1.674,1.674,0,0,1,1.624-1.6,1.61,1.61,0,0,1,1.583,1.6h-3.207Zm4.44,3.6a0.835,0.835,0,0,0,.28-0.63,0.813,0.813,0,0,0-.826-0.84,0.8,0.8,0,0,0-.519.168,2.456,2.456,0,0,1-1.512.5A1.741,1.741,0,0,1,111.1,232.3h4.216a0.971,0.971,0,0,0,.994-1.022,3.549,3.549,0,0,0-3.614-3.614,3.738,3.738,0,0,0-3.712,3.908V231.6a3.756,3.756,0,0,0,3.923,3.88A3.886,3.886,0,0,0,115.514,234.569Zm14.168-8.5a1.065,1.065,0,1,0-2.129,0v2.717a2.882,2.882,0,0,0-2.339-1.12c-1.779,0-3.418,1.372-3.418,3.88v0.028c0,2.507,1.667,3.88,3.418,3.88a2.755,2.755,0,0,0,2.339-1.219v0.1a1.065,1.065,0,1,0,2.129,0v-8.264Zm-3.922,3.4a1.9,1.9,0,0,1,1.821,2.073v0.028a1.842,1.842,0,1,1-3.656,0v-0.028A1.907,1.907,0,0,1,125.76,229.471Zm7.545,1.5a1.675,1.675,0,0,1,1.625-1.6,1.611,1.611,0,0,1,1.583,1.6h-3.208Zm4.441,3.6a0.835,0.835,0,0,0,.28-0.63,0.814,0.814,0,0,0-.827-0.84,0.794,0.794,0,0,0-.518.168,2.459,2.459,0,0,1-1.513.5,1.741,1.741,0,0,1-1.835-1.471h4.216a0.971,0.971,0,0,0,1-1.022,3.549,3.549,0,0,0-3.614-3.614,3.738,3.738,0,0,0-3.712,3.908V231.6a3.755,3.755,0,0,0,3.922,3.88A3.889,3.889,0,0,0,137.746,234.569Zm2.418-.238a1.065,1.065,0,1,0,2.129,0v-3.208a1.285,1.285,0,0,1,1.289-1.526,1.259,1.259,0,0,1,1.247,1.526v3.208a1.065,1.065,0,1,0,2.129,0v-3.208a1.285,1.285,0,0,1,1.288-1.526,1.259,1.259,0,0,1,1.247,1.526v3.208a1.065,1.065,0,1,0,2.129,0v-3.908c0-1.807-.952-2.759-2.535-2.759a3.091,3.091,0,0,0-2.465,1.19,2.248,2.248,0,0,0-2.116-1.19,2.683,2.683,0,0,0-2.213,1.2v-0.084a1.065,1.065,0,0,0-2.129,0v5.547Zm15.429,1.121a2.883,2.883,0,0,0,2.269-.953v0.014a0.954,0.954,0,0,0,1.023.883,1.023,1.023,0,0,0,1.037-1.023v-3.418a3.273,3.273,0,0,0-.813-2.4,3.467,3.467,0,0,0-2.535-.84,6.544,6.544,0,0,0-2.4.392,0.882,0.882,0,0,0-.574.826,0.867,0.867,0,0,0,.883.869,0.9,0.9,0,0,0,.308-0.056,4.882,4.882,0,0,1,1.471-.21,1.346,1.346,0,0,1,1.61,1.372v0.126a5.334,5.334,0,0,0-1.835-.308c-1.779,0-3.025.757-3.025,2.4v0.028A2.322,2.322,0,0,0,155.593,235.452Zm0.645-1.471a0.99,0.99,0,0,1-1.163-.911v-0.028c0-.672.56-1.036,1.471-1.036a3.3,3.3,0,0,1,1.358.28v0.378A1.45,1.45,0,0,1,156.238,233.981Zm5.514,0.35a1.065,1.065,0,1,0,2.129,0v-3.208a1.306,1.306,0,0,1,1.331-1.526,1.279,1.279,0,0,1,1.289,1.526v3.208a1.065,1.065,0,1,0,2.129,0v-3.88c0-1.723-.939-2.787-2.55-2.787a2.657,2.657,0,0,0-2.2,1.2v-0.084a1.065,1.065,0,0,0-2.129,0v5.547Zm16.272-8.264a1.065,1.065,0,1,0-2.129,0v2.717a2.886,2.886,0,0,0-2.34-1.12c-1.779,0-3.417,1.372-3.417,3.88v0.028c0,2.507,1.666,3.88,3.417,3.88a2.758,2.758,0,0,0,2.34-1.219v0.1a1.065,1.065,0,1,0,2.129,0v-8.264Zm-3.922,3.4a1.9,1.9,0,0,1,1.821,2.073v0.028a1.842,1.842,0,1,1-3.656,0v-0.028A1.906,1.906,0,0,1,174.1,229.471Zm8.455,5.981c1.625,0,2.872-.757,2.872-2.424V233c0-1.372-1.219-1.877-2.27-2.227-0.812-.28-1.526-0.476-1.526-0.9v-0.028a0.637,0.637,0,0,1,.784-0.519,4.013,4.013,0,0,1,1.625.477,0.777,0.777,0,0,0,.392.1,0.837,0.837,0,0,0,.854-0.841,0.867,0.867,0,0,0-.5-0.8,5.28,5.28,0,0,0-2.325-.574,2.454,2.454,0,0,0-2.746,2.381V230.1c0,1.457,1.191,1.947,2.242,2.255,0.826,0.252,1.555.406,1.555,0.869v0.028c0,0.336-.281.56-0.9,0.56a3.955,3.955,0,0,1-2.031-.672,0.807,0.807,0,0,0-.42-0.113,0.826,0.826,0,0,0-.841.841,0.848,0.848,0,0,0,.406.728A5.231,5.231,0,0,0,182.557,235.452Zm12.278,0.028a3.941,3.941,0,0,0,4.077-3.908v-0.028a4.066,4.066,0,0,0-8.125.028V231.6A3.9,3.9,0,0,0,194.835,235.48Zm0.028-1.835a2,2,0,0,1-1.975-2.073v-0.028a1.924,1.924,0,0,1,1.947-2.045,1.994,1.994,0,0,1,1.975,2.073V231.6A1.923,1.923,0,0,1,194.863,233.645Zm5.948,0.686a1.065,1.065,0,0,0,2.13,0v-4.706h0.9a0.869,0.869,0,1,0,0-1.737h-0.924v-0.294a0.7,0.7,0,0,1,.77-0.813h0.182a0.885,0.885,0,0,0,.869-0.882,0.866,0.866,0,0,0-.729-0.855,5.2,5.2,0,0,0-.868-0.056,2.335,2.335,0,0,0-1.723.588,2.48,2.48,0,0,0-.6,1.821v0.477h-0.084a0.878,0.878,0,0,0-.882.882,0.867,0.867,0,0,0,.882.869h0.084v4.706Zm9.156-8.292a1.207,1.207,0,0,0,2.381,0v-0.028a1.21,1.21,0,0,0-2.381,0v0.028Zm0.126,8.292a1.065,1.065,0,1,0,2.129,0v-5.547a1.065,1.065,0,0,0-2.129,0v5.547Zm4.13,0a1.065,1.065,0,1,0,2.129,0v-3.208a1.306,1.306,0,0,1,1.331-1.526,1.279,1.279,0,0,1,1.288,1.526v3.208a1.065,1.065,0,1,0,2.129,0v-3.88c0-1.723-.938-2.787-2.549-2.787a2.655,2.655,0,0,0-2.2,1.2v-0.084a1.065,1.065,0,0,0-2.129,0v5.547Zm11.355,1.121c1.625,0,2.871-.757,2.871-2.424V233c0-1.372-1.218-1.877-2.269-2.227-0.812-.28-1.527-0.476-1.527-0.9v-0.028a0.638,0.638,0,0,1,.785-0.519,4.013,4.013,0,0,1,1.625.477,0.777,0.777,0,0,0,.392.1,0.837,0.837,0,0,0,.854-0.841,0.867,0.867,0,0,0-.5-0.8,5.28,5.28,0,0,0-2.325-.574,2.454,2.454,0,0,0-2.746,2.381V230.1c0,1.457,1.191,1.947,2.242,2.255,0.826,0.252,1.554.406,1.554,0.869v0.028c0,0.336-.28.56-0.9,0.56a3.955,3.955,0,0,1-2.031-.672,0.807,0.807,0,0,0-.42-0.113,0.826,0.826,0,0,0-.841.841,0.848,0.848,0,0,0,.406.728A5.229,5.229,0,0,0,225.578,235.452Zm11.216-6.668a1.065,1.065,0,0,0-2.129,0v3.208a1.307,1.307,0,0,1-1.331,1.527,1.28,1.28,0,0,1-1.288-1.527v-3.208a1.065,1.065,0,0,0-2.13,0v3.88c0,1.723.939,2.788,2.55,2.788a2.657,2.657,0,0,0,2.2-1.2v0.084a1.065,1.065,0,1,0,2.129,0v-5.547Zm2,5.547a1.065,1.065,0,1,0,2.129,0v-8.264a1.065,1.065,0,1,0-2.129,0v8.264Zm4.1-8.292a1.207,1.207,0,0,0,2.381,0v-0.028a1.21,1.21,0,0,0-2.381,0v0.028Zm0.126,8.292a1.065,1.065,0,1,0,2.129,0v-5.547a1.065,1.065,0,0,0-2.129,0v5.547Zm4.13,0a1.065,1.065,0,1,0,2.129,0v-3.208a1.306,1.306,0,0,1,1.331-1.526,1.279,1.279,0,0,1,1.288,1.526v3.208a1.065,1.065,0,0,0,2.13,0v-3.88c0-1.723-.939-2.787-2.55-2.787a2.657,2.657,0,0,0-2.2,1.2v-0.084a1.065,1.065,0,0,0-2.129,0v5.547Zm9.222-4.253a0.621,0.621,0,1,0,1.241,0v-4.6a0.619,0.619,0,0,0-.62-0.62h-0.017a2.211,2.211,0,0,0-.587.106l-0.809.237a0.546,0.546,0,0,0,.131,1.077,0.984,0.984,0,0,0,.22-0.033l0.441-.114v3.951Z" transform="translate(-42.625 -165)"/>
</svg>
