<svg xmlns="http://www.w3.org/2000/svg" width="83.04" height="20.16" viewBox="0 0 83.04 20.16"><defs><style>.cls-1,.cls-2{fill:#2dccd3;}.cls-1{fill-rule:evenodd;}.cls-3{fill:#fff;}</style></defs><title>300x250-frame4-image1</title><g id="Layer_2" data-name="Layer 2"><g id="Frame_7" data-name="Frame 7"><g id="Rectangle_1" data-name="Rectangle 1"><path class="cls-1" d="M10.08,19.16A9.08,9.08,0,0,1,10.08,1H73a9.08,9.08,0,1,1,0,18.16Z"/><path class="cls-2" d="M73,2a8.08,8.08,0,1,1,0,16.16H10.08A8.08,8.08,0,0,1,10.08,2H73m0-2H10.08a10.08,10.08,0,0,0,0,20.16H73A10.08,10.08,0,1,0,73,0Z"/></g><g id="See_the_BASAGLAR_Experience_resources" data-name="See the BASAGLAR  Experience resources"><path class="cls-3" d="M11.05,8.08a.46.46,0,0,1-.18-.37.44.44,0,0,1,.45-.44.52.52,0,0,1,.28.08,1.82,1.82,0,0,0,1.12.4c.4,0,.64-.16.64-.41v0c0-.24-.15-.37-.89-.56S11,6.29,11,5.42h0a1.37,1.37,0,0,1,1.54-1.32,2.5,2.5,0,0,1,1.4.39.42.42,0,0,1,.21.38.44.44,0,0,1-.45.44.45.45,0,0,1-.25-.07,1.9,1.9,0,0,0-.92-.29c-.37,0-.57.17-.57.38h0c0,.29.19.39.95.58s1.4.55,1.4,1.32h0c0,.87-.67,1.36-1.62,1.36A2.85,2.85,0,0,1,11.05,8.08Z"/><path class="cls-3" d="M16.66,8.61A1.67,1.67,0,0,1,14.9,6.88v0a1.67,1.67,0,0,1,1.66-1.74,1.58,1.58,0,0,1,1.62,1.61.43.43,0,0,1-.44.46H15.85a.78.78,0,0,0,.82.66,1.09,1.09,0,0,0,.68-.23.35.35,0,0,1,.23-.07.36.36,0,0,1,.37.37.39.39,0,0,1-.12.29A1.76,1.76,0,0,1,16.66,8.61Zm.61-2a.71.71,0,0,0-.71-.71.76.76,0,0,0-.73.71Z"/><path class="cls-3" d="M20.51,8.61a1.68,1.68,0,0,1-1.76-1.73v0a1.67,1.67,0,0,1,1.66-1.74A1.59,1.59,0,0,1,22,6.73a.44.44,0,0,1-.45.46H19.7a.78.78,0,0,0,.82.66,1.05,1.05,0,0,0,.68-.23.35.35,0,0,1,.23-.07.36.36,0,0,1,.37.37.39.39,0,0,1-.12.29A1.76,1.76,0,0,1,20.51,8.61Zm.62-2a.73.73,0,0,0-.72-.71.74.74,0,0,0-.72.71Z"/><path class="cls-3" d="M24.81,7.59V6h0a.41.41,0,1,1,0-.81h0V4.76a.48.48,0,1,1,1,0v.42h.42a.41.41,0,1,1,0,.81h-.42V7.43c0,.22.1.33.31.33h.11a.39.39,0,0,1,.4.39.38.38,0,0,1-.25.36,1.37,1.37,0,0,1-.54.1C25.2,8.6,24.81,8.36,24.81,7.59Z"/><path class="cls-3" d="M27.26,4.4a.48.48,0,1,1,.95,0V5.65a1.2,1.2,0,0,1,1-.53,1.1,1.1,0,0,1,1.14,1.24V8.1a.48.48,0,1,1-.95,0V6.66c0-.45-.22-.68-.58-.68s-.6.23-.6.68V8.1a.48.48,0,1,1-.95,0Z"/><path class="cls-3" d="M32.77,8.61A1.68,1.68,0,0,1,31,6.88v0a1.67,1.67,0,0,1,1.67-1.74A1.59,1.59,0,0,1,34.3,6.73a.44.44,0,0,1-.45.46H32a.78.78,0,0,0,.82.66,1.05,1.05,0,0,0,.68-.23.35.35,0,0,1,.23-.07.36.36,0,0,1,.37.37.39.39,0,0,1-.12.29A1.76,1.76,0,0,1,32.77,8.61Zm.62-2a.73.73,0,0,0-.71-.71.74.74,0,0,0-.73.71Z"/><path class="cls-3" d="M37,4.63a.47.47,0,0,1,.48-.48h1.56a1.58,1.58,0,0,1,1.15.39,1,1,0,0,1,.31.74v0a1,1,0,0,1-.58.94,1.08,1.08,0,0,1,.82,1.08v0c0,.8-.65,1.2-1.65,1.2H37.49A.47.47,0,0,1,37,8.06Zm1.84,1.29c.42,0,.69-.13.69-.46h0c0-.29-.22-.45-.63-.45H38v.92Zm.25,1.77c.43,0,.69-.15.69-.47v0c0-.29-.22-.47-.72-.47H38v1Z"/><path class="cls-3" d="M41.3,7.92l1.54-3.46a.58.58,0,0,1,.56-.38h.06a.59.59,0,0,1,.56.38l1.53,3.46a.49.49,0,0,1,.05.19.46.46,0,0,1-.46.47.49.49,0,0,1-.46-.34l-.3-.69H42.45l-.31.73a.49.49,0,0,1-.45.3.44.44,0,0,1-.44-.45A.54.54,0,0,1,41.3,7.92ZM44,6.7l-.61-1.45L42.8,6.7Z"/><path class="cls-3" d="M46.27,8.08a.49.49,0,0,1-.18-.37.44.44,0,0,1,.45-.44.49.49,0,0,1,.28.08,1.83,1.83,0,0,0,1.13.4c.39,0,.63-.16.63-.41v0c0-.24-.15-.37-.89-.56s-1.45-.47-1.45-1.34h0a1.37,1.37,0,0,1,1.54-1.32,2.49,2.49,0,0,1,1.39.39.42.42,0,0,1,.21.38.44.44,0,0,1-.45.44.4.4,0,0,1-.24-.07,1.93,1.93,0,0,0-.93-.29c-.37,0-.56.17-.56.38h0c0,.29.19.39.95.58s1.39.55,1.39,1.32h0c0,.87-.66,1.36-1.61,1.36A2.86,2.86,0,0,1,46.27,8.08Z"/><path class="cls-3" d="M50.14,7.92l1.53-3.46a.6.6,0,0,1,.57-.38h0a.57.57,0,0,1,.56.38l1.54,3.46a.49.49,0,0,1,0,.19.46.46,0,0,1-.46.47.49.49,0,0,1-.47-.34l-.29-.69H51.28L51,8.28a.48.48,0,0,1-.44.3.45.45,0,0,1-.45-.45A.56.56,0,0,1,50.14,7.92ZM52.86,6.7l-.61-1.45L51.64,6.7Z"/><path class="cls-3" d="M55,6.36v0a2.26,2.26,0,0,1,2.31-2.27,2.41,2.41,0,0,1,1.5.43.47.47,0,0,1,.2.39.48.48,0,0,1-.77.38,1.55,1.55,0,0,0-1-.3A1.32,1.32,0,0,0,56,6.33h0a1.32,1.32,0,0,0,1.34,1.4,1.53,1.53,0,0,0,.91-.27V6.85H57.6a.42.42,0,1,1,0-.84h1.11a.47.47,0,0,1,.48.48V7.56a.66.66,0,0,1-.33.62,3.07,3.07,0,0,1-1.55.43A2.19,2.19,0,0,1,55,6.36Z"/><path class="cls-3" d="M60.12,4.59a.48.48,0,0,1,.49-.48.47.47,0,0,1,.48.48V7.66h1.79a.44.44,0,0,1,0,.88H60.61a.48.48,0,0,1-.49-.48Z"/><path class="cls-3" d="M63.77,7.92,65.3,4.46a.6.6,0,0,1,.57-.38h0a.57.57,0,0,1,.56.38L68,7.92a.49.49,0,0,1,0,.19.46.46,0,0,1-.46.47.49.49,0,0,1-.47-.34l-.29-.69H64.91l-.31.73a.48.48,0,0,1-.44.3.45.45,0,0,1-.45-.45A.56.56,0,0,1,63.77,7.92ZM66.49,6.7l-.61-1.45L65.27,6.7Z"/><path class="cls-3" d="M68.83,4.63a.47.47,0,0,1,.48-.48h1.53a1.78,1.78,0,0,1,1.28.44,1.37,1.37,0,0,1,.38,1h0A1.35,1.35,0,0,1,71.62,7l.67.81a.59.59,0,0,1,.16.37.46.46,0,0,1-.46.45.59.59,0,0,1-.48-.25l-.94-1.2h-.78v1a.48.48,0,1,1-1,0Zm1.94,1.65c.48,0,.75-.25.75-.62h0c0-.42-.29-.63-.76-.63h-1V6.28Z"/><path class="cls-3" d="M8,15.22V11.8a.47.47,0,0,1,.48-.48h2.44a.43.43,0,1,1,0,.86H9v.89h1.68a.43.43,0,0,1,0,.86H9v.92h2a.43.43,0,1,1,0,.86H8.5A.48.48,0,0,1,8,15.22Z"/><path class="cls-3" d="M12.08,15,13,14l-.79-.9a.55.55,0,0,1-.16-.37.42.42,0,0,1,.44-.43.54.54,0,0,1,.45.24l.62.83.64-.83a.53.53,0,0,1,.41-.24.42.42,0,0,1,.45.41.57.57,0,0,1-.13.33l-.82,1,.84,1a.55.55,0,0,1,.16.37.43.43,0,0,1-.44.44.55.55,0,0,1-.45-.25l-.68-.89-.68.89a.54.54,0,0,1-.41.25.43.43,0,0,1-.45-.42A.46.46,0,0,1,12.08,15Z"/><path class="cls-3" d="M15.74,12.78a.48.48,0,0,1,1,0v.05a1.22,1.22,0,0,1,1-.55A1.59,1.59,0,0,1,19.28,14h0a1.58,1.58,0,0,1-1.54,1.74,1.3,1.3,0,0,1-1-.5v1a.48.48,0,1,1-1,0ZM18.32,14h0a.83.83,0,1,0-1.64,0h0a.83.83,0,1,0,1.64,0Z"/><path class="cls-3" d="M21.57,15.78a1.68,1.68,0,0,1-1.76-1.73v0a1.68,1.68,0,0,1,1.67-1.75A1.59,1.59,0,0,1,23.1,13.9a.43.43,0,0,1-.44.46h-1.9a.79.79,0,0,0,.83.66,1.09,1.09,0,0,0,.68-.23.35.35,0,0,1,.23-.07.36.36,0,0,1,.37.37.4.4,0,0,1-.13.29A1.74,1.74,0,0,1,21.57,15.78Zm.62-2a.73.73,0,0,0-.71-.71c-.4,0-.65.28-.73.71Z"/><path class="cls-3" d="M23.83,12.78a.47.47,0,0,1,.48-.47.48.48,0,0,1,.48.47v.16c.13-.33.36-.63.64-.63a.43.43,0,0,1,.47.46.46.46,0,0,1-.36.45c-.48.11-.75.48-.75,1.16v.89a.49.49,0,0,1-.48.48.48.48,0,0,1-.48-.48Z"/><path class="cls-3" d="M26.44,11.54c0-.27.24-.44.54-.44a.47.47,0,0,1,.53.44v0A.48.48,0,0,1,27,12a.49.49,0,0,1-.54-.45Zm.06,1.24a.47.47,0,0,1,.48-.47.48.48,0,0,1,.48.47v2.49a.49.49,0,0,1-.48.48.48.48,0,0,1-.48-.48Z"/><path class="cls-3" d="M30,15.78a1.68,1.68,0,0,1-1.76-1.73v0a1.68,1.68,0,0,1,1.67-1.75,1.6,1.6,0,0,1,1.62,1.62.44.44,0,0,1-.45.46H29.14A.78.78,0,0,0,30,15a1.05,1.05,0,0,0,.68-.23.39.39,0,0,1,.61.3.4.4,0,0,1-.13.29A1.74,1.74,0,0,1,30,15.78Zm.62-2a.73.73,0,0,0-.71-.71.74.74,0,0,0-.73.71Z"/><path class="cls-3" d="M32.21,12.78a.48.48,0,0,1,.95,0v0a1.21,1.21,0,0,1,1-.54,1.1,1.1,0,0,1,1.14,1.25v1.74a.48.48,0,1,1-.95,0V13.83c0-.45-.22-.68-.58-.68s-.6.23-.6.68v1.44a.48.48,0,1,1-.95,0Z"/><path class="cls-3" d="M36,14.05v0a1.81,1.81,0,0,1,2.92-1.37A.43.43,0,0,1,39,13a.43.43,0,0,1-.44.42.45.45,0,0,1-.27-.09.94.94,0,0,0-.6-.22.86.86,0,0,0-.82.92h0a.86.86,0,0,0,.86.93,1,1,0,0,0,.63-.23.39.39,0,0,1,.25-.09.4.4,0,0,1,.4.41.42.42,0,0,1-.13.3,1.66,1.66,0,0,1-1.2.43A1.71,1.71,0,0,1,36,14.05Z"/><path class="cls-3" d="M41.31,15.78a1.68,1.68,0,0,1-1.76-1.73v0a1.67,1.67,0,0,1,1.66-1.75,1.59,1.59,0,0,1,1.62,1.62.43.43,0,0,1-.44.46H40.5a.78.78,0,0,0,.82.66,1.09,1.09,0,0,0,.68-.23.35.35,0,0,1,.23-.07.36.36,0,0,1,.37.37.39.39,0,0,1-.12.29A1.76,1.76,0,0,1,41.31,15.78Zm.61-2a.71.71,0,0,0-.71-.71.76.76,0,0,0-.73.71Z"/><path class="cls-3" d="M45.45,12.78a.48.48,0,0,1,.95,0v.16c.14-.33.37-.63.65-.63a.43.43,0,0,1,.47.46.46.46,0,0,1-.36.45c-.49.11-.76.48-.76,1.16v.89a.48.48,0,1,1-.95,0Z"/><path class="cls-3" d="M49.67,15.78a1.68,1.68,0,0,1-1.76-1.73v0a1.68,1.68,0,0,1,1.67-1.75A1.6,1.6,0,0,1,51.2,13.9a.44.44,0,0,1-.45.46H48.86a.78.78,0,0,0,.82.66,1.05,1.05,0,0,0,.68-.23.39.39,0,0,1,.61.3.4.4,0,0,1-.13.29A1.76,1.76,0,0,1,49.67,15.78Zm.62-2a.73.73,0,0,0-.71-.71.74.74,0,0,0-.73.71Z"/><path class="cls-3" d="M51.84,15.39a.4.4,0,0,1-.18-.33.37.37,0,0,1,.37-.38.31.31,0,0,1,.19.06,1.78,1.78,0,0,0,.91.3c.28,0,.41-.1.41-.25v0c0-.2-.33-.27-.7-.39s-1-.35-1-1h0a1.1,1.1,0,0,1,1.23-1.06,2.42,2.42,0,0,1,1,.25.39.39,0,0,1,.22.36.38.38,0,0,1-.38.38.41.41,0,0,1-.18,0,1.78,1.78,0,0,0-.72-.21c-.24,0-.36.1-.36.23h0c0,.19.32.28.69.4s1,.39,1,1h0c0,.75-.56,1.09-1.29,1.09A2.37,2.37,0,0,1,51.84,15.39Z"/><path class="cls-3" d="M54.92,14.05v0a1.77,1.77,0,0,1,1.83-1.75A1.75,1.75,0,0,1,58.56,14h0a1.76,1.76,0,0,1-1.83,1.75A1.74,1.74,0,0,1,54.92,14.05Zm2.7,0v0a.9.9,0,0,0-.89-.93.86.86,0,0,0-.87.92h0a.89.89,0,0,0,.89.93A.86.86,0,0,0,57.62,14.05Z"/><path class="cls-3" d="M62.32,15.27a.49.49,0,0,1-.48.48.48.48,0,0,1-.48-.48v0a1.2,1.2,0,0,1-1,.54,1.1,1.1,0,0,1-1.14-1.25V12.78a.48.48,0,0,1,1,0v1.44c0,.45.22.68.58.68s.6-.23.6-.68V12.78a.47.47,0,0,1,.48-.47.48.48,0,0,1,.48.47Z"/><path class="cls-3" d="M63.17,12.78a.48.48,0,0,1,1,0v.16c.14-.33.37-.63.65-.63a.43.43,0,0,1,.47.46.46.46,0,0,1-.36.45c-.49.11-.76.48-.76,1.16v.89a.48.48,0,1,1-1,0Z"/><path class="cls-3" d="M65.63,14.05v0a1.73,1.73,0,0,1,1.77-1.75,1.67,1.67,0,0,1,1.15.38.43.43,0,0,1-.28.75.49.49,0,0,1-.28-.09.94.94,0,0,0-.6-.22.85.85,0,0,0-.81.92h0a.86.86,0,0,0,.85.93,1,1,0,0,0,.63-.23.42.42,0,0,1,.26-.09.4.4,0,0,1,.4.41.43.43,0,0,1-.14.3,1.64,1.64,0,0,1-1.19.43A1.71,1.71,0,0,1,65.63,14.05Z"/><path class="cls-3" d="M71,15.78a1.68,1.68,0,0,1-1.76-1.73v0a1.68,1.68,0,0,1,1.67-1.75,1.6,1.6,0,0,1,1.62,1.62.44.44,0,0,1-.45.46H70.17A.78.78,0,0,0,71,15a1.05,1.05,0,0,0,.68-.23.35.35,0,0,1,.23-.07.37.37,0,0,1,.38.37.4.4,0,0,1-.13.29A1.76,1.76,0,0,1,71,15.78Zm.62-2a.73.73,0,0,0-.71-.71.74.74,0,0,0-.73.71Z"/><path class="cls-3" d="M73.15,15.39a.4.4,0,0,1-.18-.33.37.37,0,0,1,.37-.38.31.31,0,0,1,.19.06,1.78,1.78,0,0,0,.91.3c.28,0,.41-.1.41-.25v0c0-.2-.33-.27-.7-.39s-1-.35-1-1h0a1.1,1.1,0,0,1,1.23-1.06,2.42,2.42,0,0,1,1,.25.39.39,0,0,1,.22.36.38.38,0,0,1-.38.38.41.41,0,0,1-.18,0,1.78,1.78,0,0,0-.72-.21c-.24,0-.36.1-.36.23h0c0,.19.32.28.69.4s1,.39,1,1h0c0,.75-.56,1.09-1.29,1.09A2.37,2.37,0,0,1,73.15,15.39Z"/></g></g></g></svg>