<?xml version="1.0" encoding="utf-8"?>
<!-- Generator: Adobe Illustrator 21.1.0, SVG Export Plug-In . SVG Version: 6.00 Build 0)  -->
<svg version="1.1" id="Layer_1" xmlns="http://www.w3.org/2000/svg" xmlns:xlink="http://www.w3.org/1999/xlink" x="0px" y="0px"
	 viewBox="0 0 46.6 14.1" style="enable-background:new 0 0 46.6 14.1;" xml:space="preserve">
<style type="text/css">
	.st0{fill:#1C3664;}
</style>
<g>
	<g>
		<path class="st0" d="M8.4,3.5L6.7,2.2L5,3.5L4.7,3.1l2.1-1.6l2.1,1.6L8.4,3.5z M10.4,12.4V8.4h0.7v2.7c0.4-0.4,0.7-0.9,0.9-1.4
			c0.5-0.9,0.8-2,0.8-3c0-3.4-2.7-6.1-6-6.2c-3.4,0-6.1,2.7-6.2,6c0,0,0,0.1,0,0.1c0,1.1,0.3,2.1,0.8,3c0.3,0.5,0.6,0.9,0.9,1.4V8.4
			H3v3.9c-3.1-2-4-6.2-1.9-9.3s6.2-4,9.3-1.9c3.1,2,4,6.2,1.9,9.3C11.9,11.2,11.2,11.9,10.4,12.4 M7.7,13.4V4h0.7v9.2
			C8.2,13.3,8,13.4,7.7,13.4 M9.1,13.1V8.4h0.7v4.3C9.5,12.9,9.3,13,9.1,13.1 M6.7,13.5c-0.1,0-0.2,0-0.3,0V4h0.7v9.4
			C7,13.4,6.8,13.5,6.7,13.5 M5,13.2V4h0.7v9.4C5.5,13.4,5.3,13.3,5,13.2 M3.7,12.7V8.4h0.7V13C4.1,13,3.9,12.9,3.7,12.7"/>
		<path class="st0" d="M25.2,3.4h-1.1c0-0.4,0.1-1.1,0.6-1.1C25.1,2.4,25.2,3,25.2,3.4 M25.9,3.8c0-0.8-0.2-1.7-1.2-1.7
			c-1,0-1.3,1.1-1.3,1.9c0,1,0.4,1.7,1.3,1.7c0.5,0,1-0.3,1.2-0.8l-0.3-0.1c-0.1,0.3-0.4,0.4-0.6,0.5c-0.7,0-0.8-0.8-0.8-1.4
			L25.9,3.8z M22.9,3.8c0-1.5-1-1.8-1.4-1.8c-1,0-1.4,1-1.4,1.9c0,1.1,0.6,1.8,1.4,1.8C22.2,5.6,22.9,5,22.9,3.8 M19.5,4.3
			c0-0.3-0.1-0.7-0.4-0.9C19,3.1,18.7,3,18.4,3c0.5-0.2,0.8-0.6,0.8-1.2c0-0.3-0.1-0.6-0.3-0.8c-0.3-0.3-0.7-0.4-1.2-0.4
			c-0.3,0-0.6,0-0.9,0H16V1l0.5,0.1v4.1L16,5.3v0.3h0.8c0.2,0,0.9,0,1.1,0c0.6,0.1,1.1-0.2,1.4-0.6C19.5,4.7,19.5,4.5,19.5,4.3
			 M24.6,9.8V9.4l-0.8,0c-0.2,0-0.5-0.1-0.7-0.1c-0.6,0-1.2,0.5-1.2,1.1c0,0,0,0.1,0,0.1c0,0.4,0.2,0.8,0.6,1
			c-0.4,0.2-0.6,0.5-0.6,0.7c0,0.2,0.2,0.4,0.4,0.5c-0.3,0.1-0.5,0.4-0.6,0.7c0,0.5,0.7,0.7,1.2,0.7c1.1,0,1.7-0.5,1.7-1.2
			c0-0.6-0.4-0.8-1-0.8l-0.9,0c-0.1,0-0.2,0-0.2-0.1c0-0.1,0.1-0.2,0.3-0.3c0.1,0,0.3,0.1,0.4,0.1c0.6,0,1.1-0.4,1.2-1.1
			c0-0.3-0.1-0.6-0.3-0.8L24.6,9.8z M21.3,12.8v-0.3L21,12.4v-2.2c0.1-0.4-0.3-0.8-0.7-0.9c-0.1,0-0.1,0-0.2,0
			c-0.3,0-0.7,0.2-0.9,0.4V9.3H19l-0.9,0.2v0.3l0.4,0.1v2.6l-0.4,0.1v0.3h1.5v-0.3l-0.4-0.1v-2.3c0.2-0.2,0.4-0.3,0.7-0.3
			c0.4,0,0.4,0.4,0.4,0.6v2.1l-0.4,0.1v0.3L21.3,12.8z M17.6,12.8v-0.3l-0.4-0.1V8.3l0.4-0.1V7.9H16v0.3l0.5,0.1v4.1L16,12.5v0.3
			L17.6,12.8z M22.1,3.8c0,0.5-0.1,1.5-0.7,1.5c-0.4,0-0.6-0.6-0.6-1.4c0-0.4,0-1.5,0.7-1.5C22,2.4,22.1,3.2,22.1,3.8 M18.4,1.9
			c0,0.9-0.6,1-0.9,1h-0.4V1C17.3,1,17.5,0.9,17.7,1C17.9,1,18.4,1.1,18.4,1.9 M18.7,4.2c0,0.4-0.1,0.7-0.4,0.9
			c-0.2,0.1-0.4,0.2-0.6,0.2c-0.2,0-0.3,0-0.5-0.1v-2h0.3C18,3.2,18.7,3.2,18.7,4.2 M23.6,10.5c0,0.3-0.1,0.8-0.5,0.8
			c-0.4,0-0.5-0.5-0.5-0.9c0-0.4,0-0.8,0.5-0.8C23.5,9.6,23.6,10.1,23.6,10.5 M24.1,13.1c0,0.3-0.5,0.6-1,0.6
			c-0.4,0-0.7-0.2-0.7-0.5c0-0.2,0.1-0.4,0.3-0.5c0.4,0,0.8,0.1,1.3,0.1C24,12.8,24.1,12.9,24.1,13.1"/>
		<path class="st0" d="M35.4,10.7h-1.1c0-0.4,0.1-1.1,0.6-1.1C35.3,9.6,35.4,10.2,35.4,10.7 M33.6,0.8c0-0.3-0.2-0.5-0.5-0.5
			c-0.3,0-0.5,0.2-0.5,0.5c0,0.3,0.2,0.5,0.5,0.5C33.4,1.3,33.6,1.1,33.6,0.8C33.6,0.8,33.6,0.8,33.6,0.8 M33.9,5.6V5.3l-0.4-0.1
			V2.1h-0.2l-0.9,0.2v0.2l0.4,0.1v2.6l-0.4,0.1v0.3H33.9z M32.1,2.5c0-0.2-0.1-0.4-0.3-0.4c0,0,0,0-0.1,0c-0.3,0-0.5,0.2-0.7,0.6
			V2.1h-0.2L30,2.3v0.2l0.4,0.1v2.6L30,5.3v0.3h1.6V5.3l-0.5-0.1V3.3c0-0.3,0.2-0.5,0.4-0.6l0.4,0.2C32,2.8,32.1,2.7,32.1,2.5
			 M29.5,5.6V5.3l-0.4-0.1V3c0-0.4-0.3-0.8-0.7-0.9c0,0-0.1,0-0.1,0c-0.3,0-0.7,0.2-0.9,0.4V0.4h-0.2l-0.9,0.2v0.2l0.4,0.1v4.3
			l-0.4,0.1v0.3h1.4V5.3l-0.3-0.1V2.9c0.2-0.2,0.4-0.3,0.7-0.3c0.4,0,0.4,0.4,0.4,0.7v1.9l-0.3,0.1v0.3L29.5,5.6z M33.1,12.8v-0.3
			l-0.4-0.1v-2.2c0.1-0.4-0.3-0.8-0.7-0.9c-0.1,0-0.1,0-0.2,0c-0.3,0-0.7,0.2-0.9,0.4V7.6h-0.2l-0.9,0.2V8l0.4,0.1v4.3l-0.4,0.1v0.3
			h1.4v-0.3L31,12.4v-2.3c0.2-0.2,0.4-0.3,0.7-0.3c0.4,0,0.4,0.4,0.4,0.7v1.9l-0.3,0.1v0.3H33.1z M29.4,12.8v-0.3l-0.4-0.1V7.6h-0.2
			L28,7.8V8l0.4,0v4.4L28,12.5v0.3H29.4z M36.1,11c0-0.8-0.2-1.7-1.2-1.7c-1,0-1.3,1.1-1.3,1.9c0,1,0.4,1.7,1.3,1.7
			c0.5,0,1-0.3,1.2-0.8l-0.3-0.1c-0.1,0.3-0.4,0.4-0.6,0.5c-0.7,0-0.8-0.8-0.8-1.4H36.1z M27.5,11c0-0.8-0.2-1.7-1.2-1.7
			c-1,0-1.3,1.1-1.3,1.9c0,1,0.4,1.7,1.3,1.7c0.5,0,1-0.3,1.2-0.8l-0.3-0.1c-0.1,0.3-0.4,0.4-0.6,0.5c-0.7,0-0.8-0.8-0.8-1.4H27.5z
			 M26.8,10.7h-1.1c0-0.4,0.1-1.1,0.6-1.1C26.8,9.6,26.8,10.2,26.8,10.7"/>
		<path class="st0" d="M39.9,3.2c0,0.4-0.1,0.8-0.5,0.8c-0.4,0-0.5-0.5-0.5-0.9c0-0.4,0-0.8,0.5-0.8C39.9,2.3,39.9,2.8,39.9,3.2
			 M46.6,2.5c0-0.2-0.1-0.4-0.4-0.4c0,0,0,0,0,0c-0.3,0-0.5,0.2-0.7,0.6V2.1h-0.2l-0.9,0.2v0.2l0.4,0.1v2.6l-0.4,0.1v0.3H46V5.3
			l-0.5-0.1V3.3c0.1-0.3,0.2-0.5,0.5-0.6l0.4,0.2C46.4,2.8,46.6,2.7,46.6,2.5 M41,2.5V2.1l-0.8,0c-0.2,0-0.5-0.1-0.7-0.1
			c-0.6,0-1.2,0.5-1.2,1.1c0,0,0,0,0,0.1c0,0.4,0.2,0.8,0.6,1c-0.4,0.2-0.7,0.5-0.7,0.7c0,0.2,0.2,0.4,0.4,0.5
			C38.3,5.5,38,5.8,38,6.1c0,0.5,0.7,0.7,1.3,0.7c1.1,0,1.7-0.5,1.7-1.2c0-0.6-0.4-0.8-1-0.8l-0.9,0c-0.1,0-0.2,0-0.2-0.2
			c0-0.1,0.1-0.2,0.3-0.3c0.1,0,0.3,0.1,0.4,0.1c0.6,0,1.2-0.5,1.2-1.1c0,0,0,0,0,0c0-0.3-0.1-0.5-0.3-0.7L41,2.5z M37.7,5.6V5.3
			l-0.4-0.1V3c0.1-0.4-0.2-0.8-0.7-0.9c-0.1,0-0.1,0-0.2,0c-0.3,0-0.7,0.2-0.9,0.4V2.1h-0.2l-0.9,0.2v0.3l0.4,0v2.6l-0.4,0.1v0.3
			h1.4V5.3l-0.4-0.1V2.9c0.2-0.2,0.4-0.3,0.7-0.3c0.4,0,0.4,0.4,0.4,0.6v2.1l-0.4,0.1v0.3L37.7,5.6z M43.7,12.8v-0.3l-0.4-0.1v-2.2
			c0-0.4-0.3-0.8-0.7-0.9c-0.1,0-0.1,0-0.2,0c-0.4,0-0.7,0.2-0.9,0.5c-0.2-0.3-0.5-0.5-0.8-0.5c-0.4,0-0.7,0.2-1,0.4V9.3h-0.2
			l-0.9,0.2v0.2L39,9.8v2.6l-0.4,0.1v0.3H40v-0.3l-0.3-0.1v-2.3c0.2-0.2,0.4-0.3,0.7-0.3c0.4,0,0.4,0.3,0.4,0.6v2l-0.4,0.1v0.3h1.4
			v-0.3l-0.4-0.1v-2.3c0.2-0.2,0.4-0.3,0.7-0.3c0.4,0,0.4,0.4,0.4,0.6v2l-0.4,0.1v0.3L43.7,12.8z M37.8,8c0-0.2-0.2-0.4-0.4-0.5
			c0,0,0,0,0,0c-0.3,0-0.5,0.2-0.5,0.5c0,0.3,0.2,0.5,0.5,0.4C37.6,8.5,37.8,8.3,37.8,8C37.8,8,37.8,8,37.8,8 M38.1,12.8v-0.3
			l-0.4-0.1V9.3h-0.2l-0.9,0.2v0.2L37,9.9v2.6l-0.4,0.1v0.3L38.1,12.8z M40.4,5.9c0,0.3-0.5,0.5-1,0.5c-0.4,0-0.7-0.2-0.7-0.5
			c0-0.2,0.1-0.4,0.3-0.5c0.4,0,0.8,0.1,1.3,0.1C40.3,5.6,40.4,5.7,40.4,5.9 M43.9,3.8c0-0.8-0.2-1.7-1.2-1.7c-1,0-1.3,1.1-1.3,1.9
			c0,1,0.4,1.7,1.3,1.7c0.5,0,1-0.3,1.2-0.8l-0.3-0.1c-0.1,0.3-0.4,0.4-0.6,0.5c-0.7,0-0.8-0.8-0.8-1.4H43.9z M43.1,3.4h-1.1
			c0-0.4,0.1-1.1,0.6-1.1C43.1,2.4,43.1,3,43.1,3.4"/>
	</g>
</g>
</svg>
